<svg height="129.04318mm" viewBox="0 0 154.85182 129.04318" width="154.85182mm" xmlns="http://www.w3.org/2000/svg"><g stroke-width=".215072" transform="translate(-14.800282 -60.121265)"><path d="m14.800282 124.64285v-64.521585h77.42591 77.425908v64.521585 64.52159h-77.425908-77.42591z" fill="#fefefe"/><path d="m93.194016 176.9113c-5.017872-.45423-10.026249-2.1206-14.033685-4.66924-9.740713-6.19488-16.35141-17.67366-18.123076-31.46881-.436543-3.39915-.160373-3.11854-3.069202-3.11854-1.380704 0-2.588542-.0961-2.704216-.21507-.114973-.11829-2.110024-3.38017-4.433446-7.24862-4.210602-7.01056-4.226277-7.03283-4.796961-6.81585-1.556967.59196-3.975597.83747-8.250555.8375l-4.439084.00004-1.260323-.93024c-1.850761-1.36605-3.804119-3.42012-5.479827-5.76236-1.263856-1.76656-1.479904-2.19979-1.479904-2.96751 0-.69585.128574-1.01811.569085-1.42636.312997-.29008.791377-.52742 1.063066-.52742.27169 0 .814056-.18451 1.205259-.41002.865404-.49888 3.187484-.79403 3.774661-.47978.229129.12262.778143.97788 1.220032 1.90058.736346 1.53754 1.895773 3.07559 2.318469 3.07559.09508 0 .172882-.38021.172882-.84492 0-1.36354.314773-1.51973 3.080139-1.52842 1.322307-.004 3.033282-.14806 3.802164-.31978.768883-.17172 2.26901-.37326 3.333616-.44788 2.344579-.16433 2.567878-.0347 3.95929 2.29801.513117.86025 2.093556 3.36169 3.512085 5.55875 1.41853 2.19706 3.26964 5.08066 4.11358 6.40801 1.509014 2.37337 2.04696 2.86157 2.824385 2.56325.261924-.10051.32351-.60368.32531-2.65783.0054-6.18852 1.270505-15.39406 2.801417-20.38482 2.344104-7.641759 5.313472-12.970047 9.659534-17.33324 4.080578-4.096662 8.161674-6.346173 13.883146-7.65243 2.4247-.553578 12.94131-.5419 16.775613.01863 7.47916 1.093357 11.56578 3.020686 13.99759 6.601522.61114.899894 1.31406 2.178499 1.56207 2.84134.55818 1.491874 1.191 4.74989 1.63678 8.426808 1.14538 9.44738 1.83874 12.56664 4.20703 18.92634 1.65428 4.44232 2.31628 6.93572 2.91776 10.98964l.35412 2.38676 4.91729 4.55431c2.70451 2.50487 5.04654 4.6039 5.2045 4.66452.15796.0606.71651-.23104 1.24122-.64813.85993-.68355 1.0861-.75855 2.29331-.76043 1.43974-.002 2.99939.48876 5.3969 1.69901 1.60667.81104 4.25093 2.46923 4.93146 3.09245.63477.58131.64795 1.88012.0292 2.88121-.25007.40462-.39672.79363-.32589.86446.0708.0708 1.65059 1.16176 3.51058 2.42427 3.78502 2.56919 4.36736 3.25834 4.36736 5.16847 0 2.39543-2.83713 4.21104-4.90357 3.13803-.31942-.16587-1.48336-1.027-2.58654-1.91364l-2.00577-1.61206-.94581.94581c-.52019.5202-1.08887.94581-1.26374.94581-.17486 0-.61109.42608-.96939.94686-.3583.52077-1.13721 1.24574-1.73091 1.61105-.5937.3653-1.07945.75838-1.07945.8735 0 .38442-1.59676 1.30017-2.26707 1.30017-.64596 0-2.45868-.95985-3.93095-2.08147-.99804-.76034-1.93971-2.12782-2.10159-3.05188-.0978-.55852-.49417-1.14888-1.39072-2.07156-.68964-.70974-1.59813-1.86543-2.01887-2.56821-.97871-1.63479-1.05295-3.15608-.2247-4.60488.29429-.51481.53508-1.00847.53508-1.097 0-.21687-4.47328-4.31162-4.71019-4.31162-.10284 0-.30059.79846-.43945 1.77434-1.53276 10.77176-7.77479 21.80399-15.46523 27.3334-3.40134 2.44555-6.25553 3.77427-9.96041 4.6369-1.35564.31564-6.720084.45862-9.105494.24269zm-18.680848-12.21129c-6.262862-9.69345-9.679676-19.38508-10.899734-30.9166-.286484-2.70773-.166429-11.03003.200114-13.87214.897357-6.95792 1.974926-11.54879 4.690915-19.985161.340569-1.057868-.941378 1.295831-1.748085 3.209551-7.990202 18.95482-5.958873 44.62981 4.667702 58.9974 1.324459 1.79072 3.955275 4.6639 4.270491 4.6639.09538 0-.43625-.94363-1.181403-2.09695zm55.673232-28.2282c-1.00048-1.01575-1.61304-1.34245-1.61304-.86028 0 .11828.0854.21507.18969.21507.10433 0 .66083.38367 1.23666.85261.57584.46894 1.09173.85607 1.14642.86029.0547.004-.37718-.47624-.95973-1.06769zm-40.705475-15.67311c.987953-.47151 1.792455-1.08599 2.72008-2.07763 1.790287-1.91382 2.267276-2.90022 3.249673-6.72018.130207-.5063.319537-.86938.420732-.80684.101196.0626.383682.77116.62775 1.5747.84604 2.7854 3.146673 5.539 5.57344 6.6708 1.07249.50019 1.5049.57392 3.38052.5764 1.89243.003 2.30004-.0671 3.3941-.57977.68385-.32044 1.83011-1.14227 2.54724-1.8263 2.36032-2.25135 3.59323-5.0139 3.78495-8.48077.10028-1.81343.0429-2.32139-.45979-4.07404-.7448-2.59651-1.4455-3.86519-3.02941-5.48501-1.51575-1.550116-2.61438-2.159364-4.66484-2.586897-2.77577-.578765-5.11108.177525-7.496398 2.427709-1.719232 1.621838-2.637129 3.247308-3.288221 5.822988-.261465 1.03435-.55581 1.92902-.6541 1.98817-.09829.0591-.439149-.66868-.757462-1.61739-2.472653-7.369538-10.002316-9.694557-15.04978-4.64709-2.354799 2.3548-3.470358 5.28096-3.46599 9.09145.0043 3.78772 1.028158 6.40707 3.457106 8.84472 2.116624 2.12421 3.712901 2.76816 6.564069 2.64799 1.411019-.0595 2.010955-.20115 3.146331-.74301zm-3.169212-1.99765c-2.054409-1.13123-3.165713-3.58041-2.68195-5.91068.470722-2.26746 2.385221-4.14079 4.24813-4.15678 2.977869-.0256 5.29305 3.63813 4.330091 6.85221-.35534 1.18602-1.303297 2.44026-2.249319 2.97609-.939074.53189-2.883728.65942-3.646952.23916zm0-1.68571c.07311-.11829.03043-.21508-.09484-.21508s-.227765.0968-.227765.21508c0 .11829.04268.21507.09484.21507s.154658-.0968.227765-.21507zm3.886983-4.68111c.369646-.25311.479795-.76469.280249-1.30158-.142827-.38428-.320963-.48274-.778259-.43014-.46981.054-.607439.1938-.662347.67266-.105428.91947.524531 1.49443 1.160357 1.05906zm16.114714 4.38266c-.90504-.395-2.12744-1.81795-2.58021-3.00352-.74557-1.95224-.1013-4.50706 1.48861-5.90302 1.78479-1.56707 3.83066-1.43098 5.52019.36719 1.18247 1.2585 1.59435 2.49348 1.43131 4.29159-.13135 1.44849-.51415 2.28591-1.49192 3.26368-1.23007 1.23007-2.92794 1.61259-4.36798.98408zm-.10754-1.85227c0-.11829-.0427-.21508-.0948-.21508-.0522 0-.15466.0968-.22777.21508-.0731.11829-.0304.21507.0948.21507.12528 0 .22777-.0968.22777-.21507zm3.96347-4.63941c.45073-.45073.42693-1.02036-.0611-1.462-.78138-.70713-1.65386.34701-1.11719 1.34979.28665.53561.71415.57632 1.17826.11221zm-70.151869 7.07783c-.147862-.0597-.389818-.0597-.53768 0s-.02688.10848.26884.10848c.295724 0 .416702-.0488.26884-.10848z" fill="#f5d3a0"/><path d="m93.194016 176.69623c-5.552868-.50266-11.063567-2.55162-15.63892-5.8148-2.542471-1.81331-6.832894-6.25188-8.5229-8.81719-4.049637-6.14706-6.787865-13.63752-7.783181-21.29099-.146142-1.12375-.33262-2.33353-.414395-2.6884l-.148683-.64521h-2.501513c-1.939625 0-2.572551-.0725-2.817776-.32261-.173946-.17744-2.101583-3.29816-4.28364-6.93494-2.182056-3.63678-4.083931-6.75276-4.226384-6.92441-.198395-.23905-.392025-.26151-.827382-.096-1.538061.58477-3.975958.83585-8.108723.83511-3.985-.00065-4.355728-.0339-5.039392-.45065-1.861675-1.13493-4.843823-4.23328-6.683335-6.94375-1.071228-1.57843-1.165448-2.65593-.292299-3.34275.311676-.24516.759969-.44575.996206-.44575s.731292-.18348 1.100123-.40773c.875773-.53246 3.246163-.81395 3.697809-.43912.180277.14962.708283 1.06927 1.173347 2.04368.588074 1.23213 1.10183 1.9746 1.687074 2.43812.462827.36657.936665.66649 1.052974.66649.123356 0 .166099-.40255.102579-.96609-.16864-1.49617.0337-1.61478 2.754868-1.61478 1.278969 0 3.033397-.14951 3.898728-.33224 2.453255-.51807 4.721673-.63929 5.387043-.28787.532557.28126 1.732999 2.06532 7.363619 10.94357 2.059938 3.24806 2.870577 4.49822 3.459291 5.33488.275552.39161.514297.48198 1.136382.43014l.78754-.0656.04554-2.15072c.247449-11.68658 2.1935-21.1553 5.913611-28.773317 1.986493-4.067927 3.458226-6.223213 6.156917-9.016529 4.139378-4.284517 7.702284-6.383832 13.321179-7.849032 2.283043-.595334 2.373027-.601427 8.651662-.58583 8.495615.0211 12.817525.643538 17.024735 2.451874 3.39518 1.459313 5.24482 3.196026 6.76324 6.350316 1.0191 2.117012 1.51868 4.297474 2.11888 9.248098 1.06162 8.75656 1.76293 12.08735 3.66798 17.42083 2.46674 6.90598 2.61741 7.44658 3.35679 12.04403.24731 1.53776.51209 2.90342.5884 3.03481.3177.547 9.99942 9.33182 10.28457 9.33182.17103 0 .76487-.3475 1.31965-.77224.9711-.74346 1.0648-.76934 2.5142-.69424 1.30658.0677 1.84178.24025 4.05059 1.30587 2.98931 1.44216 5.6624 3.06392 5.95678 3.61395.32683.61069.24688 1.43531-.22973 2.36955-.24106.47251-.38968.93773-.33029 1.03384.0594.0961 1.44221 1.07548 3.07291 2.17639 1.63071 1.1009 3.1921 2.20453 3.46976 2.45251.74179.66248 1.32327 1.92972 1.32327 2.88382 0 1.59705-1.67226 3.26646-3.27202 3.26646-1.07965 0-1.34582-.15135-3.88241-2.2075l-2.1083-1.70897-1.03064.96404c-.56686.53023-1.21685 1.0274-1.44442 1.10484-.22758.0774-.67523.5195-.99478.98238s-.85185 1.01146-1.18289 1.21906c-.33105.20761-1.05325.78967-1.60491 1.29348-1.45262 1.32661-1.893 1.37617-3.74714.4217-2.0856-1.07362-3.88999-2.94652-4.09563-4.25114-.12138-.77004-.40466-1.20396-1.59422-2.44194-2.51793-2.62043-3.0921-4.47199-2.03417-6.5597.29572-.58358.53768-1.19314.53768-1.35458 0-.32922-4.55458-4.52404-5.02042-4.62386-.2183-.0468-.33847.3-.44721 1.29043-.25837 2.3534-.95069 5.29709-1.94715 8.27915-4.23753 12.68145-13.04011 21.93539-23.08418 24.26784-1.65727.38486-6.765735.55958-9.396893.32141zm-17.901228-11.45165c-12.726752-19.53182-14.919656-40.17831-6.797904-64.00321.657595-1.929029 1.147245-3.555706 1.088116-3.614838-.201409-.201406-1.0426 1.204216-2.299731 3.842828-2.526717 5.30336-4.122837 11.01043-5.097579 18.22684-.548096 4.05777-.550312 14.18957-.004 18.06604 1.667724 11.83265 5.252086 20.41753 11.431781 27.38019 1.311081 1.47719 3.113279 3.03086 3.299583 2.84456.05548-.0555-.673655-1.28957-1.620314-2.74241zm82.237792-7.14947c1.0343-.72445 1.10865-2.75107.13217-3.60305-.84285-.73538-6.97026-4.72419-7.08335-4.61111-.2393.2393.14339.79002.83813 1.20614 1.08625.65063 5.55824 3.7346 5.91838 4.08144.44655.43005.19624 2.09696-.41213 2.74454-.54349.57851-.13444.70123.6068.18204zm-18.4154-1.78997c-.32472-.12893-1.29373.38851-1.29373.69082 0 .24974.15534.21625.72347-.15598.3979-.26071.65452-.50138.57026-.53484zm3.43785-2.30496c-.14725-.17744-.42526-.31918-.61778-.31499-.24086.005-.18233.1035.18764.31499.6902.39455.75759.39455.43014 0zm3.55333-2.90347c.48821-1.58.94772-2.78277 1.4073-3.6836.23784-.46622.37468-.94113.30408-1.05536-.20313-.32868-1.74078-.24397-2.03635.11217-.35555.42841-.12032.97056.42112.97056.572 0 .55112.34374-.10842 1.78434-.71431 1.56026-1.07819 3.3274-.8521 4.13815.17637.63251.17912.63007.3715-.33062.10659-.5323.32839-1.40334.49287-1.93564zm-12.58635-1.3784c0-.56622 1.28218-2.02137 2.26523-2.5708.55827-.31202 1.32658-.56731 1.70736-.56731.82937 0 1.43647-.58294 1.27001-1.21948-.27537-1.05304 1.51442-2.98579 2.9839-3.22224.91715-.14757 1.09237-.50494.24758-.50494-1.3819 0-2.87478 1.30932-3.70727 3.25144-.35467.8274-.54459.99352-1.54885 1.35464-1.33885.48145-2.64833 1.5898-3.23353 2.7369-.45371.88933-.53516 1.35981-.1995 1.15236.11829-.0731.21507-.25786.21507-.41057zm-.53917-11.01279c-3.30493-3.15841-4.16165-3.81741-4.547-3.4976-.44237.36714-.34801.82258.21476 1.03654.27797.10569 1.61009 1.09531 2.96027 2.19917 2.89633 2.36793 3.70172 2.9598 3.8453 2.82585.0583-.0544-1.05468-1.2082-2.47333-2.56396zm-45.497191-16.85652c1.366481-.25915 3.030768-1.07167 4.262545-2.08102 1.626957-1.33317 3.251831-4.0971 3.736095-6.35515.121385-.56599.288332-1.02908.370995-1.02908.08266 0 .283048.4496.445298.99911.162252.54951.769977 1.70926 1.350501 2.57721 2.160018 3.2295 5.223057 4.8281 8.642127 4.51033 3.07132-.28545 6.03798-2.45134 7.6903-5.6145 1.19545-2.28856 1.47246-3.4841 1.47246-6.35503 0-2.11568-.0874-2.78206-.55108-4.20255-.73349-2.24699-1.75363-3.87166-3.37159-5.369609-2.01834-1.868625-3.2006-2.332669-5.97065-2.343504-2.15128-.0084-2.32957.02644-3.76376.735675-2.797759 1.38356-4.917883 4.098448-5.882891 7.533238l-.392169 1.39586-.466962-1.24807c-1.004924-2.6859-3.27104-5.26464-5.570166-6.338602-1.109107-.518083-1.482526-.577684-3.603133-.575083-2.16779.0027-2.473792.05513-3.656224.626956-1.6796.812254-3.930436 3.046809-4.780254 4.745669-1.246243 2.49136-1.45457 3.41434-1.455747 6.44958-.0013 3.4303.485579 5.16707 2.137882 7.62567 2.291528 3.40975 5.739075 4.99891 9.356423 4.3129zm-1.171936-3.33979c-1.537752-.77232-2.474463-2.49158-2.472128-4.53737.0017-1.51743.324903-2.46447 1.183118-3.4671 1.619442-1.89196 3.833359-1.98534 5.622005-.23714 2.064454 2.01778 2.033696 5.54837-.06563 7.53304-1.116239 1.05527-2.965637 1.36235-4.267368.70857zm.215072-1.39387c0-.1742-.169369-.34934-.376376-.3892-.264076-.0509-.376376.0653-.376376.3892 0 .32393.1123.44005.376376.3892.207007-.0399.376376-.21501.376376-.3892zm4.14077-4.98058c.549255-1.15149-.456779-2.23074-1.438458-1.54315-.484318.33923-.57861 1.13886-.214519 1.81917.332529.62134 1.302173.45942 1.652977-.27602zm15.605355 4.34709c-1.04507-.47447-2.10935-1.82143-2.45581-3.10809-.74559-2.76891 1.08418-5.95999 3.61187-6.29902 2.53791-.34041 4.82815 2.41844 4.51836 5.44287-.19774 1.93049-1.19913 3.38915-2.78025 4.04978-1.04379.43613-1.79399.41395-2.89417-.0855zm.0758-1.20908c.17926-.46713-.27581-.90643-.60154-.5807-.2753.2753-.10475.91776.24363.91776.12571 0 .28678-.15168.35791-.33706zm3.89567-4.72932c.68403-.47911.64227-1.4833-.0814-1.95747-.66349-.43473-1.16229-.21997-1.46567.63107-.14659.41119-.10406.69429.16626 1.10685.41928.6399.71381.68673 1.38081.21955zm-68.545933 6.89025c.995801-.29805 2.31942-.60173 2.941374-.67482 1.217854-.14314 1.464617-.41186.581697-.63346-.677774-.17011-2.38263.0374-4.018555.48925-1.446286.39943-3.214111.29635-3.785469-.22072-.483975-.43799-.679871-.44846-.679871-.0363 0 .42934.90392.99244 2.118162 1.3195.55021.14821 1.007522.27599 1.016248.28398.0087.008.830614-.22935 1.826414-.52741z" fill="#fdca64"/><path d="m93.194016 176.69623c-5.552868-.50266-11.063567-2.55162-15.63892-5.8148-2.542471-1.81331-6.832894-6.25188-8.5229-8.81719-4.049637-6.14706-6.787865-13.63752-7.783181-21.29099-.146142-1.12375-.33262-2.33353-.414395-2.6884l-.148683-.64521h-2.501513c-1.939625 0-2.572551-.0725-2.817776-.32261-.173946-.17744-2.101583-3.29816-4.28364-6.93494-2.182056-3.63678-4.083931-6.75276-4.226384-6.92441-.198395-.23905-.392025-.26151-.827382-.096-1.538061.58477-3.975958.83585-8.108723.83511-3.985-.00065-4.355728-.0339-5.039392-.45065-1.861675-1.13493-4.843823-4.23328-6.683335-6.94375-1.071228-1.57843-1.165448-2.65593-.292299-3.34275.311676-.24516.759969-.44575.996206-.44575s.731292-.18348 1.100123-.40773c.875773-.53246 3.246163-.81395 3.697809-.43912.180277.14962.708283 1.06927 1.173347 2.04368.588074 1.23213 1.10183 1.9746 1.687074 2.43812.462827.36657.936665.66649 1.052974.66649.123356 0 .166099-.40255.102579-.96609-.16864-1.49617.0337-1.61478 2.754868-1.61478 1.278969 0 3.033397-.14951 3.898728-.33224 2.453255-.51807 4.721673-.63929 5.387043-.28787.532557.28126 1.732999 2.06532 7.363619 10.94357 2.059938 3.24806 2.870577 4.49822 3.459291 5.33488.275552.39161.514297.48198 1.136382.43014l.78754-.0656.04554-2.15072c.247449-11.68658 2.1935-21.1553 5.913611-28.773317 1.986493-4.067927 3.458226-6.223213 6.156917-9.016529 4.139378-4.284517 7.702284-6.383832 13.321179-7.849032 2.283043-.595334 2.373027-.601427 8.651662-.58583 8.495615.0211 12.817525.643538 17.024735 2.451874 3.39518 1.459313 5.24482 3.196026 6.76324 6.350316 1.0191 2.117012 1.51868 4.297474 2.11888 9.248098 1.06162 8.75656 1.76293 12.08735 3.66798 17.42083 2.46674 6.90598 2.61741 7.44658 3.35679 12.04403.24731 1.53776.51209 2.90342.5884 3.03481.3177.547 9.99942 9.33182 10.28457 9.33182.17103 0 .76487-.3475 1.31965-.77224.9711-.74346 1.0648-.76934 2.5142-.69424 1.30658.0677 1.84178.24025 4.05059 1.30587 2.98931 1.44216 5.6624 3.06392 5.95678 3.61395.32683.61069.24688 1.43531-.22973 2.36955-.24106.47251-.38968.93773-.33029 1.03384.0594.0961 1.44221 1.07548 3.07291 2.17639 1.63071 1.1009 3.1921 2.20453 3.46976 2.45251.74179.66248 1.32327 1.92972 1.32327 2.88382 0 1.59705-1.67226 3.26646-3.27202 3.26646-1.07965 0-1.34582-.15135-3.88241-2.2075l-2.1083-1.70897-1.03064.96404c-.56686.53023-1.21685 1.0274-1.44442 1.10484-.22758.0774-.67523.5195-.99478.98238s-.85185 1.01146-1.18289 1.21906c-.33105.20761-1.05325.78967-1.60491 1.29348-1.45262 1.32661-1.893 1.37617-3.74714.4217-2.0856-1.07362-3.88999-2.94652-4.09563-4.25114-.12138-.77004-.40466-1.20396-1.59422-2.44194-2.51793-2.62043-3.0921-4.47199-2.03417-6.5597.29572-.58358.53768-1.19314.53768-1.35458 0-.32922-4.55458-4.52404-5.02042-4.62386-.2183-.0468-.33847.3-.44721 1.29043-.25837 2.3534-.95069 5.29709-1.94715 8.27915-4.23753 12.68145-13.04011 21.93539-23.08418 24.26784-1.65727.38486-6.765735.55958-9.396893.32141zm9.570704-2.49962c7.17953-1.84196 13.78225-7.63996 18.26235-16.03661 1.99559-3.74015 3.48793-8.16782 4.44662-13.19284.50657-2.65527.57717-3.57004.59749-7.74259.0176-3.60917-.0661-5.25117-.35264-6.9219-.5831-3.39953-1.5533-6.98646-2.72041-10.05771-2.38113-6.26591-3.27446-10.16085-4.31876-18.82988-.90779-7.535865-1.64185-9.888383-3.83262-12.282865-3.2142-3.513089-9.20844-4.994896-20.254766-5.007082l-5.91448-.0065-2.580863.685615c-5.93258 1.57601-11.01837 5.120048-14.614569 10.18418-.704057.991445-1.613506 2.181574-2.020997 2.644727-.866634.985014-3.142272 5.634175-4.107098 8.390865-1.427725 4.07927-2.494134 8.68117-3.168287 13.67221-.548096 4.05777-.550312 14.18957-.004 18.06604 1.465146 10.39534 4.545856 18.57533 9.394217 24.94383 1.603235 2.10591 4.241495 4.79624 5.178208 5.28041.406779.21026 1.22351.73388 1.814958 1.16362 1.500861 1.09049 4.054051 2.59351 4.405627 2.59351.199531 0 .147071-.15576-.163969-.48685-.251552-.26776-.610314-.85289-.79725-1.30029-.755296-1.80768.696846-2.84127 3.975575-2.82969 1.84912.007 2.349601.10671 5.269264 1.05474 1.774343.57613 3.6616 1.12876 4.193903 1.22804 6.298877 1.1749 11.769677 1.11492 13.703277-.15021 1.33148-.87119 1.2583.34592-.1 1.6627-1.16639 1.13075-1.88353 1.5319-3.77084 2.10929-1.44418.44183-6.614893 1.50612-7.343407 1.5115-.245231.002-.59105.1033-.768484.22553-.57492.39604 3.406301-.011 5.591871-.57176zm-4.211524-7.60805c-.246268-.0996-.829306-.6146-1.29564-1.14438-1.800333-2.04529-2.495027-5.98336-1.592053-9.02503.782827-2.63696 2.171583-3.84791 4.016086-3.50188 2.416561.45335 4.406741 5.23029 3.772831 9.05579-.31162 1.88057-1.23061 3.7158-2.17324 4.33999-.75092.49724-1.894401.61272-2.727984.27551zm-23.949513-5.0826c-1.431595-1.20461-1.90945-3.40862-1.114404-5.13999.505595-1.10103 1.076568-1.60122 1.998627-1.75084 2.361359-.3832 4.312105 2.77712 3.319131 5.37718-.507553 1.32901-1.198612 1.89979-2.445156 2.01956-.903468.0868-1.131904.0211-1.758198-.50591zm40.071537-8.56262c-2.44435-1.08162-3.57012-6.64446-1.75193-8.65697 1.4745-1.63209 3.71381-.25055 4.6837 2.88962.51474 1.6665.53836 2.65944.0943 3.96274-.57343 1.68293-1.73525 2.37579-3.02605 1.80461zm-19.868164-3.90952c-3.159464-.57363-5.587865-1.79724-7.637236-3.84823-3.820833-3.82383-5.000875-10.19636-2.40403-12.98238 1.390854-1.49217 3.224504-1.70424 7.948987-.91933 3.479198.57802 6.086615.58097 8.975003.0101 4.72482-.93376 6.44552-.53354 7.59623 1.76681.53249 1.06449.60681 1.45296.60681 3.17196 0 3.51522-1.16552 6.31397-3.68695 8.85345-1.70977 1.722-3.6031 2.87078-5.80694 3.52335-1.183551.35046-4.57929.60808-5.591874.42423zm-22.797629-12.27458c-2.173389-.86557-3.537472-5.60808-2.312024-8.03821.647238-1.28352 1.783699-1.88689 2.676147-1.42084 1.364896.71278 2.24222 2.09034 2.763916 4.33984.29795 1.28474.297087 1.55085-.0089 2.75068-.186321.7306-.558224 1.54911-.826455 1.81893-.493242.49618-1.700286.78552-2.29268.5496zm43.014393-2.58109c-1.37013-.53063-2.58104-3.02231-2.58069-5.31028.00021-1.56984 1.02487-3.70405 1.96888-4.10097 2.42416-1.01929 4.57632 3.20508 3.60272 7.0716-.42025 1.66897-1.84497 2.78346-2.99091 2.33965zm-28.712107-15.66894c-1.537752-.77232-2.474463-2.49158-2.472128-4.53737.0017-1.51743.324903-2.46447 1.183118-3.4671 1.619442-1.89196 3.833359-1.98534 5.622005-.23714 2.064454 2.01778 2.033696 5.54837-.06563 7.53304-1.116239 1.05527-2.965637 1.36235-4.267368.70857zm.215072-1.39387c0-.1742-.169369-.34934-.376376-.3892-.264076-.0509-.376376.0653-.376376.3892 0 .32393.1123.44005.376376.3892.207007-.0399.376376-.21501.376376-.3892zm4.14077-4.98058c.549255-1.15149-.456779-2.23074-1.438458-1.54315-.484318.33923-.57861 1.13886-.214519 1.81917.332529.62134 1.302173.45942 1.652977-.27602zm15.605355 4.34709c-1.04507-.47447-2.10935-1.82143-2.45581-3.10809-.74559-2.76891 1.08418-5.95999 3.61187-6.29902 2.53791-.34041 4.82815 2.41844 4.51836 5.44287-.19774 1.93049-1.19913 3.38915-2.78025 4.04978-1.04379.43613-1.79399.41395-2.89417-.0855zm.0758-1.20908c.17926-.46713-.27581-.90643-.60154-.5807-.2753.2753-.10475.91776.24363.91776.12571 0 .28678-.15168.35791-.33706zm3.89567-4.72932c.68403-.47911.64227-1.4833-.0814-1.95747-.66349-.43473-1.16229-.21997-1.46567.63107-.14659.41119-.10406.69429.16626 1.10685.41928.6399.71381.68673 1.38081.21955zm-38.772633 4.00975c-1.037357-.45606-2.258256-2.50102-2.258256-3.78249 0-.72694.618771-2.26357 1.148973-2.85332.241069-.26814.793114-.59383 1.226766-.72375.648629-.19434.928481-.16979 1.578.13843 1.06706.50635 1.562382 1.19482 1.879673 2.61262.348382 1.55674.01394 2.91363-.960606 3.89722-.741099.74798-1.846849 1.0488-2.61455.71129zm25.8624-15.306066c-.950104-.553385-1.311943-2.453655-.694547-3.647565.600956-1.162122 3.162154-2.07524 6.39287-2.279184 1.75757-.11095 3.10419.0039 5.7005.486163l.69898.129837v-.999143c0-1.75743.68557-2.83619 2.105-3.31228 2.04569-.686142 4.1129 2.083185 3.49079 4.67642-.13665.569635-.52157 1.36284-.85537 1.762678-.5418.648982-.72287.726975-1.68782.726975-.78363 0-1.26093-.133088-1.73544-.483912-.99383-.734769-2.69535-.68447-6.8015.20106-1.5788.340487-3.58006 1.300915-4.565126 2.190857-.884903.799459-1.386386.933644-2.048337.548094zm-6.659742-1.233759c-2.308181-1.979184-5.639155-2.915464-9.954564-2.798058-2.42397.06594-2.580863.04517-2.580863-.341756 0-.60661 2.332079-1.721849 4.355627-2.082933 3.629053-.647571 8.205178-.139861 9.917142 1.10028 1.458524 1.056548 1.664544 3.143714.414162 4.195841-.816836.687323-1.282897.671427-2.151504-.07337zm.92528-5.02236c-2.426371-1.657431-2.209591-5.890499.357667-6.984183.594188-.253131.805285-.253361 1.40801-.0015 1.999672.835516 2.877007 3.794876 1.763433 5.94829-.705892 1.365043-2.344382 1.846692-3.52911 1.037417zm51.540415 67.371935c.27139-.40403.86101-.89917 1.31027-1.10031.49953-.22364 1.125-.79464 1.61012-1.46988.43629-.6073.93523-1.10418 1.10875-1.10418s.66601-.30777 1.09444-.68394c.7995-.70196.83987-.92371.41393-2.2733-.22991-.72847.2836-.61321 1.43735.32261 3.68216 2.98662 5.38458 4.25676 5.88481 4.39054.70038.18731 1.35961-.0443 1.93091-.67854.53414-.59294.54921-2.09747.029-2.89148-.19831-.30266-1.76254-1.48035-3.47607-2.61708-1.71352-1.13672-3.16894-2.15325-3.23427-2.25895-.15078-.24397-.95367-.25299-.95367-.0107 0 .20735-1.6641 2.74425-2.15072 3.27873-.17743.1949-.69134.89942-1.14202 1.56563-.53527.79124-.96781 1.21127-1.24735 1.21127-.70541 0-1.60887-.57959-2.33751-1.49958-.37781-.47702-.92126-.92612-1.20767-.998-.6023-.15117-1.41803.31009-1.92987 1.09125-.33279.50791-.3107.56201.74976 1.83628.60096.72213 1.09265 1.35632 1.09265 1.40933 0 .27985-.51324-.003-1.57882-.87146-1.32136-1.07636-1.77525-1.17375-2.46699-.5293-1.04916.97744-.31573 2.22653 2.32523 3.96009 1.44319.94732 2.06037.92951 2.73779-.079zm-4.99604-4.93304c.41506-.16909.78687-.56912 1.04233-1.12147.40964-.8857 1.67158-1.9213 2.34121-1.9213.24388 0 .38022-.16332.38022-.45545 0-.64138 1.5391-2.12541 2.20428-2.12541.4382 0 .61469-.19343.9812-1.07536.33109-.7967.56146-1.07536.88897-1.07536.56185 0 .55505.12865-.081 1.53328-.2877.63531-.64361 1.74939-.79091 2.47573-.22507 1.10982-.21739 1.45312.0481 2.15072.17376.45656.43054.8301.57061.8301.51714 0 5.42685-7.39207 5.42685-8.17068 0-.86563-6.79338-4.53394-8.84685-4.77715-.80703-.0956-1.1674-.0244-1.77416.35065-.94925.58666-1.99377 1.88607-2.35512 2.92982-.22641.65397-.4508.86094-1.27086 1.17223-1.60275.60839-2.53851 1.29087-3.19992 2.33382-.93487 1.47414-.85833 2.45749.31453 4.0407 1.01459 1.36959 3.07363 3.38515 3.32134 3.25122.0847-.0458.44432-.20152.79919-.34609zm6.2233-3.95683c.21328-.75108-.25406-.8079-.88455-.10753-.75553.83925-.76674 1.00323-.14004 2.04961l.608 1.01516.12432-1.18289c.0684-.6506.1999-1.44905.29227-1.77435zm-8.89503-6.2092c1.27432-.66321 2.07424-1.62507 1.84605-2.21974-.17459-.45497-8.31221-8.07783-8.62331-8.07783-.43806 0-.4706.30586-.34497 3.2426l.11572 2.70492 2.6884 2.49993c1.47862 1.37495 2.76495 2.50471 2.85851 2.51057.0936.006.75039-.29135 1.4596-.66045zm-76.55541-9.00714h1.47862v-1.48791c0-1.9458-.1002-2.16831-.976435-2.16831-.586942 0-.857692.17372-1.508401.96782-.436183.5323-.926575.96783-1.089759.96783-.368263 0-.369836.0415.05649-1.49194l.353193-1.27036-3.179441-5.55493c-3.940394-6.8844-4.243662-7.37783-4.454463-7.24755-.09342.0577-.169857.38331-.169857.7235 0 .86257-.306928 1.57912-.953238 2.22543-.303746.30374-.552266.61292-.552266.68705 0 .0741 1.857606 3.2323 4.128014 7.01817 4.101605 6.83935 4.132048 6.88258 4.758467 6.75729.34675-.0694 1.295832-.12609 2.109073-.12609zm-17.464405-13.87871c4.252652-.52648 5.712172-1.33057 5.975241-3.2919.09841-.73375.05674-.89543-.230824-.89543-.377195 0-.469347-.43001-.163622-.76351.396823-.43287.443855-1.31158.09672-1.80717-.330325-.47161-.439349-.49129-1.983589-.35813-.89873.0775-2.359923.23163-3.247095.34251-.887171.11089-2.411494.20587-3.387383.21106-1.620881.009-1.774344.0462-1.774344.43463 0 .50993.732066 1.02434 1.983734 1.39391.505855.14936.906902.35766.891215.4629-.03603.24167-1.96419.94206-2.596644.94322-.487708.00086-2.185661-.91801-3.380978-1.82973-.413365-.31528-1.047277-1.26573-1.635819-2.45263-.878817-1.77229-1.498595-2.44674-1.498595-1.63078 0 .68098 1.44646 2.97791 2.514658 3.99318 1.93439 1.83855 1.691034 2.02916-.489132.38312-.962607-.72678-1.366321-1.23757-2.044999-2.58739-.616398-1.22596-.958121-1.68185-1.260666-1.68185-.228278 0-.475588.0979-.549578.21767-.217713.35227 1.177055 2.57906 2.520826 4.02458.684496.73632 1.244539 1.3896 1.244539 1.45173 0 .29766-.494051.0288-1.594998-.86804-.852445-.6944-1.462689-1.45183-2.088759-2.59256-.834184-1.51993-.922648-1.60784-1.555837-1.54609-.417929.0408-.696698.19934-.738476.4201-.03691.19506.509853 1.11449 1.215035 2.04319 1.286614 1.69442 5.140772 5.62568 5.945931 6.06487.626449.34172 4.762732.2987 7.833435-.0815z" fill="#e1aa52"/><path d="m93.62416 176.69494c-5.623612-.50533-11.359874-2.60854-15.851998-5.81217-2.556589-1.82328-7.046556-6.46216-8.733086-9.02273-4.010606-6.0891-6.675597-13.41882-7.784179-21.4094-.131287-.94631-.288192-2.04704-.348677-2.44606l-.109971-.72548-2.458629.0941c-2.273752.087-2.48963.0607-2.870893-.34987-.226744-.2442-2.209929-3.43856-4.407076-7.09859-2.197148-3.66003-4.089346-6.74913-4.204887-6.86467-.136713-.13671-.644319-.087-1.453614.14238-2.370164.67176-3.542388.79517-7.544985.79437-3.714715-.00064-4.078987-.0355-4.767705-.45538-2.695833-1.64342-7.749651-7.51166-7.749651-8.99852 0-.74598.72641-1.41144 1.872799-1.71565.497736-.13208.963164-.3343 1.034284-.44937.07112-.11508.378521-.20923.683112-.20923.304592 0 .9277-.11202 1.384686-.24894 1.089739-.32649 1.414666-.0336 2.538723 2.28874.822106 1.69847 1.45793 2.40848 2.787549 3.11281.487137.25804.50666.24515.356269-.23531-.380167-1.21455-.381029-1.71288-.0037-2.12985.336074-.37135.671008-.42166 2.807531-.42166 1.334263 0 3.115317-.14501 3.957898-.32226 2.684036-.5646 4.325472-.62222 4.996703-.1754.532529.35449 2.767494 3.70466 6.932014 10.39097 2.744248 4.40601 4.098687 6.33929 4.494661 6.41555.213355.0411.62222.0159.908586-.056.513663-.12892.5207-.16463.52289-2.65367.0054-6.1777 1.271744-15.38726 2.801417-20.37397 1.539946-5.02021 3.501435-9.376673 5.75689-12.786037 1.484844-2.244502 5.170483-6.106655 7.443916-7.800422 2.743299-2.043831 6.510668-3.690493 10.556946-4.614289 2.398719-.547646 12.089404-.536073 15.915327.01901 8.39087 1.217383 12.78637 3.57855 15.05761 8.088638 1.15499 2.293497 1.68531 4.548105 2.35114 9.99573 1.16253 9.51147 1.92334 12.91603 4.25346 19.03387.94134 2.47151 1.79407 5.15775 2.11648 6.66723.20917.97933 1.05419 5.99553 1.05933 6.28845.003.16405.72106.85329 6.0248 5.78203 3.11357 2.89342 4.22877 3.84484 4.50668 3.84484.081 0 .66609-.38713 1.30027-.86029 1.40284-1.04666 2.32155-1.1161 4.40265-.33277 1.77571.66837 5.24256 2.4631 6.77726 3.50848 1.59326 1.08525 1.78993 1.68143 1.02681 3.11255-.31874.59774-.53657 1.1563-.48408 1.24124.0525.0849 1.53973 1.13391 3.30495 2.33105 1.76523 1.19713 3.45879 2.47287 3.76347 2.83496.6818.81027 1.09931 2.13195.91077 2.88315-.21786.86801-1.58061 2.23852-2.49963 2.51387-1.16666.34953-1.77638.0713-4.26639-1.94712-1.17761-.95458-2.26131-1.73559-2.4082-1.73559-.27349 0-1.46935.99943-3.75285 3.13643-2.07225 1.9393-3.68765 3.26259-4.16948 3.41552-.73835.23434-3.24938-1.23608-4.71207-2.75933-1.02959-1.0722-1.3126-1.52183-1.44273-2.292-.13333-.78919-.41808-1.22403-1.61485-2.46604-1.56618-1.62538-2.57822-3.35661-2.57822-4.41036 0-.36218.29336-1.23964.65191-1.94993.39857-.78956.58662-1.4077.48391-1.59063-.33143-.59025-4.87429-4.63319-5.2061-4.63319-.0913 0-.2822.84684-.42425 1.88188-.50729 3.69622-1.81741 8.13575-3.6118 12.23908-1.98561 4.54059-4.64356 8.48504-8.02407 11.90789-4.36597 4.42065-8.48398 6.84698-13.66938 8.054-1.66103.38664-6.086382.55835-8.590568.33333zm9.09226-2.26105c2.51358-.67307 4.70812-1.60091 6.50046-2.74837 8.37909-5.36431 14.20566-14.8139 16.47442-26.71836.50713-2.66098.57603-3.56105.59272-7.74259.0143-3.57248-.0724-5.26815-.35361-6.9219-.57652-3.39004-1.54528-6.97118-2.71944-10.05275-2.3655-6.20827-3.27193-10.16341-4.31652-18.83484-.84783-7.038025-1.48474-9.282736-3.36738-11.867881-2.78522-3.824539-9.35337-5.613959-20.720014-5.644945-5.981382-.0163-6.404386.0296-10.097391 1.095796-4.991024 1.440944-10.184729 5.284363-13.611088 10.07241-.677188.946316-1.468167 2.010922-1.757727 2.365791-.732012.897117-2.934595 5.391289-3.85861 7.873149-1.563023 4.1982-2.757333 9.2909-3.505985 14.94997-.459644 3.47446-.528794 12.67352-.120251 15.99737 1.962344 15.96542 7.652813 27.16841 16.902721 33.27688 2.748736 1.81521 4.996414 3.01015 5.227473 2.77909.06614-.0661-.272533-.5665-.752619-1.11191-1.604684-1.82302-1.38476-3.06626.627812-3.54907 1.334718-.3202 4.243256-.16542 5.478045.29151 1.483577.54899 5.764083 1.82612 6.54298 1.95215 3.83213.62009 5.176884.76014 7.355624.76605 2.7303.007 4.34296-.24716 5.60246-.88434.60412-.30562.80652-.33691.80652-.12469 0 .41598-1.48074 1.7654-2.47333 2.25399-1.7151.84424-5.40173 1.71309-10.323451 2.43299-2.241581.32788-2.513569.42515-1.828111.65378 1.022942.34118 5.564222.0111 7.694292-.55928zm-3.754458-8.09411c-1.691784-.47641-3.047318-3.17231-3.234396-6.43258-.229555-4.00054 1.139557-6.66292 3.424017-6.65836 3.266457.007 5.238227 7.12853 3.137907 11.33402-.75455 1.51084-1.95346 2.14386-3.327528 1.75692zm-23.491771-4.68264c-.284939-.0768-.812884-.50383-1.173214-.94903-.888731-1.09806-1.056038-3.06946-.37396-4.40644.511877-1.00336.990729-1.33367 1.933447-1.33367 1.046955 0 1.667064.41286 2.262045 1.50604 1.456055 2.67525-.166926 5.85163-2.648318 5.1831zm38.986899-9.25261c-1.08457-.66134-1.89098-2.55588-1.98072-4.6534-.12071-2.82153.65883-3.99258 2.43585-3.65922 1.94859.36556 3.36806 4.95835 2.27588 7.36382-.63035 1.38834-1.50936 1.69372-2.73101.9488zm-19.650034-3.58578c-2.189541-.39753-4.564619-1.32876-5.806944-2.27681-3.461809-2.64178-5.383606-6.31812-5.372076-10.27662.0034-1.16295.128396-1.89427.441971-2.58558 1.207713-2.66253 2.967978-3.10535 8.64477-2.17474 3.474529.56959 6.091998.57236 8.975003.009 4.81499-.94007 6.59551-.46628 7.63973 2.03288.46847 1.1212.46368 4.24461-.009 5.88133-1.23426 4.2736-4.64252 7.69877-8.92156 8.96582-1.183549.35045-4.579288.60808-5.591873.42423zm-23.310602-12.79607c-2.209572-1.73805-2.523018-7.38736-.461983-8.32644.763075-.34767.914591-.32972 1.652632.19581 1.573362 1.12033 2.575253 4.12018 2.115577 6.33443-.314641 1.51561-.965187 2.24533-2.001722 2.24533-.418199 0-.978973-.19307-1.304504-.44913zm42.774046-2.84204c-1.44811-1.44811-1.83658-4.62177-.81955-6.69545.73814-1.50505 1.44647-1.8658 2.48062-1.26337 1.12147.65328 1.7392 2.00465 1.84505 4.03627.10506 2.01655-.17634 3.26738-.91418 4.06352-.75722.81705-1.68435.76663-2.59194-.14097zm-27.634644-14.6757c-3.403539-1.52867-3.730158-6.7343-.551838-8.79516 1.012221-.65634 2.317252-.72815 3.446477-.18967.912656.43522.963692.66086.170191.75241-.841687.0971-1.318697 1.11055-.886703 1.88386.322354.57705 1.144937.80724 1.668081.46679.16448-.10704.367269-.56763.450644-1.02354l.151589-.82892.458689.96783c1.00764 2.1261.309024 5.19449-1.447321 6.35678-1.027099.67971-2.476429.8513-3.459809.40962zm-.04393-1.46855c-.07866-.54864-.766781-.73464-.950139-.25682-.170087.44325.287594.9904.697025.83329.176191-.0676.289177-.32494.253114-.57647zm20.286454-.47211c-1.91174-.56808-3.02886-2.26861-3.02886-4.61067 0-1.69479.47558-2.85204 1.56524-3.80876 1.21449-1.06635 3.12223-1.21533 4.41631-.34489l.5687.38252-.74816.11122c-.56162.0835-.79722.25116-.94495.67247-.44845 1.27898.47811 2.2897 1.56555 1.70773.33025-.17675.45208-.45377.45733-1.03988l.007-.79895.4057.48638c.91279 1.09434.97529 3.5655.13104 5.18121-.8619 1.64947-2.77 2.54451-4.39505 2.06162zm-.45744-1.49213c0-.3943-.1147-.53768-.43014-.53768s-.43015.14338-.43015.53768.11471.53768.43015.53768.43014-.14338.43014-.53768zm-35.371956-1.21552c-.704666-.55428-1.405347-2.09287-1.405347-3.08592 0-1.72469 1.25416-3.33361 2.598566-3.33361.689297 0 1.803871.76167 2.116629 1.44645.410226.89819.53298 2.69412.243999 3.56975-.549176 1.66402-2.328976 2.36682-3.553847 1.40333zm26.189624-15.111326c-.525294-.451838-.603441-.672412-.603441-1.703247 0-1.595471.515332-2.126591 2.78298-2.868239 1.512203-.494573 2.104233-.568687 4.637003-.580481 2.182-.01015 3.21259.08018 4.14749.363572.68421.207401 1.3375.319322 1.45174.248716.11424-.07061.20808-.679163.20852-1.352347.001-1.602806.53432-2.507251 1.68084-2.850757.67353-.201791.96437-.19338 1.454.04205 1.86524.896882 2.35235 4.23743.85369 5.854515-.65487.706619-1.83958.763837-2.86541.13839-.80402-.490213-3.20619-.591142-4.95375-.208136-.55511.121662-1.49321.327961-2.08466.458443-1.57859.34826-3.6964 1.360169-4.650301 2.221963-.988725.893251-1.258233.924088-2.058701.235555zm-5.98024-.591629c-.236579-.130525-.672442-.461574-.968583-.735664-1.605923-1.486341-5.551954-2.518527-9.297817-2.432085-1.602415.03698-2.422965-.02336-2.475866-.182059-.118436-.355307 2.437723-1.49033 4.031851-1.790283 3.093486-.582075 7.718566-.155533 9.399794.866882.906746.551426 1.396819 1.336741 1.396819 2.238327 0 1.11948-.228294 1.613614-.907864 1.965033-.724975.374899-.635086.369572-1.178334.06985zm.505163-5.453352c-.766217-.416211-1.472987-1.936329-1.472987-3.1681 0-3.215614 2.622078-4.452413 4.338251-2.046296.411362.576742.500869.974833.500869 2.227711 0 1.730061-.332469 2.551257-1.218379 3.009378-.73852.381905-1.416094.374745-2.147754-.02269zm51.324169 68.020857c.3151-.38444.92515-.89255 1.35566-1.12913s1.14089-.90482 1.57863-1.48497c.43773-.58016 1.07026-1.17326 1.40563-1.31801.33536-.14475.88935-.56045 1.23109-.92379.52071-.55362.60127-.78427.49743-1.42416-.0682-.41995-.0743-.76355-.0135-.76355.16598 0 2.63016 1.89935 3.75162 2.89169 2.60205 2.30246 3.79565 2.64238 5.01083 1.42702.5641-.56418.66753-.82626.64995-1.64679-.0286-1.33414-.48341-1.87525-3.00425-3.57422-1.17511-.79199-2.69339-1.8324-3.37396-2.31203-1.41349-.99614-1.81465-1.07101-2.07941-.38812-.10319.26615-.6573 1.11757-1.23134 1.89205-.57405.77447-1.37748 1.88747-1.7854 2.47333-.40793.58585-.82551 1.12315-.92796 1.194-.28556.19748-1.19019-.0322-1.47404-.37416-.29916-.36047-.36727-2.89487-.10467-3.89479.16246-.61861.13358-.69899-.25118-.69899-.39757 0-1.77999 1.31353-1.76212 1.6743.004.0846.14594.39577.31499.69149.4453.77898.39202.91569-.20454.52481-.6136-.40205-1.27287-.26692-2.0197.41397-.91274.83216-.97529 1.16114-.35985 1.89256.6817.81014.55699 1.03794-.22953.41926-.7588-.59688-1.40316-.57457-2.10163.0728-1.21413 1.12522-.51378 2.40894 2.31396 4.24144 1.5606 1.01134 2.06777 1.0337 2.81335.12404zm-4.82754-5.11233c.46845-.23899.85172-.57745.85172-.75213 0-.52433 1.50831-2.02787 2.21905-2.21204.49874-.12923.70568-.33757.8364-.84201.2136-.82431 1.30623-1.78132 2.03375-1.78132.44366 0 .62051-.19134.99401-1.07536.24987-.59145.58029-1.07536.73424-1.07536.36339 0 .38347-.0901-.38869 1.74476-.44779 1.06409-.67732 1.97954-.69498 2.77175-.0288 1.29242.39063 2.58086.84015 2.58086.26337 0 3.05165-3.83083 4.89494-6.72517 1.19982-1.88398 1.13773-2.06607-1.19918-3.51682-2.81411-1.74699-6.29304-3.30373-7.38772-3.30584-1.42318-.003-3.37229 1.66875-3.98055 3.41361-.1949.55911-.50673.80955-1.65787 1.3315-1.67579.75984-2.05357 1.06793-2.86796 2.3389-1.09681 1.71172-.85185 2.74284 1.27262 5.35704.63992.78743 2.27903 2.18214 2.56452 2.18214.0461 0 .46711-.19553.93555-.43451zm-3.06907-9.96506c.44124-.27844 1.00629-.57095 1.25567-.65003.24979-.0792.63404-.54432.85562-1.03569l.4022-.89193-3.00634-2.8908c-3.72173-3.5787-5.83327-5.4241-6.20635-5.4241-.22289 0-.2905.67375-.30831 3.07245l-.0228 3.07245 1.01282.97179c3.28004 3.14719 4.57204 4.28212 4.87477 4.28212.18727 0 .70151-.22782 1.14274-.50626zm-74.849318-9.2892c.334994-.1051.371915-2.94454.0462-3.55314-.152841-.28558-.451008-.416-.951066-.416-.588746 0-.875727.17209-1.496614.89745-.422503.4936-.828081.83756-.901283.76436-.0732-.0732-.01605-.62102.127021-1.21738l.260117-1.08429-3.852612-6.71052c-3.570012-6.21827-4.653906-7.82267-4.280958-6.33672.21725.86559-.261627 2.39009-.961366 3.06048-.343706.32929-.624919.69179-.624919.80555 0 .16601 5.860541 10.0574 7.874041 13.28977l.486067.78031 2.003266-.0978c1.101794-.0538 2.124242-.13572 2.272104-.18211zm-18.920903-13.75757c2.862782-.35442 4.671733-.91519 5.375386-1.66635.878369-.93769 1.180036-2.46323.584779-2.95725-.243638-.2022-.265328-.34215-.08643-.55771.131358-.15828.248832-.64059.261057-1.0718.04195-1.47989-.594317-1.58727-5.656314-.95458-.887171.11089-2.459885.20586-3.494919.21106-1.846359.009-1.88188.0193-1.88188.53151 0 .6441.830675 1.33111 1.985435 1.64206.962924.25929.930285.37703-.215106.77597-1.114084.38803-1.424611.36008-2.583999-.23259-1.741769-.89037-2.664325-1.86269-3.663679-3.86129-.918408-1.83672-1.209552-2.10631-1.721659-1.5942-.144662.14466-.586762.23513-.982443.20104-.496122-.0427-.759518.0425-.848603.27466-.08612.22441-.403875.33663-.953204.33663-.848618 0-1.340196.29655-1.340196.80847 0 .55934 2.544524 3.616 5.011416 6.02007l2.482788 2.41956h2.550175c1.402596 0 3.732423-.14637 5.177393-.32526zm-11.442651-5.60458c-.308511-.30851-.456922-.73739-.255169-.73739.04554 0 .241336.24195.435102.53768.400011.61049.319837.69948-.179933.19971zm1.465967-.85164c-.196185-.29941-.317577-.58351-.26976-.63133.04782-.0478.24999.19716.449274.54439.443838.77334.312053.83717-.179514.0869z" fill="#cd9830"/><path d="m93.194016 176.481c-4.845619-.43824-10.151563-2.16902-13.747224-4.48429-3.722999-2.39726-8.020075-6.62225-10.399582-10.22512-4.36486-6.60895-6.615351-13.21517-7.898337-23.18524-.189128-1.46971-.380822-1.55636-3.099121-1.40082-2.73188.1563-2.365123.39985-4.31352-2.86444-.741353-1.24204-2.245235-3.75838-3.341958-5.59187-1.096725-1.83349-2.319549-3.89393-2.717389-4.57877-.819315-1.41036-.569126-1.36495-3.841887-.6974-1.14021.23257-2.915539.32908-6.05647.32926l-4.443431.00026-1.14844-.90644c-1.726719-1.36285-3.928433-3.69469-5.357149-5.67376-1.042544-1.44415-1.275627-1.92183-1.275627-2.61427 0-.95701.495088-1.55913 1.281981-1.55913.272447 0 .797129-.18464 1.16596-.41031.368831-.22566 1.304407-.47681 2.079056-.5581 1.660838-.17428 1.596915-.22529 2.777984 2.21701.636102 1.31538 1.064289 1.89277 1.846686 2.49017 1.168206.89199 1.755353 1.03613 1.382462.33938-.129032-.2411-.205024-.84599-.168871-1.3442l.06573-.90584 2.903472-.13731c1.596909-.0755 3.677731-.28991 4.624047-.47641 1.997851-.39374 3.830303-.44873 4.420889-.13266.227578.1218.574446.53313.77082.91406.196373.38093 1.468195 2.43469 2.826269 4.5639 1.358076 2.12922 3.14851 4.93591 3.978739 6.23709 2.155968 3.37896 2.373891 3.76376 2.131544 3.76376-.23317 0-3.287162-4.43512-6.33662-9.20228-1.03763-1.62211-1.995423-2.98627-2.12843-3.03147-.170533-.058-.198576.24388-.09512 1.02379.190184 1.43367-.131413 2.58128-.940615 3.35655-.356755.34179-.648646.70904-.648646.81612 0 .19692 7.655657 13.01724 8.24787 13.81206.290005.38922.521649.42299 2.434705.35496 1.162815-.0414 2.248059-.18487 2.411658-.31892.230254-.18868.270752-.68185.17926-2.18307-.065-1.06664-.225804-2.21903-.357331-2.56087-.192341-.49989-.17481-.69261.08958-.98475.255918-.28279.329213-.93107.33094-2.92717.0054-6.21854 1.267079-15.41297 2.801417-20.4149 2.29362-7.477182 4.95211-12.310896 9.174616-16.681455 4.184365-4.331081 8.094219-6.539909 13.93792-7.874071 2.426779-.554051 12.943371-.541938 16.775617.01931 7.79445 1.141559 11.61124 3.030736 14.1221 6.989945 1.23803 1.952176 1.95992 4.80483 2.6442 10.448891 1.14537 9.44737 1.83874 12.56663 4.20703 18.92633 1.64895 4.42801 2.30605 6.9005 2.91507 10.96867.19479 1.30118.41619 2.47665.49199 2.61214.31153.55686 10.21638 9.53943 10.51889 9.53943.18052 0 .74161-.33874 1.24686-.75276.82543-.67638 1.05084-.75275 2.22173-.75275 1.99072 0 4.91621 1.21916 8.54892 3.56265 1.77824 1.14716 1.79701 1.1686 1.79701 2.05277 0 .53218-.18256 1.18889-.45144 1.62395-.34429.55707-.3938.79988-.20862 1.02302.13356.16092 1.57068 1.18742 3.19361 2.28111 1.62293 1.09368 3.18102 2.19327 3.46242 2.44351.70068.62311 1.10141 1.64991 1.10141 2.8222 0 .84188-.11785 1.1094-.82059 1.86278-.70259.75321-.97643.89469-1.90429.98384-1.32826.12763-1.52825.0254-4.22333-2.15923l-2.11715-1.71615-1.00542.97473c-.55299.5361-1.22425 1.04026-1.4917 1.12036s-.62544.41475-.79553.74368c-.31373.60668-1.70868 1.95233-2.02386 1.95233-.0947 0-.61392.43552-1.15385.96782-1.25996 1.24217-1.9196 1.2713-3.78597.1672-1.92723-1.1401-3.42479-2.78258-3.61359-3.96327-.12268-.7672-.42067-1.21554-1.70174-2.56039-.85416-.89668-1.75755-2.03125-2.00754-2.52125-.63894-1.25243-.60691-2.81056.0832-4.04661.29572-.5297.53768-1.09151.53768-1.24849 0-.40289-4.85943-4.75352-5.30944-4.75352-.30731 0-.43203.40629-.72623 2.36579-1.3785 9.18134-5.55081 17.72138-11.63064 23.80601-4.03022 4.03341-7.81888 6.27824-12.65884 7.50052-1.89134.47764-6.821755.69045-9.785778.42238zm9.111114-1.73071c4.90484-1.17508 8.86145-3.60372 13.09725-8.03935 5.31948-5.57041 9.0625-13.47675 10.59942-22.389.58468-3.39043.70747-10.19391.24066-13.33446-.43983-2.95908-1.65087-7.58914-2.74618-10.49921-2.50031-6.64294-3.24499-9.77667-4.27686-17.99783-.88371-7.040714-1.31107-9.088786-2.31119-11.076204-2.1315-4.235674-5.69814-6.11222-13.92844-7.328291-2.9723-.439173-11.313594-.646973-13.441998-.334869-6.409.939798-11.691205 3.568018-15.714429 7.818887-7.924241 8.372614-12.331362 21.607567-12.348213 37.082707-.0154 14.14359 3.757 26.54028 10.670174 35.06382 3.362736 4.14606 7.575857 7.23236 12.60191 9.23146 3.197041 1.27162 4.031333 1.47206 9.30707 2.23606 1.949984.28239 6.192656.0594 8.250826-.43372zm-8.923427-26.44495c-2.293349-.60126-3.990426-1.55911-5.788456-3.26706-2.477397-2.35328-3.747111-5.25936-3.752309-8.58814-.004-2.56758.634892-3.93476 2.220046-4.75066 1.16381-.59903 3.156362-.59376 6.868865.0182 3.257167.53686 5.656006.57358 8.006761.12256 5.30434-1.0177 6.77396-.80403 7.91912 1.15137.83889 1.43243.8514 4.80027.027 7.25829-2.02975 6.0516-9.110038 9.73105-15.500987 8.0555zm-6.863816-29.87369c-2.340731-1.06325-3.338175-4.36561-2.065859-6.83971 1.131352-2.19997 3.42763-3.06712 5.1933-1.96116l.752752.47151-.64316.12089c-.898594.16892-1.377202 1.15224-.940937 1.9332.322354.57705 1.144937.80724 1.668081.46679.16448-.10704.367269-.56763.450644-1.02354l.151589-.82892.458689.96783c.917652 1.93623.479567 4.51757-1.004386 5.91818-1.232275 1.16307-2.590093 1.42477-4.020713.77493zm.0089-1.33424c0-.37518-.118829-.51975-.427197-.51975-.504675 0-.718158.72315-.292948.99232.444928.28165.720145.10105.720145-.47257zm19.775963-.71474c-1.55892-.67902-2.54401-2.56104-2.42628-4.63545.14267-2.51393 1.54835-4.27755 3.56374-4.4712 1.63531-.15714 3.6338.87732 2.04947 1.06085-.72971.0845-1.10472.95441-.79427 1.8424.38949 1.11404 1.97617.78319 2.07358-.43237.0623-.77755.4253-.63813.74778.28722.39493 1.13325.33266 3.18542-.12677 4.17774-.96421 2.08261-3.1492 3.01497-5.08725 2.17081zm.17613-1.04168c.15191-.43549-.075-.80652-.49316-.80652-.21407 0-.43141.12098-.48299.26884-.15191.43549.075.80652.49316.80652.21407 0 .43141-.12098.48299-.26884zm-9.20282-16.728848c-.381034-.616527-.511905-1.639713-.307038-2.400528.168872-.627141.409752-.914858 1.031498-1.232048 2.51737-1.284266 7.00121-1.578476 10.50938-.689579 2.18634.553972 3.21037 1.2017 1.53937.973689-1.01414-.13838-5.06494.386693-6.63942.860613-1.49998.451496-3.03286 1.216993-4.000891 1.99799-.868267.700507-1.861701.928668-2.132899.489863zm-6.468003-1.090645c-.57293-.633081-1.949696-1.407162-3.374811-1.897474-1.819603-.626036-5.387785-1.163927-6.844712-1.031817-1.942494.17614-1.571333-.274223.884066-1.072716.94174-.306254 1.884439-.382833 4.624047-.37563 3.0938.0081 3.570051.06006 4.718127.514446 1.741007.689054 2.271712 1.25671 2.271712 2.429883 0 .511359-.150662 1.144845-.334802 1.407743-.431245.615688-1.398065.628403-1.943627.02557zm51.955493 63.793483c.34061-.17613.68387-.52371.7628-.77238.0789-.24868.4629-.58559.85328-.74871.65413-.27331 2.25977-1.88883 2.25977-2.27367 0-.0915.42025-.35219.93388-.57939 1.06417-.47074 1.86206-1.4502 1.86206-2.28581v-.5692l.80652.59051c.44358.32479 1.3625 1.06178 2.04203 1.63776 3.2128 2.72322 4.37212 3.09014 5.6683 1.79396.60791-.60791.73111-.88903.73044-1.6668-.00043-.52711-.1728-1.2176-.39475-1.58155-.23262-.38145-1.81565-1.60308-3.86569-2.98318-1.90945-1.28546-3.59006-2.47977-3.73468-2.65403-.21272-.2563-.14923-.51912.33227-1.37571.32738-.58238.56452-1.2734.52698-1.5356-.0899-.62792-3.19159-2.60206-6.14833-3.91322-2.68836-1.19215-3.99245-1.30136-5.25941-.44044-.86397.58708-1.91747 1.9938-2.24653 2.99976-.14392.43994-.40177.68587-.83842.79965-1.29396.3372-2.96332 1.54746-3.63387 2.63451-1.00887 1.6355-.92342 2.65859.37392 4.47664.56477.79145 1.55679 1.89652 2.20449 2.4557 1.10967.95803 1.17762 1.07394 1.17762 2.00884 0 .84175.10597 1.09135.69899 1.64649.92537.86625 2.01098 1.64738 3.06159 2.20291 1.0211.53993 1.03745.54112 1.82673.13296zm-7.57245-15.45612c.44123-.27844 1.02163-.57582 1.28976-.66085.43806-.13891 1.3406-1.50902 1.3406-2.0351 0-.45706-9.5601-9.12071-9.70571-8.79561-.0151.0337-.0591 1.53046-.0977 3.32606l-.0702 3.26473 2.88864 2.70352c1.58875 1.48693 3.03798 2.70351 3.22052 2.70351.18253 0 .69289-.22781 1.13412-.50626zm-93.721893-22.81734c3.129899-.35696 4.937293-.902 5.846654-1.76312.931868-.88243 1.040554-1.33207.88701-3.66958-.117257-1.78507-.208968-2.16107-.629743-2.58185-.601595-.60159-1.635803-.6411-3.953202-.15102-.887172.18762-2.871211.4053-4.408975.48374-2.608535.13305-2.800199.17242-2.85953.58736-.08141.56933.923239 1.58755 1.72449 1.7478.940815.18816.898557.42607-.13844.77941-.915708.31201-.989944.30376-1.989579-.22117-1.86676-.98028-2.666404-1.80427-3.727028-3.84051-.879693-1.68889-1.063778-1.91343-1.521841-1.85632-1.645224.20512-2.142926.33169-2.367303.60205-.137304.16544-.569619.3008-.9607.3008-.774426 0-1.386995.46183-1.386995 1.04569 0 .96035 5.115635 6.88662 7.023976 8.13702 1.107322.72554 4.287074.87575 8.461206.3997zm16.862715 7.56958-.40971-.48391.483912.40971c.454757.38503.581822.55811.40971.55811-.04081 0-.258572-.21776-.483912-.48391z" fill="#a7561f"/><path d="m93.194016 176.26608c-11.348471-1.02728-20.712255-7.72438-26.428577-18.90204-2.856961-5.58649-4.392342-10.92251-5.399776-18.76623-.07012-.54591-.260682-1.17472-.423483-1.39736-.21322-.2916-.231753-.48222-.06627-.68162.154077-.18565.178043-1.07115.07278-2.689-.08632-1.32672-.141907-2.50899-.12352-2.62728.01839-.11829.104437-1.76359.19122-3.65622l.157792-3.44115.04508 4.30143c.117829 11.24445 2.014284 20.06003 6.04086 28.08066 2.968832 5.91368 6.763417 10.39733 11.416545 13.48969 3.093283 2.05572 7.3932 4.11689 9.89331 4.74237 1.537881.38475 6.398734.89573 8.504017.89396 7.284706-.006 14.030026-3.41139 19.539236-9.86401 4.49186-5.26104 7.846-12.29373 9.24499-19.38416.7551-3.82697.86604-5.01467.87396-9.35563.0121-6.65129-.65556-10.11087-3.42438-17.74343-2.15419-5.93828-2.95284-9.43544-3.88019-16.99069-.85609-6.974831-1.20469-8.633264-2.28971-10.893337-.47187-.982894-1.1741-1.940542-2.10967-2.877011-2.10901-2.111034-4.46736-3.227475-8.55486-4.049874-4.11349-.827627-6.07025-.989636-11.988913-.992613-5.652305-.0028-5.868652.01297-8.124157.593924-8.152161 2.099747-14.660164 7.706693-19.024867 16.390801-3.304195 6.5741-4.798417 12.27719-5.944851 22.69009-.04558.41401-.04023-.21507.01191-1.39797.320392-7.27018 2.391815-15.71175 5.356668-21.829801 4.455464-9.193955 10.479827-14.442713 19.181177-16.711703 2.283043-.595334 2.373027-.601427 8.651661-.58583 6.685582.0166 9.381782.262192 13.331132 1.214281 3.80461.917192 7.17639 2.805218 8.68849 4.865107 1.88812 2.572142 2.69721 5.273108 3.45708 11.540756 1.06245 8.76333 1.76514 12.09883 3.67008 17.42083 2.2521 6.2919 2.87704 8.56514 3.45887 12.58171l.35828 2.47332 1.53031 1.44862c1.6875 1.59741 1.75767 1.95537.11346.57876-.57552-.48185-1.12957-.82469-1.23123-.76186-.10166.0628-.19452 1.66486-.20634 3.56007l-.0215 3.44585 2.90617 2.74658c1.5984 1.51062 3.09887 2.85028 3.3344 2.97702.38715.20833.39538.25768.0859.51456-.1883.15627-.36742.24614-.39805.19971-.0306-.0464-.19577-.36167-.36696-.70054-.1712-.33887-.5927-.82278-.93668-1.07536s-1.07174-.91449-1.61726-1.47091c-1.11153-1.13376-2.46618-2.10687-2.93295-2.10687-.3482 0-.42155.26126-.75477 2.6884-.52048 3.7911-2.0331 8.64743-3.9554 12.69898-4.62269 9.74307-12.1833 16.55903-20.51407 18.49362-1.65727.38485-6.765732.55958-9.39689.3214zm47.167694-14.90225c-1.40322-.79871-2.32519-1.47829-2.32519-1.71387 0-.0894.4501.18097 1.00023.60089 1.24995.95411 2.49943 1.59946 3.09676 1.59946.25996 0 .86449-.41837 1.39851-.96783.51734-.5323 1.03356-.96782 1.14717-.96782.22601 0-.7294 1.0064-1.62186 1.70841-.76662.60302-1.26496.55509-2.69562-.25924zm5.33783-2.12219c.37025-.39872.78936-.9509.93137-1.22707.142-.27617.56494-.63117.93986-.7889.73421-.30889 1.65544-1.20088 2.06836-2.00271.21352-.41464.31089-.45253.58286-.22682.28691.23811.27375.29051-.10847.4319-.23925.0885-.54426.36508-.6778.61461-.13355.24954-.75895.78387-1.38978 1.1874-.63082.40354-1.34504 1.05168-1.58714 1.44032-.2421.38863-.66344.83927-.93631 1.00141-.39358.23387-.35698.14495.17705-.43014zm9.06391-.34726c-.32251-.19999-.63436-.48868-.69302-.64152-.0587-.15284.18018-.0658.53073.19333.35056.25918 1.04954.53832 1.5533.62032l.91593.14909-.86029.0212c-.47315.0117-1.12415-.14243-1.44665-.34242zm2.41448.0755c0-.0465.1502-.14216.33378-.21261.19139-.0734.27772-.0374.20237.0845-.1263.20436-.53615.30227-.53615.12808zm-20.63131-1.77072c-.19126-.75957-.5578-1.30223-1.54935-2.29378-.71435-.71435-1.45995-1.54835-1.65688-1.85333-.19693-.30499.49961.3302 1.54788 1.41152 1.69263 1.746 1.9133 2.06477 1.97174 2.84829.0362.48525.0369.88226.002.88226-.0354 0-.17707-.44773-.31486-.99496zm22.06151.56482c.0944-.17744.23385-.75813.30983-1.29043l.13814-.96783.0287.87295c.0169.51265-.111 1.04526-.30982 1.29043-.18621.22962-.26131.27231-.16689.0949zm-7.0784-1.43232c-.81197-.57773-1.12335-1.12078-.42759-.74572.37987.20478 1.49928 1.31775 1.32537 1.31775-.0516 0-.4556-.25741-.89778-.57203zm-.65804-7.32806c-.098-.15591.059-.59709.38142-1.07152.73825-1.08644.72258-2.0393-.0434-2.64029-.3253-.25522-.44627-.39374-.26884-.30783 1.1414.55265 1.39284 1.61068.66603 2.8026-.22425.36775-.44392.85166-.48816 1.07536-.0569.2878-.12913.32923-.24702.14168zm-57.570138-.99271c-2.486363-.65887-3.91896-1.47818-5.699407-3.25952-2.333082-2.33424-3.548688-5.22508-3.548688-8.43915 0-3.35787 1.399435-4.79127 4.669247-4.78256.921456.002 2.836765.19599 4.25624.43009 3.267902.53894 5.650696.53862 8.620206-.001 3.12465-.56797 5.1359-.56812 6.06696-.00043 1.07217.65369 1.58149 2.04859 1.58149 4.33128 0 5.77233-4.10033 10.70969-9.884326 11.90209-2.154114.44408-3.900642.39203-6.061722-.18064zm42.741968-2.31763c.14589-.14699.31943-.21307.38565-.14685.0662.0662-.0531.18648-.26525.26725-.30652.11671-.33123.092-.1204-.1204zm1.24362-.70102c.45007-.6869.57877-.72038.34553-.0899-.0962.26006-.29626.51329-.44458.56273-.17312.0577-.13766-.11157.0991-.47284zm10.80824-1.50892c-2.13348-1.16682-2.44594-1.48338-.48816-.49456 1.32096.66718 2.56821 1.44894 2.25826 1.41546-.0591-.006-.85569-.42079-1.7701-.9209zm-10.10772-.10879c.0697-.47484-.0178-.6861-.35968-.8691-.24846-.13297-.45175-.34628-.45175-.47401 0-.13896.20069-.10074.49969.0952.27482.18007.70122.36057.94753.40111.43271.0712.42798.0974-.14001.77393l-.58786.70023zm6.82363-1.51411c-.47316-.2239-.76351-.40775-.64522-.40855.29334-.002 1.99051.79239 1.72058.80534-.11829.006-.6022-.17289-1.07536-.39679zm-4.62405-.40621c0-.33143.59916-.46803 1.89947-.43305l1.21908.0328-1.29044.12936c-.70973.0712-1.41141.20727-1.55927.30251-.14806.0954-.26884.0812-.26884-.0316zm-5.1733-1.46065c-.42737-.4496-.55906-.68094-.31103-.54641.53858.29215 1.51139 1.32614 1.24766 1.32614-.1075 0-.52899-.35087-.93663-.77973zm-1.81654-1.58606c-.0731-.11829-.0361-.21507.0822-.21507.11829 0 .27489.0968.348.21507.0731.11829.0361.21507-.0822.21507-.11829 0-.27489-.0968-.348-.21507zm-1.40954-1.42949-.74118-.78428.68853.49439c.37869.27191.73859.62483.79977.78427.16578.43202.0659.36594-.74712-.49438zm-98.611586-13.74499c-.410802-.32912-.410599-.3313.01266-.13659.236579.10883.575317.2517.752752.31749.278678.10333.276954.12193-.01266.1366-.184398.009-.523136-.13354-.752752-.3175zm7.665639.25681c.04929-.0427.670308-.13166 1.380045-.19766.801649-.0746 1.086772-.0533.752752.0562-.531109.17408-2.30629.2918-2.132797.14144zm3.638301-.56755c.735368-.23551 1.300803-.23551.752752 0-.236579.10166-.623709.18199-.860288.17852-.34579-.005-.3247-.0401.107536-.17852zm-12.501608-.59145c-.267522-.34112-.259914-.34872.0812-.0812.207007.16235.376376.33172.376376.37637 0 .17702-.176614.0631-.457578-.29517zm14.563161.19103c-.07072-.11443.210829-.41783.625666-.67421.414839-.25639.899354-.67332 1.076702-.92651.177346-.2532.322447-.37797.322447-.27727 0 .19414-1.479005 1.91044-1.741503 2.02092-.0851.0358-.21259-.0285-.283312-.14293zm-16.588687-1.84806c-.315439-.31544-.511937-.63512-.436661-.71039.07528-.0753.39495.12122.710389.43666s.511937.63512.436661.71039c-.07527.0753-.39495-.12122-.710389-.43666zm57.218921-2.19983c-.653023-.16693-.877625-.4595-.580695-.75643.390242-.39024.309775-.98955-.167128-1.24478-.337437-.18059-.514409-.13838-.857292.20451l-.432079.43208-.301632-.48092c-1.161752-1.85227-.843259-4.89825.649132-6.20816 1.080171-.94809 2.801435-1.33095 3.735718-.83093.386197.20668.380628.24067-.121674.74297-.955881.95589-.517332 2.69666.67936 2.69666.579123 0 1.373538-.59394 1.382743-1.03379.01933-.92425.623027.80851.629972 1.80822.01768 2.5432-1.325945 4.36791-3.440962 4.67301-.409925.0591-.938884.058-1.175463-.002zm-50.488146-.21064c.147862-.0597.26884-.24559.26884-.41316 0-.36414.1083-.37697.665379-.0788.582546.31177.3096.63789-.516768.61745-.37746-.009-.565313-.0658-.417451-.12546zm11.764949-1.55253c-.05351-.0535-.100372-.39571-.104134-.76044-.01075-1.04227-.49633-1.49395-1.772758-1.64897l-1.123874-.1365.997766-.0303c1.168297-.0355 1.603906.27093 2.414091 1.69797.532871.93859.537413.97551.120016.97551-.238596 0-.477595-.0438-.531107-.0973zm58.133446-.37777c-.41679-.12128-.49266-.41087-.16131-.61566.33227-.20536.25409-1.12191-.10753-1.26067-.38289-.14693-.96783.044-.96783.31586 0 .47196-.45913.1181-.85592-.65966-.83648-1.63965-.46848-4.10864.81356-5.45834 1.09053-1.14807 2.65587-1.56044 3.73373-.98358l.43701.23388-.44256.30998c-.24341.17049-.50661.65135-.58488 1.06858-.11548.61557-.0492.8577.35151 1.28425.64854.69033 1.10847.66323 1.88265-.11095l.6366-.6366.13269.66348c.63973 3.19863-.83388 5.77374-3.37774 5.90256-.61248.031-1.28298.007-1.48998-.0531zm-66.443801-1.30026c.155254-.0621.340753-.0545.412222.017.07147.0715-.05556.1223-.282282.11296-.250548-.0103-.30151-.0613-.12994-.12994zm1.720576-.21507c.155254-.0621.340755-.0545.412222.017.07147.0715-.05556.1223-.282282.11296-.250549-.0103-.30151-.0613-.12994-.12994zm1.438293-.28323c.236579-.10166.623709-.18199.860288-.17851.345791.005.324701.0401-.107536.17851-.735367.23551-1.300802.23551-.752752 0z" fill="#983503"/><path d="m94.0053 146.91638c-2.917929-.70705-6.077481-3.10061-7.420547-5.62155-1.688422-3.16917-1.654286-7.27554.06789-8.16611.815153-.42153 3.127935-.39977 5.491609.0517 2.582036.49315 7.973088.48978 10.150618-.006.86533-.19715 2.19069-.35846 2.94524-.35846 1.14057 0 1.47368.0876 1.97536.51943.59834.51504.60341.54093.60036 3.06478-.003 2.26493-.0643 2.68397-.5587 3.80372-2.29373 5.19494-7.86637 8.01783-13.25183 6.71286zm-6.833299-28.44241c-.653023-.16693-.877625-.4595-.580695-.75643.390242-.39024.309775-.98955-.167128-1.24478-.337437-.18059-.514409-.13838-.857292.20451l-.432079.43208-.301632-.48092c-1.161752-1.85227-.843259-4.89825.649132-6.20816 1.080171-.94809 2.801435-1.33095 3.735718-.83093.386197.20668.380628.24067-.121674.74297-.955881.95589-.517332 2.69666.67936 2.69666.579123 0 1.373538-.59394 1.382743-1.03379.01933-.92425.623027.80851.629972 1.80822.01768 2.5432-1.325945 4.36791-3.440962 4.67301-.409925.0591-.938884.058-1.175463-.002zm19.410249-2.14094c-.41679-.12128-.49266-.41087-.16131-.61566.33227-.20536.25409-1.12191-.10753-1.26067-.38289-.14693-.96783.044-.96783.31586 0 .47196-.45913.1181-.85592-.65966-.83648-1.63965-.46848-4.10864.81356-5.45834 1.09053-1.14807 2.65587-1.56044 3.73373-.98358l.43701.23388-.44256.30998c-.24341.17049-.50661.65135-.58488 1.06858-.11548.61557-.0492.8577.35151 1.28425.64854.69033 1.10847.66323 1.88265-.11095l.6366-.6366.13269.66348c.63973 3.19863-.83388 5.77374-3.37774 5.90256-.61248.031-1.28298.007-1.48998-.0531z" fill="#3b2b29"/></g></svg>