<svg height="429.29626mm" viewBox="0 0 429.29575 429.29626" width="429.29575mm" xmlns="http://www.w3.org/2000/svg"><g stroke-width=".894366" transform="translate(87.647873 61.278824)"><path d="m-87.647873 153.36905v-214.647874h214.647873 214.64788v214.647874 214.64788h-214.64788-214.647873z" fill="#fefdfd"/><path d="m103.2993 367.05128c-16.88414-1.52177-23.790659-2.67888-34.691802-5.81223-36.42417-10.46953-67.68100945-28.84898-94.112192-55.33927-26.806633-26.86658-44.830806-57.48751-55.320726-93.98336-9.079837-31.58997-9.079837-85.50477 0-117.094741 10.479455-36.459435 28.624304-67.289505 55.306425-93.9716254 26.6821203-26.6821206 57.51219-44.8269696 93.971625-55.3064246 31.58997-9.079837 85.50478-9.079837 117.09474 0 36.45944 10.479455 67.28951 28.624304 93.97163 55.3064246 26.67854 26.6785374 44.86651 57.5808684 55.28847 93.9380144 6.58027 22.955402 8.20558 51.359142 5.14328 89.883802-1.9522 24.55917-12.51809 54.60902-28.45952 80.94013-16.20082 26.75956-42.60265 53.58017-69.51896 70.62168-25.33843 16.04251-58.55621 28.05205-83.22227 30.08814-15.48582 1.27829-45.04672 1.66717-55.4507.72946zm148.91196-158.96491v-37.40239l-3.14212-3.67086c-7.67676-8.96857-32.25907-25.48084-63.20063-42.45269l-11.3582-6.23013-.47583-4.61618c-1.38758-13.46099-1.5212-18.311872-.52142-18.929772 1.28237-.792552 13.4835.285517 15.19371 1.342488 1.06298.656957 1.01459 2.024407-.32295 9.125914-1.72135 9.13929-1.38018 11.37834 2.24741 14.74939 3.10769 2.88791 57.77229 13.30638 62.1817 11.85114 4.39348-1.44998 6.15477-4.40606 7.86192-13.19519 1.29951-6.69039 1.38822-9.1917.56587-15.95511-1.686-13.866507-4.69079-21.147533-10.07981-24.424794-6.50798-3.95774-41.73812-10.767024-71.74361-13.86662-36.63796-3.784734-67.83633-3.779511-104.290534.01744-33.43773 3.482787-66.1704847 9.939351-72.9674796 14.39291-4.8120252 3.152962-9.2694665 17.36715-9.2986765 29.652254-.032197 13.54123 3.61551 22.53011 9.6207825 23.70806 2.3277042.45659 52.0662136-8.28944 58.0979356-10.21595 1.590988-.50815 3.746902-2.00156 4.790914-3.31868 1.987013-2.50679 2.001197-3.43426.270527-17.68818-.657609-5.416176-.528409-5.505281 9.17075-6.325165l6.57581-.555839-.0063 5.721018c-.0036 3.146566-.26805 8.492576-.587903 11.880026-.674146 7.13965 1.922977 4.99634-23.106441 19.06889-26.118923 14.68513-47.243475 29.33149-52.8202327 36.62205l-2.6305276 3.43879-.2531146 36.17067c-.1392081 19.89387-.051247 36.69678.1955263 37.33979.3664129.95484 23.3197026 1.16911 125.2407836 1.16911h124.79214zm-134.42459 8.69724c-10.50697-2.47265-21.1006-10.88802-25.485365-20.24507-2.067175-4.41135-2.417498-6.32808-2.417498-13.22703 0-7.29505.278497-8.63382 2.906627-13.97231 13.528586-27.48044 56.260096-26.97413 69.355366.82178 2.44446 5.18859 2.83352 6.99683 2.83352 13.16934 0 6.12177-.39575 7.99474-2.74065 12.97086-7.42287 15.75213-26.73664 24.65145-44.452 20.48243zm-18.402995-101.29376c-.552397-.66559-1.265993-6.07599-1.585765-12.02309l-.58141-10.812909 2.594217-.721619c3.368343-.936965 51.887383-.941937 55.250363-.0054l2.57164.715958-.64564 9.96168c-.35511 5.47892-.9993 10.89186-1.43155 12.02876l-.78591 2.06678h-27.19078c-21.76671 0-27.39116-.24141-28.195165-1.21019z" fill="#f6cfcf"/><path d="m101.95775 366.66411c-32.469561-3.56334-62.751671-14.12171-90.036046-31.39262-37.753914-23.89807-67.347584-59.56571-84.822453-102.23188-19.595941-47.84492-19.595941-111.4962 0-159.341116 22.873241-55.846691 64.3835029-97.356953 120.230194-120.230194 41.170071-16.862111 94.663255-19.398556 140.091255-6.642601 55.46114 15.573207 105.30497 57.1009133 131.79647 109.807064 18.6648 37.134556 25.41298 76.206697 21.05144 121.888497-5.93625 62.17516-43.52289 122.13938-98.29634 156.81806-17.7988 11.26894-40.58666 21.04379-61.49439 26.37799-22.84975 5.82966-53.10613 7.73582-78.52013 4.9468zm151.14788-157.88877c0-29.8763-.23529-37.16844-1.26345-39.15668-4.06298-7.85691-28.09154-24.83365-61.65175-43.55839-8.80982-4.91539-14.43603-8.6052-14.86941-9.75173-.38344-1.01443-.84783-6.0703-1.03198-11.23526l-.33482-9.390845 6.62843.188988c3.64563.103943 7.0444.604967 7.55281 1.113379.63627.636261.44475 3.426428-.61447 8.951898-1.74163 9.08528-1.00357 12.69762 3.15044 15.41944 1.25577.8228 14.42098 3.74885 30.59645 6.80024 31.07016 5.86116 32.54337 5.90901 36.51738 1.18617 1.46187-1.73733 2.6168-5.10004 3.75386-10.92982 1.55433-7.96912 1.56429-8.94774.18586-18.25846-1.83477-12.393138-5.14061-19.73871-10.14988-22.553093-6.51818-3.662116-31.61068-9.055645-57.05045-12.262734-50.13546-6.320388-93.21944-5.916349-144.440137 1.354535-25.201681 3.577429-46.435785 8.96704-49.80291253 12.640917-7.03664207 7.677678-10.25473337 27.212975-6.90730247 41.930515 2.6685579 11.73275 5.89601763 13.16646 22.724302 10.09464 43.403759-7.9229 45.878166-8.50829 48.966546-11.58472 3.354669-3.34165 3.636824-6.11466 1.586865-15.59542-1.58868-7.347394-1.06951-7.95305 7.427997-8.665448l6.412954-.537639-.0063 5.272317c-.0036 2.89977-.264196 8.00252-.579326 11.33942l-.572967 6.0671-5.904828 3.24369c-29.526756 16.21991-55.369144 32.67028-64.2740349 40.91464-8.6560995 8.01394-8.26117066 5.77808-8.26117066 46.76927 0 19.64271.26830986 35.98233.59624436 36.31026.327931.32793 57.0754632.59624 126.1056302.59624h125.50938zm-138.13544 6.20371c-15.085116-5.18729-24.568071-17.27947-24.617968-31.39159-.110651-31.29179 42.650898-45.77748 64.904398-21.98669 6.27556 6.70907 8.85816 13.04433 8.85816 21.72955 0 8.57254-2.52597 14.8855-8.58708 21.46102-9.81608 10.64919-26.80515 14.9167-40.55751 10.18771zm-14.74771-100.45051c-.654387-.78849-1.124028-5.15148-1.22747-11.40317l-.167542-10.126034 4.471832-.592419c5.74168-.760658 41.40149-.753128 47.84859.01011l4.91901.582322-.29689 10.281901c-.1633 5.65504-.71566 10.78646-1.22747 11.40316-1.45553 1.75381-52.85758 1.60631-54.32006-.15587z" fill="#efa1a1"/><path d="m109.11268 367.41516c-91.054077-9.17737-165.303308-71.14074-189.034438-157.75532-5.701098-20.80804-7.205211-32.55894-7.205211-56.29079 0-17.88187.307888-22.81089 2.06365-33.03727 16.06286-93.557656 85.46839387-162.96319 179.026053-179.02605 10.226376-1.755762 15.155396-2.06365 33.037266-2.06365s22.81089.307888 33.03727 2.06365c22.34884 3.837058 43.80859 10.793529 63.10709 20.457019 70.22714 35.1653874 115.78958 106.583626 118.24437 185.345741 1.84059 59.05571-20.7722 115.95717-62.74684 157.89231-35.43515 35.4018-79.65354 56.28017-131.51865 62.09847-7.48801.84002-30.88151 1.03443-38.01056.31589zm144.67373-158.47366c.22801-36.10963.18913-37.06638-1.62542-40.00239-4.94252-7.99717-26.98637-23.69378-58.53071-41.67756l-17.88732-10.19777-.74748-10.12207c-.41111-5.56714-.41111-10.436754 0-10.821358.74848-.700226 11.83184.510299 12.70969 1.388146.25639.256388-.016 3.278222-.60542 6.715172-1.94595 11.34792-.96931 15.32814 4.4491 18.13196 3.33245 1.72441 53.24928 11.33737 58.87114 11.33737 2.83717 0 4.26667-.61991 6.70285-2.90669 2.66705-2.5035 3.33528-4.02324 4.81741-10.95599 2.62316-12.27009.9903-25.617418-4.45313-36.400782-2.98088-5.905097-4.45702-6.863348-15.50397-10.064633-30.59368-8.8657-91.60937-14.80032-133.09406-12.945235-37.674121 1.684691-78.306812 7.308823-99.4943189 13.771405-8.58884758 2.61976-11.6800131 5.408537-14.5705043 13.14517-5.3788728 14.396975-4.4167288 37.170805 1.8344854 43.422025 3.71522377 3.71522 7.6667248 3.54359 34.6440718-1.50472 30.234656-5.65785 31.166979-5.89675 34.198371-8.76306 3.298145-3.11854 3.805322-6.76586 2.092512-15.04816-.791514-3.82736-1.116983-7.280981-.723265-7.674699.84675-.84675 11.978497-2.503322 12.953248-1.927636.369749.218377.477458 2.48581.23936 5.038755-.238108 2.55294-.674353 7.36835-.969431 10.7009l-.536521 6.05918-4.463996 2.26208c-10.030272 5.08272-34.806146 19.73131-47.110397 27.85375-15.065732 9.94537-25.4527894 19.50341-26.39059581 24.28428-.74304744 3.78801-.78733198 71.00603-.0480453 72.93257.49361501 1.28634 12.24622511 1.39676 126.77640611 1.19111l126.23234-.22667zm-139.17576 5.2465c-10.79875-3.88473-19.917121-12.72128-22.445512-21.75183-1.747976-6.24314-.917602-17.12187 1.719061-22.52135 3.088801-6.32539 9.676121-12.55633 16.801891-15.8929 11.21278-5.25026 26.83253-4.34265 37.03946 2.15225 5.50319 3.50179 11.16631 9.73541 13.55914 14.92509 2.73349 5.92852 2.74435 18.51087.0211 24.41447-3.87578 8.40205-13.17909 16.21538-22.66003 19.03091-6.6889 1.9864-17.98796 1.81873-24.03507-.35664zm-14.837846-105.30066c-.297752-3.32749-.74278-7.93181-.988945-10.231836-.248097-2.318107-.05196-4.426352.440046-4.730436.48819-.301724 6.734525-.958877 13.880735-1.460348 13.29026-.932627 41.20492.12065 42.51857 1.604305.35016.395471.19076 5.146156-.3542 10.557075l-.99084 9.83802-26.982.2366-26.982.23659z" fill="#d57171"/><path d="m108.21831 367.45238c-2.21355-.20479-4.82957-.72706-5.81338-1.1606-.9838-.43354-5.410912-1.27262-9.838025-1.86462-11.714166-1.56642-30.623401-6.58863-42.458727-11.27683-28.157257-11.15362-53.3807555-27.65738-74.269082-48.59432-21.521989-21.57208-36.985203-45.21569-48.589952-74.29514-4.70054-11.77872-9.730192-30.66505-11.307257-42.45872-.591999-4.42711-1.54126-9.01577-2.109469-10.19702-1.432005-2.97698-1.432005-45.49518 0-48.47216.568209-1.18125 1.51747-5.7699 2.109469-10.19702 5.486262-41.027585 27.93781-84.797032 59.882897-116.7421166 31.9450848-31.9450874 75.714532-54.3966354 116.742121-59.8828974 4.427113-.591999 9.015765-1.54126 10.197015-2.109469 2.97698-1.432005 45.49518-1.432005 48.47216 0 1.18125.568209 5.76991 1.51747 10.19702 2.109469 41.02759 5.486262 84.79704 27.93781 116.74212 59.8828974 31.94509 31.9450846 54.39664 75.7145316 59.88289 116.7421166.592 4.42712 1.54127 9.01577 2.10947 10.19702 1.45136 3.01721 1.43102 45.51541-.0232 48.47216-.58097 1.18125-1.52006 5.56867-2.08687 9.74983-2.29966 16.96368-9.27983 39.52281-17.92277 57.92434-16.58026 35.30073-45.47228 67.90605-78.95081 89.09782-22.55922 14.2799-53.02968 25.83386-78.18118 29.64517-5.29042.80168-10.41391 1.88722-11.38553 2.41231-1.77462.95906-35.48777 1.74969-43.39891 1.01778zm145.60281-121.24812c.79821-.79822 1.07324-10.05169 1.07324-36.11004 0-19.27023-.25473-36.31047-.56608-37.8672-1.66763-8.33817-23.77166-24.8368-62.4295-46.59791l-15.26146-8.5909-.60448-3.97015c-.33246-2.18357-.63431-6.92577-.67078-10.53822l-.0663-6.568077 4.69543.595809c6.53833.82965 8.02107 1.350385 7.5251 2.642834-1.20011 3.127454-2.58824 14.769424-2.02744 17.003824.35297 1.40633 1.84144 3.67762 3.30772 5.04734 2.84015 2.6531 3.30497 2.78126 25.40412 7.00466 39.24082 7.49938 38.85332 7.47747 43.80337 2.47736 7.73854-7.8168 7.34254-37.091857-.66241-48.970408-2.94875-4.37566-6.78259-6.623354-15.17012-8.893935-35.33296-9.564951-99.0714-15.276722-140.66096-12.605009-44.853449 2.881389-90.820292 10.593231-100.3466308 16.835128-4.8412415 3.172102-8.6152466 12.759761-10.0351808 25.493844-.7875761 7.06304-.7073801 9.91513.4511263 16.04388 1.5845253 8.38249 3.4893615 12.09621 7.3783857 14.38513 3.5028109 2.06161 5.8888009 1.98241 19.5275986-.6482 6.31147-1.21734 14.695124-2.81951 18.630335-3.56037 27.072759-5.0969 28.169484-5.50092 31.138851-11.47118 1.54136-3.09908 1.550143-3.66504.171075-11.02463-.799528-4.26681-1.128207-8.054614-.730402-8.417333.397814-.362728 3.283906-.934657 6.413544-1.270974l5.690262-.61147-.61155 9.223027c-.336353 5.07267-.790656 9.82673-1.009561 10.56458s-7.473064 5.27324-16.12035 10.07864c-30.918533 17.18179-53.6547067 33.03171-59.1513737 41.23581l-2.90669001 4.33841v37.31324c0 20.52228.26830985 37.58155.5962444 37.90948.32793365.32794 57.19620231.59625 126.37393631.59625 96.6346 0 126.02636-.24867 126.85093-1.07324zm-135.66432-31.64317c-11.46801-3.08413-19.555508-9.50987-24.111015-19.15683-3.138528-6.6463-3.273595-17.07288-.306097-23.62946 4.051121-8.9508 10.290402-14.5178 20.706922-18.47577 9.00223-3.42058 21.6607-2.62048 30.58682 1.93329 5.26974 2.68842 11.64479 8.95783 14.68067 14.43739 2.39956 4.33104 2.61336 5.44866 2.61336 13.66061 0 7.66583-.29937 9.50488-2.09531 12.87175-4.93676 9.25499-13.71841 15.88435-24.36597 18.39414-7.03943 1.65929-11.44136 1.65056-17.70938-.0352zm-16.89833-100.76774c-.50506-.61488-1.05743-5.34384-1.22746-10.5088l-.309175-9.390848 8.496475-.729615c9.90395-.85047 45.62443-.06359 46.71716 1.029165.78908.789082-.56062 18.220148-1.53258 19.792808-.89003 1.4401-50.9552 1.25507-52.14442-.19271z" fill="#fd4d4d"/><path d="m107.32395 367.18276-4.91902-.66301 4.91902-.24277c4.38529-.21644 3.90008-.36687-4.47183-1.38645-13.525941-1.64726-23.724568-3.69044-35.868916-7.18595-69.4121286-19.97891-124.339828-74.9066-144.318734-144.31873-3.495509-12.14435-5.538695-22.34298-7.185956-35.86891-1.012105-8.31057-1.16995-8.82499-1.372151-4.47183l-.228485 4.91901-.665807-5.3662c-.366193-2.95141-.665806-11.6044-.665806-19.22887s.299613-16.27746.665806-19.22887l.665807-5.3662.228485 4.91902c.202201 4.35315.360046 3.83873 1.372151-4.47183 6.031218-49.523375 26.631471-92.413356 60.795859-126.5777477 34.164392-34.1643883 77.054373-54.7646413 126.577747-60.7958593 8.31056-1.012105 8.82498-1.16995 4.47183-1.372151l-4.91902-.228485 5.3662-.665807c6.93172-.860047 31.52602-.860047 38.45774 0l5.3662.665807-4.91901.228485c-4.35316.202201-3.83874.360046 4.47183 1.372151 81.51063 9.926797 147.32262 61.4738031 175.68941 137.608127 5.80926 15.591619 11.70172 42.35338 12.27326 55.74153.1208 2.82978.24032 2.57209.69761-1.50422.51297-4.57258.60605-4.22614 1.32166 4.91901.87377 11.16647.13981 37.61768-1.08772 39.19984-.44662.57565-1.30214 4.65991-1.90115 9.07614-2.3523 17.34254-9.28406 39.82112-18.00621 58.39131-16.58026 35.30073-45.47229 67.90605-78.95082 89.09782-22.55922 14.2799-53.02968 25.83386-78.18117 29.64517-5.29043.80168-10.41391 1.88722-11.38554 2.41231-2.10176 1.13587-37.03863 1.72599-44.29327.74816zm146.37192-120.91836c.9645-.80045 1.19849-7.84886 1.19849-36.10081 0-19.30839-.25473-36.37984-.56608-37.93657-1.66763-8.33817-23.77166-24.8368-62.4295-46.59791l-15.26146-8.5909-.60448-3.97015c-.33246-2.18357-.63431-6.92577-.67078-10.53822l-.0663-6.568077 4.69543.595809c6.53833.82965 8.02107 1.350385 7.5251 2.642834-1.20011 3.127454-2.58824 14.769424-2.02744 17.003824.35297 1.40633 1.84144 3.67762 3.30772 5.04734 2.84015 2.6531 3.30497 2.78126 25.40412 7.00466 39.24082 7.49938 38.85332 7.47747 43.80337 2.47736 5.64172-5.69877 7.48621-25.70388 3.58207-38.850566-2.80659-9.450812-5.71027-14.45428-9.51464-16.395127-10.44523-5.328758-45.52258-11.626393-85.2722-15.30941-18.55812-1.7195-65.09267-1.450609-84.517605.488368-44.94553 4.486436-77.6806817 11.29538-83.3414649 17.335097-4.8896714 5.21699-7.3883498 12.31154-8.836621 25.089988-.7840961 6.91827-.6919661 9.52989.5521387 15.6514 1.7314079 8.51926 3.0289284 11.39014 6.3167239 13.97632 3.1380893 2.46842 7.2674234 2.40208 21.5133973-.34564 6.31147-1.21734 14.695124-2.81951 18.630335-3.56037 27.072759-5.0969 28.169484-5.50092 31.138851-11.47118 1.54136-3.09908 1.550143-3.66504.171075-11.02463-.799528-4.26681-1.128207-8.054614-.730402-8.417333.397814-.362728 3.283906-.934657 6.413544-1.270974l5.690262-.61147-.61155 9.223027c-.336353 5.07267-.783098 9.82673-.992764 10.56458-.209667.73785-3.300015 2.92213-6.867445 4.85395-14.114233 7.64309-30.286055 17.19261-41.142908 24.29503-6.271743 4.10289-11.403169 7.24859-11.403169 6.99046 0-.84723-10.2129098 7.43478-13.5055545 10.95213-6.612141 7.06339-6.17050035 3.80716-6.17050035 45.49546 0 22.57264.33997987 37.9727.8495575 38.48233 1.28194435 1.28208 252.18765935.67826 253.74067935-.61063zm-135.53907-31.70331c-11.46801-3.08413-19.555508-9.50987-24.111015-19.15683-3.138528-6.6463-3.273595-17.07288-.306097-23.62946 4.051121-8.9508 10.290402-14.5178 20.706922-18.47577 9.00223-3.42058 21.6607-2.62048 30.58682 1.93329 5.26974 2.68842 11.64479 8.95783 14.68067 14.43739 2.39956 4.33104 2.61336 5.44866 2.61336 13.66061 0 7.66583-.29937 9.50488-2.09531 12.87175-4.93676 9.25499-13.71841 15.88435-24.36597 18.39414-7.03943 1.65929-11.44136 1.65056-17.70938-.0352zm-16.89833-100.76774c-.50506-.61488-1.05743-5.34384-1.22746-10.5088l-.309175-9.390848 8.496475-.729615c9.90395-.85047 45.62443-.06359 46.71716 1.029165.78908.789082-.56062 18.220148-1.53258 19.792808-.89003 1.4401-50.9552 1.25507-52.14442-.19271z" fill="#cd4d4d"/><path d="m107.32395 367.12256-4.91902-.60281 4.91902-.24277c4.38529-.21644 3.90008-.36687-4.47183-1.38645-13.525941-1.64726-23.724568-3.69044-35.868916-7.18595-69.4121286-19.97891-124.339828-74.9066-144.318734-144.31873-3.495509-12.14435-5.538695-22.34298-7.185956-35.86891-1.012105-8.31057-1.16995-8.82499-1.372151-4.47183l-.228485 4.91901-.665807-5.3662c-.366193-2.95141-.665806-11.6044-.665806-19.22887s.299613-16.27746.665806-19.22887l.665807-5.3662.228485 4.91902c.202201 4.35315.360046 3.83873 1.372151-4.47183 6.031218-49.523375 26.631471-92.413356 60.795859-126.5777477 34.164392-34.1643883 77.054373-54.7646413 126.577747-60.7958593 8.31056-1.012105 8.82498-1.16995 4.47183-1.372151l-4.91902-.228485 5.3662-.665807c6.93172-.860047 31.52602-.860047 38.45774 0l5.3662.665807-4.91901.228485c-4.35316.202201-3.83874.360046 4.47183 1.372151 49.52337 6.031218 92.41335 26.631471 126.57774 60.7958593 34.16439 34.1643917 54.76464 77.0543727 60.79586 126.5777477 1.01211 8.31056 1.16995 8.82498 1.37215 4.47183l.22848-4.91902.66582 5.3662c.86004 6.93172.86004 31.52602 0 38.45774-.66555 5.36404-.66591 5.36459-.9191 1.34155-.27378-4.35034-.37432-3.89419-1.87251 8.49648-3.30558 27.33845-14.1182 57.89825-29.11281 82.28169-16.58082 26.96288-41.22057 52.00749-67.57522 68.68557-25.49143 16.1318-57.0361 27.59315-85.2414 30.97136-12.35773 1.48011-12.8545 1.58905-8.49648 1.86332 4.02304.25318 4.0225.25355-1.34155.91909-6.56663.81475-32.16033.79211-38.90492-.0344zm146.15571-119.49357c1.25928-.48322 1.4147-4.71329 1.4147-38.50216 0-30.83167-.23569-38.41505-1.2552-40.38657-3.68137-7.11898-25.33807-23.12058-52.20721-38.57458-4.5633-2.62463-8.18548-4.87521-8.04929-5.00131.13619-.12608 13.19241 2.19643 29.01381 5.16117l28.76619 5.39041 3.96939-1.92153c4.75157-2.30021 6.31299-5.05434 8.34259-14.7152 2.35523-11.21081.49902-25.408689-4.66442-35.677577-3.65308-7.265124-5.78717-8.56098-20.30312-12.328399-16.41543-4.260403-41.90956-8.133795-71.7078-10.894757-18.55812-1.7195-65.09267-1.450609-84.517605.488368-44.94553 4.486436-77.6806817 11.29538-83.3414649 17.335097-4.8844268 5.2114-7.3884955 12.313186-8.8319819 25.048378-.7824062 6.90279-.6854472 9.52637.5892737 15.94497 1.7827865 8.97687 3.9608865 12.69966 8.82342374 15.0809l3.52198346 1.72475 29.0904219-5.47144c15.999727-3.00929 29.172408-5.38945 29.272613-5.28924.100204.10021-4.591149 2.90414-10.425242 6.23097-14.291703 8.1497-36.01134 22.64659-41.9695445 28.0128-2.6683324 2.40321-5.9886668 5.93927-7.3785225 7.85791l-2.52701185 3.48844v37.6975c0 28.12778.27244718 37.96994 1.07323937 38.77073.82453668.82454 30.13382448 1.07324 126.47965748 1.07324 68.97354 0 126.04304-.24428 126.82112-.54287zm-136.31769-33.98248c-6.86703-1.83728-13.95721-6.30473-17.948279-11.30904-16.324534-20.46899-2.516129-48.17622 25.166109-50.49699 14.86318-1.24608 29.5543 6.92739 35.32555 19.65352 11.03219 24.32695-14.52462 49.64895-42.54338 42.15251zm65.55891-93.9332c-6.15794-3.46909-5.84976-2.72266-6.91036-16.73719l-.46328-6.121797 5.56405.632585c3.06024.347917 5.69805.754854 5.86182.904302.16377.14944-.37349 3.56279-1.19391 7.58521-1.60455 7.86689-1.33405 10.54105 1.4637 14.47013.9846 1.38272 1.66215 2.48603 1.50567 2.45179-.15647-.0343-2.77893-1.46751-5.82769-3.18503zm-114.813957-.004c2.143018-2.7244 2.357719-6.77547.805547-15.19941-.576455-3.12853-.878303-5.852732-.670775-6.053776.207529-.201054 2.691497-.651993 5.51993-1.002093l5.142605-.636547-.0063 3.904116c-.0036 2.14725-.265243 6.6455-.581651 9.99608l-.575293 6.09197-5.206221 2.6281c-6.379746 3.22049-6.766041 3.24418-4.427783.27156zm32.846207-11.71601c-.31426-3.32766-.57426-7.72319-.57775-9.767869l-.006-3.717585 8.71366-.65329c9.09163-.681623 44.65545-.104614 45.49826.738192.26642.266414.15105 4.645239-.25637 9.730712l-.74087 9.2463-26.02964.23689-26.02963.23689-.5714-6.05027z" fill="#fd3232"/><path d="m62.185377 308.09843-59.9494523-59.9185 124.9145153-.004c68.70299-.002 125.55114-.24832 126.32922-.54691 1.25928-.48322 1.4147-4.71329 1.4147-38.50216 0-30.83167-.23569-38.41505-1.2552-40.38657-3.68137-7.11898-25.33807-23.12058-52.20721-38.57458-4.5633-2.62462-8.18548-4.87521-8.04929-5.0013s13.19241 2.19642 29.01381 5.16116l28.76619 5.39042 3.96939-1.92154c4.75157-2.3002 6.31299-5.05434 8.34259-14.7152 2.18903-10.41972.49763-25.437682-3.82941-34.00131-1.2072-2.389174-1.86445-4.192574-1.46057-4.007556.40389.185026 19.33511 19.043326 42.06938 41.907346l41.33501 41.57137-.62682 6.70774c-.60373 6.46055-.64715 6.55943-1.17782 2.6831-.54918-4.01154-.55141-4.01371-.68531-.66489-.0739 1.84787-.74048 7.39547-1.48134 12.32801-6.74566 44.91194-27.6017 86.17814-59.89213 118.50384-23.37943 23.40498-52.46596 41.30224-84.20148 51.81012-11.07062 3.66556-26.46276 7.14118-37.45725 8.45802-12.35773 1.48011-12.8545 1.58905-8.49648 1.86332 4.02304.25318 4.0225.25355-1.34155.91909-2.9514.36619-9.57995.70949-14.73012.76288l-9.36391.0971zm54.976593-94.45192c-6.86703-1.83728-13.95721-6.30473-17.948279-11.30904-16.324534-20.46899-2.516129-48.17622 25.166109-50.49699 14.86318-1.24608 29.5543 6.92739 35.32555 19.65352 11.03219 24.32695-14.52462 49.64895-42.54338 42.15251zm-106.682243-69.92008-7.8174938-7.85388 29.2807698-5.50724c16.104422-3.02898 29.360717-5.42729 29.458426-5.32957.09772.0977-4.320325 2.74556-9.817868 5.8841-5.497535 3.13855-15.147665 9.0711-21.444718 13.18346-6.297054 4.11236-11.537485 7.47702-11.645408 7.47702-.107914 0-3.714088-3.53425-8.013708-7.85389zm172.241153-24.01312c-6.15794-3.46909-5.84976-2.72266-6.91036-16.73719l-.46328-6.121797 5.56405.632585c3.06024.347917 5.69805.754854 5.86182.904302.16377.14944-.37349 3.56279-1.19391 7.58521-1.60455 7.86689-1.33405 10.54105 1.4637 14.47013.9846 1.38272 1.66215 2.48603 1.50567 2.45179-.15647-.0343-2.77893-1.46751-5.82769-3.18503zm-114.813957-.004c2.143018-2.7244 2.357719-6.77547.805547-15.19941-.576455-3.12853-.878303-5.852732-.670775-6.053776.207529-.201054 2.691497-.651993 5.51993-1.002093l5.142605-.636547-.0063 3.904116c-.0036 2.14725-.265243 6.6455-.581651 9.99608l-.575293 6.09197-5.206221 2.6281c-6.379746 3.22049-6.766041 3.24418-4.427783.27156zm32.846207-11.71601c-.31426-3.32766-.57426-7.72319-.57775-9.767869l-.006-3.717585 8.71366-.65329c9.09163-.681623 44.65545-.104614 45.49826.738192.26642.266414.15105 4.645239-.25637 9.730712l-.74087 9.2463-26.02964.23689-26.02963.23689-.5714-6.05027z" fill="#ca3131"/></g></svg>