<?xml version="1.0" encoding="UTF-8" standalone="no"?>
<!-- Created with Inkscape (http://www.inkscape.org/) -->

<svg
   xmlns:dc="http://purl.org/dc/elements/1.1/"
   xmlns:cc="http://creativecommons.org/ns#"
   xmlns:rdf="http://www.w3.org/1999/02/22-rdf-syntax-ns#"
   xmlns:svg="http://www.w3.org/2000/svg"
   xmlns="http://www.w3.org/2000/svg"
   xmlns:sodipodi="http://sodipodi.sourceforge.net/DTD/sodipodi-0.dtd"
   xmlns:inkscape="http://www.inkscape.org/namespaces/inkscape"
   width="134.63503mm"
   height="95.07917mm"
   viewBox="0 0 134.63503 95.07917"
   version="1.1"
   id="svg8"
   inkscape:version="0.92.1 r15371"
   sodipodi:docname="logo.svg">
  <defs
     id="defs2" />
  <sodipodi:namedview
     id="base"
     pagecolor="#ffffff"
     bordercolor="#666666"
     borderopacity="1.0"
     inkscape:pageopacity="0.0"
     inkscape:pageshadow="2"
     inkscape:zoom="0.35"
     inkscape:cx="286.65668"
     inkscape:cy="185.42516"
     inkscape:document-units="mm"
     inkscape:current-layer="layer1"
     showgrid="false"
     fit-margin-top="0"
     fit-margin-left="0"
     fit-margin-right="0"
     fit-margin-bottom="0"
     inkscape:window-width="1536"
     inkscape:window-height="801"
     inkscape:window-x="-8"
     inkscape:window-y="-8"
     inkscape:window-maximized="1" />
  <metadata
     id="metadata5">
    <rdf:RDF>
      <cc:Work
         rdf:about="">
        <dc:format>image/svg+xml</dc:format>
        <dc:type
           rdf:resource="http://purl.org/dc/dcmitype/StillImage" />
        <dc:title></dc:title>
      </cc:Work>
    </rdf:RDF>
  </metadata>
  <g
     inkscape:label="Capa 1"
     inkscape:groupmode="layer"
     id="layer1"
     transform="translate(-29.988755,-102.81458)">
    <g
       id="g21"
       transform="translate(-5.7183064,31.462574)">
      <path
         style="fill:#f5d3a0;stroke-width:0.21507198"
         d="m 103.77734,166.32796 c -5.017872,-0.45422 -10.026249,-2.12059 -14.033685,-4.66923 -9.740713,-6.19489 -16.35141,-17.67366 -18.123076,-31.46881 -0.436543,-3.39915 -0.160373,-3.11855 -3.069202,-3.11855 -1.380704,0 -2.588542,-0.0961 -2.704216,-0.21507 -0.114973,-0.11829 -2.110024,-3.38016 -4.433446,-7.24861 -4.210602,-7.01056 -4.226277,-7.03283 -4.796961,-6.81586 -1.556967,0.59196 -3.975597,0.83747 -8.250555,0.83751 l -4.439084,4e-5 -1.260323,-0.93025 c -1.850761,-1.36605 -3.804119,-3.42011 -5.479827,-5.76235 -1.263856,-1.76657 -1.479904,-2.19979 -1.479904,-2.96751 0,-0.69586 0.128574,-1.01812 0.569085,-1.42637 0.312997,-0.29008 0.791377,-0.52741 1.063066,-0.52741 0.27169,0 0.814056,-0.18451 1.205259,-0.41003 0.865404,-0.49888 3.187484,-0.79403 3.774661,-0.47978 0.229129,0.12263 0.778143,0.97789 1.220032,1.90058 0.736346,1.53755 1.895773,3.0756 2.318469,3.0756 0.09508,0 0.172882,-0.38022 0.172882,-0.84493 0,-1.36353 0.314773,-1.51973 3.080139,-1.52842 1.322307,-0.004 3.033282,-0.14805 3.802164,-0.31977 0.768883,-0.17172 2.26901,-0.37327 3.333616,-0.44789 2.344579,-0.16433 2.567878,-0.0347 3.95929,2.29801 0.513117,0.86026 2.093556,3.36169 3.512085,5.55876 1.41853,2.19706 3.26964,5.08066 4.11358,6.408 1.509014,2.37337 2.04696,2.86158 2.824385,2.56325 0.261924,-0.10051 0.32351,-0.60367 0.32531,-2.65783 0.0054,-6.18851 1.270505,-15.39406 2.801417,-20.384813 2.344104,-7.641761 5.313472,-12.970049 9.659534,-17.333242 4.080578,-4.096662 8.161674,-6.346173 13.883146,-7.65243 2.4247,-0.553578 12.941309,-0.5419 16.775609,0.01863 7.47916,1.093357 11.56579,3.020686 13.9976,6.601522 0.61113,0.899894 1.31406,2.178499 1.56206,2.84134 0.55818,1.491874 1.191,4.74989 1.63678,8.426808 1.14538,9.447376 1.83874,12.566635 4.20704,18.926325 1.65428,4.44232 2.31628,6.93573 2.91775,10.98964 l 0.35412,2.38676 4.9173,4.55431 c 2.70451,2.50488 5.04653,4.60391 5.20449,4.66452 0.15796,0.0606 0.71651,-0.23104 1.24122,-0.64812 0.85994,-0.68355 1.08611,-0.75855 2.29331,-0.76043 1.43974,-0.002 2.99939,0.48875 5.39691,1.69902 1.60667,0.81104 4.25092,2.46921 4.93146,3.09244 0.63476,0.58131 0.64794,1.88011 0.0292,2.8812 -0.25007,0.40463 -0.39672,0.79364 -0.32589,0.86447 0.0708,0.0708 1.6506,1.16175 3.51059,2.42427 3.78502,2.56918 4.36736,3.25834 4.36736,5.16847 0,2.39542 -2.83714,4.21104 -4.90357,3.13802 -0.31943,-0.16586 -1.48337,-1.027 -2.58654,-1.91363 l -2.00577,-1.61206 -0.94581,0.94581 c -0.5202,0.52019 -1.08888,0.9458 -1.26374,0.9458 -0.17487,0 -0.61109,0.42609 -0.9694,0.94686 -0.3583,0.52077 -1.1372,1.24575 -1.7309,1.61105 -0.5937,0.36531 -1.07946,0.75839 -1.07946,0.87351 0,0.38442 -1.59675,1.30017 -2.26706,1.30017 -0.64597,0 -2.45869,-0.95985 -3.93096,-2.08148 -0.99803,-0.76033 -1.93971,-2.12781 -2.10158,-3.05187 -0.0978,-0.55852 -0.49418,-1.14888 -1.39073,-2.07156 -0.68964,-0.70974 -1.59813,-1.86544 -2.01886,-2.56821 -0.97872,-1.6348 -1.05295,-3.15608 -0.22471,-4.60489 0.2943,-0.5148 0.53509,-1.00845 0.53509,-1.097 0,-0.21687 -4.47328,-4.31161 -4.7102,-4.31161 -0.10283,0 -0.30059,0.79845 -0.43945,1.77434 -1.53275,10.77177 -7.77479,21.804 -15.46523,27.3334 -3.40133,2.44554 -6.25553,3.77426 -9.9604,4.63689 -1.35565,0.31565 -6.72009,0.45862 -9.1055,0.24269 z M 85.096492,154.11667 c -6.262862,-9.69345 -9.679676,-19.38508 -10.899734,-30.91659 -0.286484,-2.70774 -0.166429,-11.03004 0.200114,-13.87214 0.897357,-6.95793 1.974926,-11.548794 4.690915,-19.985166 0.340569,-1.057868 -0.941378,1.295835 -1.748085,3.209549 -7.990202,18.954817 -5.958873,44.629807 4.667702,58.997397 1.324459,1.79073 3.955275,4.66391 4.270491,4.66391 0.09538,0 -0.43625,-0.94363 -1.181403,-2.09696 z m 55.673228,-28.22819 c -1.00047,-1.01575 -1.61304,-1.34245 -1.61304,-0.86029 0,0.11829 0.0854,0.21507 0.18969,0.21507 0.10434,0 0.66084,0.38368 1.23667,0.85261 0.57583,0.46894 1.09172,0.85607 1.14642,0.86029 0.0547,0.004 -0.37719,-0.47623 -0.95974,-1.06768 z m -40.70547,-15.67312 c 0.98795,-0.4715 1.79245,-1.08599 2.72008,-2.07763 1.79029,-1.91382 2.26727,-2.90021 3.24967,-6.72018 0.13021,-0.5063 0.31954,-0.86937 0.42073,-0.80683 0.1012,0.0625 0.38369,0.77115 0.62775,1.57469 0.84604,2.7854 3.14668,5.53901 5.57345,6.67081 1.07249,0.50018 1.50489,0.57391 3.38051,0.5764 1.89244,0.003 2.30004,-0.0671 3.3941,-0.57977 0.68386,-0.32044 1.83012,-1.14228 2.54724,-1.8263 2.36032,-2.25136 3.59324,-5.0139 3.78495,-8.480771 0.10028,-1.813435 0.043,-2.321394 -0.45979,-4.074046 -0.7448,-2.596508 -1.4455,-3.865187 -3.02941,-5.485008 -1.51575,-1.550116 -2.61438,-2.159364 -4.66483,-2.586897 -2.77578,-0.578765 -5.11109,0.177525 -7.4964,2.427709 -1.71924,1.621838 -2.63713,3.247307 -3.28822,5.822992 -0.26147,1.034343 -0.55582,1.929017 -0.65411,1.988162 -0.0983,0.05914 -0.43914,-0.668681 -0.75746,-1.617391 -2.47265,-7.369533 -10.002313,-9.694552 -15.049777,-4.647088 -2.354799,2.354799 -3.470358,5.280961 -3.46599,9.091458 0.0043,3.78771 1.028158,6.40706 3.457106,8.84471 2.116624,2.12421 3.712901,2.76816 6.564069,2.648 1.411019,-0.0595 2.010955,-0.20115 3.146332,-0.74302 z m -3.169213,-1.99764 c -2.054409,-1.13124 -3.165713,-3.58041 -2.68195,-5.91069 0.470722,-2.26746 2.385221,-4.140789 4.24813,-4.156777 2.977873,-0.02556 5.293053,3.638137 4.330093,6.852207 -0.35534,1.18602 -1.3033,2.44027 -2.24932,2.9761 -0.939075,0.53189 -2.883729,0.65942 -3.646953,0.23916 z m 0,-1.68572 c 0.07311,-0.11829 0.03043,-0.21507 -0.09484,-0.21507 -0.12527,0 -0.227765,0.0968 -0.227765,0.21507 0,0.11829 0.04268,0.21507 0.09484,0.21507 0.05216,0 0.154658,-0.0968 0.227765,-0.21507 z m 3.886983,-4.68111 c 0.36965,-0.25311 0.4798,-0.76469 0.28025,-1.30158 -0.14283,-0.38428 -0.32096,-0.48273 -0.77826,-0.43014 -0.46981,0.054 -0.607439,0.19381 -0.662347,0.67266 -0.105428,0.91947 0.524527,1.49444 1.160357,1.05906 z m 16.11471,4.38267 c -0.90504,-0.39501 -2.12743,-1.81795 -2.58021,-3.00352 -0.74557,-1.95225 -0.1013,-4.507065 1.48861,-5.903027 1.78479,-1.567063 3.83066,-1.430979 5.52019,0.367189 1.18248,1.258504 1.59436,2.493478 1.43131,4.291598 -0.13134,1.44849 -0.51415,2.2859 -1.49191,3.26367 -1.23008,1.23008 -2.92795,1.6126 -4.36799,0.98409 z m -0.10754,-1.85228 c 0,-0.11829 -0.0427,-0.21507 -0.0948,-0.21507 -0.0522,0 -0.15466,0.0968 -0.22776,0.21507 -0.0731,0.11829 -0.0304,0.21507 0.0948,0.21507 0.12527,0 0.22776,-0.0968 0.22776,-0.21507 z m 3.96347,-4.639408 c 0.45073,-0.450727 0.42694,-1.020358 -0.0611,-1.461993 -0.78137,-0.707135 -1.65385,0.347001 -1.11718,1.349787 0.28665,0.535604 0.71414,0.576314 1.17825,0.112206 z m -70.151865,7.077838 c -0.147862,-0.0597 -0.389818,-0.0597 -0.53768,0 -0.147862,0.0597 -0.02688,0.10848 0.26884,0.10848 0.295724,0 0.416702,-0.0488 0.26884,-0.10848 z"
         id="path35"
         inkscape:connector-curvature="0" />
      <path
         style="fill:#fdca64;stroke-width:0.21507198"
         d="m 103.77734,166.11289 c -5.552868,-0.50265 -11.063567,-2.55162 -15.63892,-5.8148 -2.542471,-1.81331 -6.832894,-6.25187 -8.5229,-8.81718 -4.049637,-6.14707 -6.787865,-13.63752 -7.783181,-21.29099 -0.146142,-1.12375 -0.33262,-2.33353 -0.414395,-2.6884 l -0.148683,-0.64522 h -2.501513 c -1.939625,0 -2.572551,-0.0725 -2.817776,-0.32261 -0.173946,-0.17743 -2.101583,-3.29815 -4.28364,-6.93493 -2.182056,-3.63678 -4.083931,-6.75277 -4.226384,-6.92442 -0.198395,-0.23904 -0.392025,-0.26151 -0.827382,-0.096 -1.538061,0.58477 -3.975958,0.83585 -8.108723,0.83511 -3.985,-6.4e-4 -4.355728,-0.0339 -5.039392,-0.45064 -1.861675,-1.13493 -4.843823,-4.23328 -6.683335,-6.94376 -1.071228,-1.57843 -1.165448,-2.65592 -0.292299,-3.34274 0.311676,-0.24517 0.759969,-0.44576 0.996206,-0.44576 0.236237,0 0.731292,-0.18347 1.100123,-0.40772 0.875773,-0.53247 3.246163,-0.81396 3.697809,-0.43912 0.180277,0.14962 0.708283,1.06927 1.173347,2.04367 0.588074,1.23214 1.10183,1.97461 1.687074,2.43813 0.462827,0.36656 0.936665,0.66648 1.052974,0.66648 0.123356,0 0.166099,-0.40254 0.102579,-0.96609 -0.16864,-1.49617 0.0337,-1.61477 2.754868,-1.61477 1.278969,0 3.033397,-0.14951 3.898728,-0.33225 2.453255,-0.51806 4.721673,-0.63928 5.387043,-0.28787 0.532557,0.28127 1.732999,2.06532 7.363619,10.94357 2.059938,3.24807 2.870577,4.49823 3.459291,5.33488 0.275552,0.39161 0.514297,0.48198 1.136382,0.43015 l 0.78754,-0.0656 0.04554,-2.15072 c 0.247449,-11.68659 2.1935,-21.155307 5.913611,-28.773322 1.986493,-4.067927 3.458226,-6.223213 6.156917,-9.016529 4.139378,-4.284517 7.702284,-6.383832 13.321179,-7.849032 2.283043,-0.595334 2.373027,-0.601427 8.651663,-0.58583 8.49561,0.0211 12.81753,0.643538 17.02473,2.451874 3.39518,1.459313 5.24482,3.196026 6.76325,6.350316 1.01909,2.117012 1.51867,4.297474 2.11887,9.248095 1.06162,8.75656 1.76293,12.087348 3.66799,17.420828 2.46673,6.90598 2.61741,7.44658 3.35679,12.04403 0.24731,1.53777 0.51208,2.90343 0.58839,3.03481 0.31771,0.54701 9.99942,9.33183 10.28457,9.33183 0.17103,0 0.76488,-0.34751 1.31966,-0.77224 0.97109,-0.74347 1.06479,-0.76934 2.51419,-0.69424 1.30658,0.0677 1.84179,0.24024 4.0506,1.30586 2.98931,1.44216 5.6624,3.06392 5.95677,3.61396 0.32683,0.61069 0.24688,1.43531 -0.22973,2.36955 -0.24105,0.4725 -0.38968,0.93772 -0.33028,1.03383 0.0594,0.0961 1.4422,1.07548 3.07291,2.17639 1.6307,1.10091 3.19209,2.20454 3.46975,2.45252 0.74179,0.66247 1.32327,1.92971 1.32327,2.88382 0,1.59704 -1.67225,3.26645 -3.27202,3.26645 -1.07964,0 -1.34581,-0.15134 -3.88241,-2.20749 l -2.10829,-1.70898 -1.03065,0.96405 c -0.56686,0.53023 -1.21684,1.0274 -1.44442,1.10483 -0.22757,0.0774 -0.67522,0.5195 -0.99477,0.98238 -0.31955,0.46288 -0.85186,1.01146 -1.1829,1.21907 -0.33104,0.2076 -1.05325,0.78966 -1.60491,1.29347 -1.45261,1.32662 -1.893,1.37618 -3.74713,0.42171 -2.0856,-1.07363 -3.88999,-2.94653 -4.09563,-4.25114 -0.12138,-0.77004 -0.40467,-1.20396 -1.59422,-2.44195 -2.51793,-2.62043 -3.0921,-4.47198 -2.03418,-6.55969 0.29572,-0.58358 0.53768,-1.19315 0.53768,-1.35459 0,-0.32922 -4.55458,-4.52404 -5.02042,-4.62386 -0.21829,-0.0468 -0.33847,0.3 -0.44721,1.29043 -0.25837,2.3534 -0.95069,5.29709 -1.94715,8.27915 -4.23753,12.68146 -13.0401,21.93539 -23.08418,24.26785 -1.65726,0.38485 -6.76573,0.55958 -9.39689,0.3214 z M 85.876112,154.66125 C 73.14936,135.12943 70.956456,114.48294 79.078208,90.658036 c 0.657595,-1.92903 1.147245,-3.555707 1.088116,-3.614839 -0.201409,-0.201406 -1.0426,1.204216 -2.299731,3.842824 -2.526717,5.303363 -4.122837,11.010429 -5.097579,18.226839 -0.548096,4.05777 -0.550312,14.18958 -0.004,18.06605 1.667724,11.83264 5.252086,20.41752 11.431781,27.38018 1.311081,1.4772 3.113279,3.03087 3.299583,2.84457 0.05548,-0.0555 -0.673655,-1.28957 -1.620314,-2.74241 z m 82.237788,-7.14947 c 1.03431,-0.72446 1.10865,-2.75108 0.13217,-3.60306 -0.84284,-0.73538 -6.97026,-4.72419 -7.08335,-4.6111 -0.23929,0.2393 0.1434,0.79001 0.83813,1.20614 1.08626,0.65063 5.55825,3.7346 5.91838,4.08143 0.44655,0.43006 0.19625,2.09696 -0.41213,2.74454 -0.54348,0.57852 -0.13444,0.70123 0.6068,0.18205 z m -18.4154,-1.78998 c -0.32471,-0.12892 -1.29373,0.38851 -1.29373,0.69083 0,0.24974 0.15534,0.21625 0.72347,-0.15598 0.39791,-0.26071 0.65453,-0.50139 0.57026,-0.53485 z m 3.43786,-2.30496 c -0.14726,-0.17743 -0.42526,-0.31917 -0.61778,-0.31498 -0.24086,0.005 -0.18234,0.10349 0.18763,0.31498 0.69021,0.39456 0.7576,0.39456 0.43015,0 z m 3.55332,-2.90347 c 0.48822,-1.58 0.94773,-2.78276 1.4073,-3.6836 0.23784,-0.46621 0.37468,-0.94113 0.30408,-1.05536 -0.20313,-0.32867 -1.74078,-0.24397 -2.03635,0.11218 -0.35555,0.42841 -0.12031,0.97056 0.42112,0.97056 0.572,0 0.55112,0.34374 -0.10841,1.78434 -0.71431,1.56026 -1.07819,3.3274 -0.85211,4.13815 0.17638,0.6325 0.17912,0.63006 0.3715,-0.33062 0.1066,-0.5323 0.32839,-1.40334 0.49287,-1.93565 z m -12.58635,-1.37839 c 0,-0.56623 1.28218,-2.02137 2.26524,-2.57081 0.55826,-0.31202 1.32657,-0.56731 1.70735,-0.56731 0.82937,0 1.43647,-0.58294 1.27002,-1.21947 -0.27538,-1.05304 1.51441,-2.98579 2.9839,-3.22224 0.91714,-0.14758 1.09236,-0.50494 0.24757,-0.50494 -1.3819,0 -2.87478,1.30931 -3.70727,3.25143 -0.35466,0.82741 -0.54459,0.99352 -1.54885,1.35465 -1.33885,0.48144 -2.64832,1.58979 -3.23353,2.73689 -0.4537,0.88933 -0.53515,1.35982 -0.1995,1.15237 0.11829,-0.0731 0.21507,-0.25786 0.21507,-0.41057 z m -0.53917,-11.0128 c -3.30492,-3.15841 -4.16165,-3.81741 -4.547,-3.49759 -0.44237,0.36713 -0.34801,0.82257 0.21477,1.03654 0.27796,0.10568 1.61008,1.09531 2.96026,2.19916 2.89633,2.36793 3.70173,2.95981 3.8453,2.82585 0.0583,-0.0544 -1.05467,-1.2082 -2.47333,-2.56396 z M 98.066973,111.26566 c 1.366481,-0.25914 3.030767,-1.07167 4.262547,-2.08102 1.62696,-1.33317 3.25183,-4.0971 3.73609,-6.35515 0.12139,-0.56599 0.28834,-1.02907 0.371,-1.02907 0.0827,0 0.28305,0.4496 0.4453,0.99911 0.16225,0.54951 0.76997,1.70925 1.3505,2.57721 2.16001,3.22949 5.22306,4.8281 8.64212,4.51033 3.07132,-0.28545 6.03799,-2.45134 7.6903,-5.61451 1.19545,-2.28855 1.47246,-3.48409 1.47246,-6.355021 0,-2.115685 -0.0874,-2.782062 -0.55108,-4.202558 -0.73349,-2.246988 -1.75362,-3.871657 -3.37159,-5.369605 -2.01834,-1.868625 -3.2006,-2.332669 -5.97064,-2.343504 -2.15128,-0.0084 -2.32957,0.02643 -3.76376,0.735675 -2.79776,1.38356 -4.91789,4.098448 -5.8829,7.53324 l -0.39217,1.395856 -0.46696,-1.248071 c -1.00492,-2.685897 -3.27104,-5.264637 -5.57016,-6.338599 -1.109111,-0.518083 -1.48253,-0.577684 -3.603137,-0.575083 -2.16779,0.0027 -2.473792,0.05513 -3.656224,0.626956 -1.6796,0.812254 -3.930436,3.046808 -4.780254,4.745673 -1.246243,2.491357 -1.45457,3.414332 -1.455747,6.449571 -0.0013,3.4303 0.485579,5.16708 2.137882,7.62567 2.291528,3.40975 5.739075,4.99892 9.356423,4.3129 z m -1.171936,-3.33979 c -1.537752,-0.77232 -2.474463,-2.49157 -2.472128,-4.53736 0.0017,-1.51743 0.324903,-2.46448 1.183118,-3.467109 1.619442,-1.891954 3.833359,-1.985336 5.622003,-0.237134 2.06446,2.017773 2.0337,5.548373 -0.0656,7.533033 -1.11623,1.05527 -2.965632,1.36236 -4.267363,0.70857 z m 0.215072,-1.39387 c 0,-0.17419 -0.169369,-0.34933 -0.376376,-0.3892 -0.264076,-0.0509 -0.376376,0.0653 -0.376376,0.3892 0,0.32393 0.1123,0.44006 0.376376,0.3892 0.207007,-0.0399 0.376376,-0.215 0.376376,-0.3892 z m 4.140771,-4.98058 c 0.54925,-1.15148 -0.45678,-2.230739 -1.438459,-1.54315 -0.484318,0.33923 -0.57861,1.13886 -0.214519,1.81918 0.332529,0.62133 1.302168,0.45942 1.652978,-0.27603 z m 15.60535,4.3471 c -1.04507,-0.47447 -2.10935,-1.82143 -2.45581,-3.10809 -0.74559,-2.76892 1.08418,-5.959994 3.61188,-6.299029 2.53791,-0.340405 4.82814,2.418445 4.51835,5.442879 -0.19773,1.93049 -1.19913,3.38914 -2.78024,4.04978 -1.0438,0.43612 -1.794,0.41395 -2.89418,-0.0855 z m 0.0758,-1.20909 c 0.17925,-0.46713 -0.27582,-0.90642 -0.60155,-0.58069 -0.2753,0.2753 -0.10475,0.91776 0.24363,0.91776 0.12572,0 0.28678,-0.15168 0.35792,-0.33707 z m 3.89567,-4.729318 c 0.68402,-0.479112 0.64226,-1.483298 -0.0814,-1.957463 -0.66349,-0.434733 -1.16229,-0.219969 -1.46568,0.631069 -0.14658,0.411191 -0.10406,0.694282 0.16627,1.106848 0.41928,0.639904 0.7138,0.686734 1.38081,0.219546 z m -68.545939,6.890258 c 0.995801,-0.29806 2.31942,-0.60173 2.941374,-0.67483 1.217854,-0.14313 1.464617,-0.41186 0.581697,-0.63345 -0.677774,-0.17011 -2.38263,0.0374 -4.018555,0.48925 -1.446286,0.39942 -3.214111,0.29634 -3.785469,-0.22073 -0.483975,-0.43799 -0.679871,-0.44845 -0.679871,-0.0363 0,0.42935 0.90392,0.99245 2.118162,1.31951 0.55021,0.1482 1.007522,0.27599 1.016248,0.28397 0.0087,0.008 0.830614,-0.22934 1.826414,-0.5274 z"
         id="path33"
         inkscape:connector-curvature="0" />
      <path
         style="fill:#e1aa52;stroke-width:0.21507198"
         d="m 103.77734,166.11289 c -5.552868,-0.50265 -11.063567,-2.55162 -15.63892,-5.8148 -2.542471,-1.81331 -6.832894,-6.25187 -8.5229,-8.81718 -4.049637,-6.14707 -6.787865,-13.63752 -7.783181,-21.29099 -0.146142,-1.12375 -0.33262,-2.33353 -0.414395,-2.6884 l -0.148683,-0.64522 h -2.501513 c -1.939625,0 -2.572551,-0.0725 -2.817776,-0.32261 -0.173946,-0.17743 -2.101583,-3.29815 -4.28364,-6.93493 -2.182056,-3.63678 -4.083931,-6.75277 -4.226384,-6.92442 -0.198395,-0.23904 -0.392025,-0.26151 -0.827382,-0.096 -1.538061,0.58477 -3.975958,0.83585 -8.108723,0.83511 -3.985,-6.4e-4 -4.355728,-0.0339 -5.039392,-0.45064 -1.861675,-1.13493 -4.843823,-4.23328 -6.683335,-6.94376 -1.071228,-1.57843 -1.165448,-2.65592 -0.292299,-3.34274 0.311676,-0.24517 0.759969,-0.44576 0.996206,-0.44576 0.236237,0 0.731292,-0.18347 1.100123,-0.40772 0.875773,-0.53247 3.246163,-0.81396 3.697809,-0.43912 0.180277,0.14962 0.708283,1.06927 1.173347,2.04367 0.588074,1.23214 1.10183,1.97461 1.687074,2.43813 0.462827,0.36656 0.936665,0.66648 1.052974,0.66648 0.123356,0 0.166099,-0.40254 0.102579,-0.96609 -0.16864,-1.49617 0.0337,-1.61477 2.754868,-1.61477 1.278969,0 3.033397,-0.14951 3.898728,-0.33225 2.453255,-0.51806 4.721673,-0.63928 5.387043,-0.28787 0.532557,0.28127 1.732999,2.06532 7.363619,10.94357 2.059938,3.24807 2.870577,4.49823 3.459291,5.33488 0.275552,0.39161 0.514297,0.48198 1.136382,0.43015 l 0.78754,-0.0656 0.04554,-2.15072 c 0.247449,-11.68659 2.1935,-21.155307 5.913611,-28.773322 1.986493,-4.067927 3.458226,-6.223213 6.156917,-9.016529 4.139378,-4.284517 7.702284,-6.383832 13.321179,-7.849032 2.283043,-0.595334 2.373027,-0.601427 8.651663,-0.58583 8.49561,0.0211 12.81753,0.643538 17.02473,2.451874 3.39518,1.459313 5.24482,3.196026 6.76325,6.350316 1.01909,2.117012 1.51867,4.297474 2.11887,9.248095 1.06162,8.75656 1.76293,12.087348 3.66799,17.420828 2.46673,6.90598 2.61741,7.44658 3.35679,12.04403 0.24731,1.53777 0.51208,2.90343 0.58839,3.03481 0.31771,0.54701 9.99942,9.33183 10.28457,9.33183 0.17103,0 0.76488,-0.34751 1.31966,-0.77224 0.97109,-0.74347 1.06479,-0.76934 2.51419,-0.69424 1.30658,0.0677 1.84179,0.24024 4.0506,1.30586 2.98931,1.44216 5.6624,3.06392 5.95677,3.61396 0.32683,0.61069 0.24688,1.43531 -0.22973,2.36955 -0.24105,0.4725 -0.38968,0.93772 -0.33028,1.03383 0.0594,0.0961 1.4422,1.07548 3.07291,2.17639 1.6307,1.10091 3.19209,2.20454 3.46975,2.45252 0.74179,0.66247 1.32327,1.92971 1.32327,2.88382 0,1.59704 -1.67225,3.26645 -3.27202,3.26645 -1.07964,0 -1.34581,-0.15134 -3.88241,-2.20749 l -2.10829,-1.70898 -1.03065,0.96405 c -0.56686,0.53023 -1.21684,1.0274 -1.44442,1.10483 -0.22757,0.0774 -0.67522,0.5195 -0.99477,0.98238 -0.31955,0.46288 -0.85186,1.01146 -1.1829,1.21907 -0.33104,0.2076 -1.05325,0.78966 -1.60491,1.29347 -1.45261,1.32662 -1.893,1.37618 -3.74713,0.42171 -2.0856,-1.07363 -3.88999,-2.94653 -4.09563,-4.25114 -0.12138,-0.77004 -0.40467,-1.20396 -1.59422,-2.44195 -2.51793,-2.62043 -3.0921,-4.47198 -2.03418,-6.55969 0.29572,-0.58358 0.53768,-1.19315 0.53768,-1.35459 0,-0.32922 -4.55458,-4.52404 -5.02042,-4.62386 -0.21829,-0.0468 -0.33847,0.3 -0.44721,1.29043 -0.25837,2.3534 -0.95069,5.29709 -1.94715,8.27915 -4.23753,12.68146 -13.0401,21.93539 -23.08418,24.26785 -1.65726,0.38485 -6.76573,0.55958 -9.39689,0.3214 z m 9.5707,-2.49961 c 7.17954,-1.84197 13.78225,-7.63997 18.26236,-16.03662 1.99559,-3.74014 3.48792,-8.16781 4.44661,-13.19284 0.50658,-2.65526 0.57717,-3.57003 0.5975,-7.74259 0.0176,-3.60917 -0.0661,-5.25116 -0.35264,-6.92189 -0.58311,-3.39953 -1.55331,-6.98647 -2.72042,-10.05771 -2.38112,-6.26591 -3.27445,-10.160852 -4.31875,-18.829882 -0.9078,-7.535868 -1.64186,-9.888386 -3.83262,-12.282868 -3.21421,-3.513089 -9.20845,-4.994896 -20.25477,-5.007082 l -5.914482,-0.0065 -2.580863,0.685615 c -5.93258,1.57601 -11.01837,5.120048 -14.614569,10.18418 -0.704057,0.991445 -1.613506,2.181574 -2.020997,2.644727 -0.866634,0.985014 -3.142272,5.634176 -4.107098,8.390858 -1.427725,4.079273 -2.494134,8.681182 -3.168287,13.672212 -0.548096,4.05777 -0.550312,14.18957 -0.004,18.06605 1.465146,10.39533 4.545856,18.57533 9.394217,24.94383 1.603235,2.10591 4.241495,4.79623 5.178208,5.2804 0.406779,0.21026 1.22351,0.73389 1.814958,1.16362 1.500861,1.0905 4.054051,2.59352 4.405627,2.59352 0.199531,0 0.147071,-0.15576 -0.163969,-0.48685 -0.251552,-0.26777 -0.610314,-0.8529 -0.79725,-1.3003 -0.755296,-1.80767 0.696846,-2.84126 3.975575,-2.82968 1.84912,0.007 2.349601,0.10671 5.26927,1.05473 1.77434,0.57614 3.6616,1.12876 4.1939,1.22805 6.29887,1.17489 11.76967,1.11492 13.70327,-0.15022 1.33149,-0.87118 1.25831,0.34593 -0.1,1.6627 -1.16639,1.13075 -1.88353,1.5319 -3.77084,2.1093 -1.44418,0.44182 -6.61489,1.50611 -7.3434,1.5115 -0.24523,0.002 -0.59105,0.10329 -0.76849,0.22552 -0.57491,0.39604 3.4063,-0.011 5.59188,-0.57176 z m -4.21152,-7.60805 c -0.24627,-0.0996 -0.82931,-0.6146 -1.29564,-1.14438 -1.80033,-2.04529 -2.49503,-5.98336 -1.59205,-9.02504 0.78282,-2.63696 2.17158,-3.8479 4.01608,-3.50187 2.41657,0.45335 4.40674,5.23029 3.77283,9.05578 -0.31162,1.88058 -1.2306,3.7158 -2.17324,4.33999 -0.75092,0.49724 -1.8944,0.61273 -2.72798,0.27552 z m -23.949513,-5.0826 c -1.431595,-1.20461 -1.90945,-3.40863 -1.114404,-5.13999 0.505595,-1.10103 1.076568,-1.60122 1.998627,-1.75085 2.361359,-0.3832 4.312105,2.77712 3.319131,5.37719 -0.507553,1.32901 -1.198612,1.89978 -2.445156,2.01956 -0.903468,0.0868 -1.131904,0.0211 -1.758198,-0.50591 z m 40.071533,-8.56262 c -2.44435,-1.08163 -3.57011,-6.64447 -1.75193,-8.65698 1.4745,-1.63209 3.71381,-0.25055 4.68371,2.88962 0.51473,1.66651 0.53835,2.65945 0.0943,3.96274 -0.57343,1.68293 -1.73526,2.3758 -3.02606,1.80462 z m -19.86816,-3.90952 c -3.15946,-0.57363 -5.587865,-1.79725 -7.637236,-3.84823 -3.820833,-3.82384 -5.000875,-10.19637 -2.40403,-12.98238 1.390854,-1.49218 3.224504,-1.70424 7.948986,-0.91934 3.4792,0.57803 6.08662,0.58097 8.97501,0.0101 4.72481,-0.93375 6.44552,-0.53354 7.59622,1.76681 0.5325,1.0645 0.60681,1.45297 0.60681,3.17197 0,3.51522 -1.16552,6.31396 -3.68695,8.85345 -1.70976,1.722 -3.60309,2.87077 -5.80694,3.52335 -1.18355,0.35045 -4.57929,0.60807 -5.59187,0.42423 z M 82.592751,126.1759 c -2.173389,-0.86557 -3.537472,-5.60807 -2.312024,-8.03821 0.647238,-1.28351 1.783699,-1.88689 2.676147,-1.42083 1.364896,0.71278 2.24222,2.09033 2.763916,4.33984 0.29795,1.28473 0.297087,1.55084 -0.0089,2.75068 -0.186321,0.73059 -0.558224,1.54911 -0.826455,1.81893 -0.493242,0.49617 -1.700286,0.78552 -2.29268,0.54959 z m 43.014399,-2.58108 c -1.37014,-0.53063 -2.58105,-3.02232 -2.5807,-5.31028 2.2e-4,-1.56985 1.02488,-3.70405 1.96888,-4.10098 2.42417,-1.01928 4.57632,3.20508 3.60272,7.0716 -0.42025,1.66898 -1.84496,2.78347 -2.9909,2.33966 z M 96.895037,107.92587 c -1.537752,-0.77232 -2.474463,-2.49157 -2.472128,-4.53736 0.0017,-1.51743 0.324903,-2.46448 1.183118,-3.467109 1.619442,-1.891954 3.833359,-1.985336 5.622003,-0.237134 2.06446,2.017773 2.0337,5.548373 -0.0656,7.533033 -1.11623,1.05527 -2.965632,1.36236 -4.267363,0.70857 z m 0.215072,-1.39387 c 0,-0.17419 -0.169369,-0.34933 -0.376376,-0.3892 -0.264076,-0.0509 -0.376376,0.0653 -0.376376,0.3892 0,0.32393 0.1123,0.44006 0.376376,0.3892 0.207007,-0.0399 0.376376,-0.215 0.376376,-0.3892 z m 4.140771,-4.98058 c 0.54925,-1.15148 -0.45678,-2.230739 -1.438459,-1.54315 -0.484318,0.33923 -0.57861,1.13886 -0.214519,1.81918 0.332529,0.62133 1.302168,0.45942 1.652978,-0.27603 z m 15.60535,4.3471 c -1.04507,-0.47447 -2.10935,-1.82143 -2.45581,-3.10809 -0.74559,-2.76892 1.08418,-5.959994 3.61188,-6.299029 2.53791,-0.340405 4.82814,2.418445 4.51835,5.442879 -0.19773,1.93049 -1.19913,3.38914 -2.78024,4.04978 -1.0438,0.43612 -1.794,0.41395 -2.89418,-0.0855 z m 0.0758,-1.20909 c 0.17925,-0.46713 -0.27582,-0.90642 -0.60155,-0.58069 -0.2753,0.2753 -0.10475,0.91776 0.24363,0.91776 0.12572,0 0.28678,-0.15168 0.35792,-0.33707 z m 3.89567,-4.729318 c 0.68402,-0.479112 0.64226,-1.483298 -0.0814,-1.957463 -0.66349,-0.434733 -1.16229,-0.219969 -1.46568,0.631069 -0.14658,0.411191 -0.10406,0.694282 0.16627,1.106848 0.41928,0.639904 0.7138,0.686734 1.38081,0.219546 z m -38.772639,4.009758 c -1.037357,-0.45607 -2.258256,-2.50102 -2.258256,-3.78249 0,-0.726945 0.618771,-2.263578 1.148973,-2.853323 0.241069,-0.268141 0.793114,-0.593831 1.226766,-0.723756 0.648629,-0.194335 0.928481,-0.169784 1.578,0.138433 1.06706,0.506353 1.562382,1.19482 1.879673,2.612624 0.348382,1.556742 0.01394,2.913622 -0.960606,3.897212 -0.741099,0.74799 -1.846849,1.04881 -2.61455,0.7113 z M 107.91747,88.663799 c -0.9501,-0.553385 -1.31194,-2.453655 -0.69455,-3.647565 0.60096,-1.162122 3.16216,-2.07524 6.39287,-2.279184 1.75758,-0.11095 3.1042,0.0039 5.7005,0.486163 l 0.69898,0.129837 v -0.999143 c 0,-1.75743 0.68557,-2.83619 2.105,-3.31228 2.04569,-0.686142 4.1129,2.083185 3.49079,4.67642 -0.13665,0.569635 -0.52157,1.36284 -0.85537,1.762678 -0.54179,0.648982 -0.72287,0.726975 -1.68782,0.726975 -0.78363,0 -1.26092,-0.133088 -1.73544,-0.483912 -0.99383,-0.734769 -2.69535,-0.68447 -6.80149,0.20106 -1.57881,0.340487 -3.58007,1.300915 -4.56513,2.190857 -0.8849,0.799459 -1.38639,0.933644 -2.04834,0.548094 z m -6.65974,-1.233759 c -2.308182,-1.979184 -5.639156,-2.915464 -9.954565,-2.798058 -2.42397,0.06595 -2.580863,0.04517 -2.580863,-0.341756 0,-0.60661 2.332079,-1.721849 4.355627,-2.082933 3.629053,-0.647571 8.205181,-0.139861 9.917141,1.10028 1.45852,1.056548 1.66454,3.143714 0.41416,4.195841 -0.81683,0.687323 -1.28289,0.671427 -2.1515,-0.07337 z m 0.92528,-5.02236 c -2.426372,-1.657431 -2.209592,-5.890499 0.35767,-6.984183 0.59418,-0.253131 0.80528,-0.253361 1.40801,-0.0015 1.99967,0.835516 2.877,3.794876 1.76343,5.94829 -0.70589,1.365043 -2.34438,1.846692 -3.52911,1.037417 z m 51.54042,67.37194 c 0.27138,-0.40403 0.861,-0.89917 1.31026,-1.10031 0.49954,-0.22365 1.125,-0.79464 1.61012,-1.46989 0.4363,-0.6073 0.93524,-1.10418 1.10875,-1.10418 0.17352,0 0.66602,-0.30777 1.09445,-0.68393 0.79949,-0.70197 0.83987,-0.92371 0.41392,-2.27331 -0.22991,-0.72846 0.2836,-0.61321 1.43735,0.32261 3.68216,2.98663 5.38458,4.25677 5.88481,4.39055 0.70039,0.18731 1.35961,-0.0444 1.93091,-0.67855 0.53414,-0.59294 0.54921,-2.09747 0.029,-2.89147 -0.19832,-0.30267 -1.76255,-1.48035 -3.47607,-2.61708 -1.71353,-1.13673 -3.16895,-2.15326 -3.23427,-2.25895 -0.15079,-0.24398 -0.95367,-0.25299 -0.95367,-0.0107 0,0.20734 -1.66411,2.74425 -2.15072,3.27873 -0.17744,0.19489 -0.69135,0.89942 -1.14203,1.56562 -0.53527,0.79124 -0.96781,1.21127 -1.24734,1.21127 -0.70542,0 -1.60888,-0.57959 -2.33752,-1.49957 -0.37781,-0.47702 -0.92126,-0.92612 -1.20766,-0.99801 -0.60231,-0.15117 -1.41804,0.31009 -1.92988,1.09126 -0.33279,0.5079 -0.3107,0.56201 0.74976,1.83628 0.60096,0.72212 1.09265,1.35632 1.09265,1.40932 0,0.27985 -0.51324,-0.003 -1.57882,-0.87145 -1.32135,-1.07637 -1.77525,-1.17376 -2.46699,-0.5293 -1.04916,0.97744 -0.31573,2.22652 2.32524,3.96008 1.44318,0.94732 2.06036,0.92951 2.73779,-0.079 z m -4.99605,-4.93304 c 0.41507,-0.16909 0.78687,-0.56913 1.04234,-1.12148 0.40964,-0.8857 1.67157,-1.9213 2.3412,-1.9213 0.24388,0 0.38022,-0.16331 0.38022,-0.45544 0,-0.64138 1.5391,-2.12542 2.20428,-2.12542 0.4382,0 0.61469,-0.19342 0.98121,-1.07536 0.33109,-0.79669 0.56145,-1.07536 0.88896,-1.07536 0.56185,0 0.55505,0.12866 -0.081,1.53328 -0.2877,0.63532 -0.64361,1.7494 -0.79091,2.47574 -0.22507,1.10981 -0.21739,1.45312 0.0481,2.15072 0.17376,0.45655 0.43054,0.8301 0.57061,0.8301 0.51714,0 5.42686,-7.39208 5.42686,-8.17068 0,-0.86564 -6.79338,-4.53395 -8.84685,-4.77715 -0.80704,-0.0956 -1.16741,-0.0244 -1.77417,0.35064 -0.94924,0.58667 -1.99377,1.88607 -2.35512,2.92982 -0.22641,0.65397 -0.45079,0.86094 -1.27086,1.17223 -1.60274,0.60839 -2.5385,1.29088 -3.19992,2.33382 -0.93487,1.47414 -0.85833,2.4575 0.31453,4.04071 1.0146,1.36958 3.07363,3.38514 3.32135,3.25122 0.0847,-0.0458 0.44431,-0.20152 0.79918,-0.34609 z m 6.22331,-3.95683 c 0.21328,-0.75109 -0.25406,-0.8079 -0.88456,-0.10754 -0.75553,0.83925 -0.76673,1.00324 -0.14004,2.04962 l 0.608,1.01516 0.12432,-1.1829 c 0.0684,-0.65059 0.1999,-1.44905 0.29228,-1.77434 z m -8.89503,-6.20921 c 1.27431,-0.66321 2.07424,-1.62507 1.84604,-2.21974 -0.17459,-0.45496 -8.31221,-8.07783 -8.62331,-8.07783 -0.43806,0 -0.4706,0.30586 -0.34496,3.24261 l 0.11571,2.70491 2.6884,2.49993 c 1.47862,1.37496 2.76495,2.50472 2.85852,2.51057 0.0936,0.006 0.75038,-0.29134 1.4596,-0.66045 z m -76.555416,-9.00713 h 1.47862 v -1.48792 c 0,-1.9458 -0.1002,-2.16831 -0.976435,-2.16831 -0.586942,0 -0.857692,0.17372 -1.508401,0.96783 -0.436183,0.5323 -0.926575,0.96782 -1.089759,0.96782 -0.368263,0 -0.369836,0.0415 0.05649,-1.49193 l 0.353193,-1.27037 -3.179441,-5.55492 c -3.940394,-6.88441 -4.243662,-7.37783 -4.454463,-7.24755 -0.09342,0.0577 -0.169857,0.38331 -0.169857,0.7235 0,0.86256 -0.306928,1.57911 -0.953238,2.22542 -0.303746,0.30375 -0.552266,0.61292 -0.552266,0.68705 0,0.0741 1.857606,3.23231 4.128014,7.01817 4.101605,6.83935 4.132048,6.88258 4.758467,6.7573 0.34675,-0.0694 1.295832,-0.12609 2.109073,-0.12609 z M 52.035839,111.7947 c 4.252652,-0.52649 5.712172,-1.33057 5.975241,-3.2919 0.09842,-0.73375 0.05674,-0.89544 -0.230824,-0.89544 -0.377195,0 -0.469347,-0.43001 -0.163622,-0.7635 0.396823,-0.43287 0.443855,-1.31158 0.09672,-1.80718 -0.330325,-0.4716 -0.439349,-0.49129 -1.983589,-0.35813 -0.89873,0.0775 -2.359923,0.23163 -3.247095,0.34252 -0.887171,0.11089 -2.411494,0.20586 -3.387383,0.21106 -1.620881,0.009 -1.774344,0.0462 -1.774344,0.43463 0,0.50993 0.732066,1.02433 1.983734,1.39391 0.505855,0.14936 0.906902,0.35766 0.891215,0.46289 -0.03603,0.24167 -1.96419,0.94207 -2.596644,0.94322 -0.487708,8.6e-4 -2.185661,-0.91801 -3.380978,-1.82972 -0.413365,-0.31529 -1.047277,-1.26573 -1.635819,-2.45263 -0.878817,-1.7723 -1.498595,-2.44674 -1.498595,-1.63079 0,0.68099 1.44646,2.97792 2.514658,3.99319 1.93439,1.83854 1.691034,2.02915 -0.489132,0.38311 -0.962607,-0.72678 -1.366321,-1.23756 -2.044999,-2.58739 -0.616398,-1.22595 -0.958121,-1.68184 -1.260666,-1.68184 -0.228278,0 -0.475588,0.098 -0.549578,0.21767 -0.217713,0.35226 1.177055,2.57905 2.520826,4.02457 0.684496,0.73633 1.244539,1.38961 1.244539,1.45174 0,0.29766 -0.494051,0.0288 -1.594998,-0.86804 -0.852445,-0.6944 -1.462689,-1.45183 -2.088759,-2.59257 -0.834184,-1.51992 -0.922648,-1.60783 -1.555837,-1.54609 -0.417929,0.0408 -0.696698,0.19934 -0.738476,0.42011 -0.03691,0.19505 0.509853,1.11448 1.215035,2.04318 1.286614,1.69443 5.140772,5.62568 5.945931,6.06488 0.626449,0.34171 4.762732,0.2987 7.833435,-0.0815 z"
         id="path31"
         inkscape:connector-curvature="0" />
      <path
         style="fill:#cd9830;stroke-width:0.21507198"
         d="m 104.20748,166.11161 c -5.623608,-0.50533 -11.35987,-2.60855 -15.851994,-5.81218 -2.556589,-1.82327 -7.046556,-6.46215 -8.733086,-9.02273 -4.010606,-6.08909 -6.675597,-13.41882 -7.784179,-21.40939 -0.131287,-0.94632 -0.288192,-2.04704 -0.348677,-2.44606 l -0.109971,-0.72548 -2.458629,0.0941 c -2.273752,0.087 -2.48963,0.0607 -2.870893,-0.34987 -0.226744,-0.24419 -2.209929,-3.43856 -4.407076,-7.09858 -2.197148,-3.66003 -4.089346,-6.74913 -4.204887,-6.86467 -0.136713,-0.13672 -0.644319,-0.087 -1.453614,0.14237 -2.370164,0.67176 -3.542388,0.79518 -7.544985,0.79438 -3.714715,-6.5e-4 -4.078987,-0.0355 -4.767705,-0.45539 -2.695833,-1.64341 -7.749651,-7.51166 -7.749651,-8.99851 0,-0.74599 0.72641,-1.41144 1.872799,-1.71565 0.497736,-0.13208 0.963164,-0.3343 1.034284,-0.44938 0.07112,-0.11507 0.378521,-0.20922 0.683112,-0.20922 0.304592,0 0.9277,-0.11203 1.384686,-0.24894 1.089739,-0.3265 1.414666,-0.0336 2.538723,2.28873 0.822106,1.69847 1.45793,2.40849 2.787549,3.11281 0.487137,0.25805 0.50666,0.24516 0.356269,-0.23531 -0.380167,-1.21455 -0.381029,-1.71288 -0.0037,-2.12984 0.336074,-0.37136 0.671008,-0.42166 2.807531,-0.42166 1.334263,0 3.115317,-0.14502 3.957898,-0.32226 2.684036,-0.5646 4.325472,-0.62223 4.996703,-0.17541 0.532529,0.35449 2.767494,3.70467 6.932014,10.39098 2.744248,4.406 4.098687,6.33929 4.494661,6.41554 0.213355,0.0411 0.62222,0.0159 0.908586,-0.056 0.513663,-0.12892 0.5207,-0.16463 0.52289,-2.65368 0.0054,-6.1777 1.271744,-15.38725 2.801417,-20.373969 1.539946,-5.02021 3.501435,-9.376669 5.75689,-12.786033 1.484844,-2.244502 5.170483,-6.106655 7.443916,-7.800422 2.743299,-2.043831 6.510668,-3.690493 10.556946,-4.614289 2.398713,-0.547646 12.089403,-0.536073 15.915323,0.01901 8.39088,1.217383 12.78637,3.57855 15.05762,8.088638 1.15499,2.293497 1.6853,4.548105 2.35113,9.995725 1.16253,9.51147 1.92335,12.91604 4.25347,19.03387 0.94133,2.47152 1.79406,5.15776 2.11647,6.66723 0.20918,0.97933 1.05419,5.99554 1.05933,6.28845 0.003,0.16406 0.72106,0.8533 6.02481,5.78204 3.11357,2.89341 4.22876,3.84484 4.50667,3.84484 0.081,0 0.6661,-0.38713 1.30027,-0.86029 1.40284,-1.04666 2.32156,-1.1161 4.40265,-0.33278 1.77572,0.66838 5.24256,2.46311 6.77727,3.50848 1.59325,1.08525 1.78993,1.68144 1.02681,3.11255 -0.31874,0.59775 -0.53658,1.15631 -0.48408,1.24125 0.0525,0.0849 1.53972,1.13391 3.30495,2.33104 1.76522,1.19714 3.45878,2.47287 3.76346,2.83496 0.6818,0.81028 1.09931,2.13195 0.91078,2.88316 -0.21786,0.868 -1.58061,2.23851 -2.49964,2.51386 -1.16666,0.34954 -1.77637,0.0713 -4.26639,-1.94712 -1.17761,-0.95457 -2.2613,-1.73558 -2.4082,-1.73558 -0.27349,0 -1.46934,0.99943 -3.75284,3.13642 -2.07225,1.9393 -3.68766,3.26259 -4.16949,3.41552 -0.73835,0.23434 -3.24937,-1.23608 -4.71207,-2.75932 -1.02958,-1.07221 -1.3126,-1.52183 -1.44272,-2.29201 -0.13333,-0.78919 -0.41808,-1.22403 -1.61486,-2.46604 -1.56617,-1.62537 -2.57822,-3.35661 -2.57822,-4.41036 0,-0.36217 0.29336,-1.23964 0.65191,-1.94993 0.39857,-0.78956 0.58663,-1.4077 0.48391,-1.59062 -0.33142,-0.59025 -4.87429,-4.6332 -5.2061,-4.6332 -0.0913,0 -0.2822,0.84685 -0.42425,1.88188 -0.50728,3.69623 -1.8174,8.13575 -3.61179,12.23908 -1.98561,4.54059 -4.64356,8.48504 -8.02408,11.9079 -4.36597,4.42065 -8.48398,6.84698 -13.66938,8.05399 -1.66103,0.38665 -6.08638,0.55836 -8.59057,0.33334 z m 9.09226,-2.26106 c 2.51359,-0.67306 4.70813,-1.6009 6.50046,-2.74836 8.37909,-5.36432 14.20566,-14.81391 16.47442,-26.71837 0.50713,-2.66098 0.57603,-3.56105 0.59272,-7.74259 0.0143,-3.57247 -0.0724,-5.26815 -0.3536,-6.92189 -0.57653,-3.39004 -1.54528,-6.97118 -2.71944,-10.05276 -2.36551,-6.20826 -3.27194,-10.163408 -4.31653,-18.834832 -0.84783,-7.038028 -1.48474,-9.282739 -3.36737,-11.867884 -2.78523,-3.824539 -9.35338,-5.613959 -20.72002,-5.644945 -5.981382,-0.0163 -6.404386,0.0296 -10.097391,1.095796 -4.991024,1.440944 -10.184729,5.284363 -13.611088,10.07241 -0.677188,0.946316 -1.468167,2.010922 -1.757727,2.365791 -0.732012,0.897117 -2.934595,5.391287 -3.85861,7.873153 -1.563023,4.198196 -2.757333,9.290891 -3.505985,14.949971 -0.459644,3.47445 -0.528794,12.67352 -0.120251,15.99737 1.962344,15.96541 7.652813,27.1684 16.902721,33.27687 2.748736,1.81521 4.996414,3.01015 5.227473,2.7791 0.06614,-0.0661 -0.272533,-0.56651 -0.752619,-1.11192 -1.604684,-1.82301 -1.38476,-3.06626 0.627812,-3.54907 1.334718,-0.32019 4.243256,-0.16541 5.478045,0.29152 1.48358,0.54899 5.76408,1.82611 6.54298,1.95215 3.83213,0.62009 5.17688,0.76014 7.35563,0.76604 2.73029,0.007 4.34295,-0.24716 5.60246,-0.88434 0.60411,-0.30562 0.80652,-0.33691 0.80652,-0.12468 0,0.41598 -1.48074,1.7654 -2.47333,2.25399 -1.71511,0.84423 -5.40174,1.71308 -10.32346,2.43299 -2.24158,0.32788 -2.51357,0.42515 -1.82811,0.65377 1.02294,0.34118 5.56423,0.0111 7.69429,-0.55928 z m -3.75445,-8.09411 c -1.69179,-0.47641 -3.04732,-3.1723 -3.2344,-6.43258 -0.22956,-4.00053 1.13956,-6.66291 3.42402,-6.65835 3.26645,0.007 5.23823,7.12852 3.1379,11.33401 -0.75455,1.51085 -1.95346,2.14387 -3.32752,1.75692 z m -23.491775,-4.68263 c -0.284939,-0.0768 -0.812884,-0.50383 -1.173214,-0.94903 -0.888731,-1.09806 -1.056038,-3.06946 -0.37396,-4.40644 0.511877,-1.00337 0.990729,-1.33367 1.933447,-1.33367 1.046955,0 1.667064,0.41286 2.262045,1.50603 1.456055,2.67526 -0.166926,5.85164 -2.648318,5.18311 z m 38.986905,-9.25262 c -1.08458,-0.66134 -1.89099,-2.55587 -1.98072,-4.6534 -0.12071,-2.82153 0.65883,-3.99258 2.43584,-3.65921 1.9486,0.36556 3.36806,4.95834 2.27589,7.36382 -0.63036,1.38833 -1.50937,1.69372 -2.73101,0.94879 z m -19.65004,-3.58577 c -2.18954,-0.39754 -4.56462,-1.32877 -5.806944,-2.27681 -3.461809,-2.64179 -5.383606,-6.31813 -5.372076,-10.27662 0.0034,-1.16296 0.128396,-1.89427 0.441971,-2.58558 1.207713,-2.66253 2.967978,-3.10536 8.644769,-2.17474 3.47453,0.56959 6.092,0.57236 8.97501,0.009 4.81499,-0.94006 6.59551,-0.46628 7.63972,2.03288 0.46847,1.12121 0.46368,4.24462 -0.009,5.88134 -1.23425,4.2736 -4.64251,7.69876 -8.92156,8.96581 -1.18355,0.35046 -4.57928,0.60808 -5.59187,0.42424 z M 82.079778,125.43934 c -2.209572,-1.73804 -2.523018,-7.38736 -0.461983,-8.32643 0.763075,-0.34768 0.914591,-0.32973 1.652632,0.1958 1.573362,1.12033 2.575253,4.12019 2.115577,6.33443 -0.314641,1.51562 -0.965187,2.24534 -2.001722,2.24534 -0.418199,0 -0.978973,-0.19307 -1.304504,-0.44914 z m 42.774042,-2.84203 c -1.44811,-1.44811 -1.83658,-4.62178 -0.81955,-6.69546 0.73814,-1.50505 1.44647,-1.86579 2.48063,-1.26337 1.12146,0.65329 1.73919,2.00465 1.84504,4.03628 0.10506,2.01654 -0.17634,3.26737 -0.91418,4.06352 -0.75721,0.81704 -1.68434,0.76662 -2.59194,-0.14097 z M 97.21918,107.9216 c -3.403539,-1.52867 -3.730158,-6.73429 -0.551838,-8.795155 1.012221,-0.656337 2.317252,-0.728154 3.446478,-0.189665 0.91265,0.435215 0.96369,0.660851 0.17019,0.752401 -0.841687,0.09711 -1.318697,1.110549 -0.886703,1.883859 0.322354,0.57705 1.144933,0.80724 1.668083,0.4668 0.16448,-0.10704 0.36727,-0.56763 0.45064,-1.02354 l 0.15159,-0.82892 0.45869,0.96782 c 1.00764,2.12611 0.30902,5.1945 -1.44732,6.35679 -1.0271,0.6797 -2.47643,0.85129 -3.45981,0.40961 z m -0.04393,-1.46854 c -0.07866,-0.54865 -0.766781,-0.73465 -0.950139,-0.25682 -0.170087,0.44324 0.287594,0.9904 0.697025,0.83328 0.176191,-0.0676 0.289177,-0.32493 0.253114,-0.57646 z m 20.28645,-0.47212 c -1.91173,-0.56808 -3.02885,-2.26861 -3.02885,-4.61067 0,-1.69478 0.47558,-2.852031 1.56523,-3.808759 1.2145,-1.066342 3.12223,-1.215325 4.41632,-0.344885 l 0.5687,0.382522 -0.74816,0.111218 c -0.56163,0.08349 -0.79723,0.251155 -0.94496,0.672466 -0.44845,1.278986 0.47812,2.289708 1.56555,1.707728 0.33025,-0.17674 0.45208,-0.453766 0.45733,-1.039876 l 0.007,-0.798954 0.4057,0.486386 c 0.9128,1.09434 0.9753,3.565504 0.13104,5.181214 -0.86189,1.64946 -2.76999,2.54451 -4.39505,2.06161 z m -0.45743,-1.49212 c 0,-0.3943 -0.11471,-0.53768 -0.43015,-0.53768 -0.31544,0 -0.43014,0.14338 -0.43014,0.53768 0,0.3943 0.1147,0.53768 0.43014,0.53768 0.31544,0 0.43015,-0.14338 0.43015,-0.53768 z M 81.632306,103.2733 c -0.704666,-0.55429 -1.405347,-2.09288 -1.405347,-3.08592 0,-1.724696 1.25416,-3.333617 2.598566,-3.333617 0.689297,0 1.803871,0.761673 2.116629,1.446453 0.410226,0.898186 0.53298,2.694124 0.243999,3.569744 -0.549176,1.66402 -2.328976,2.36683 -3.553847,1.40334 z M 107.82193,88.161969 c -0.52529,-0.451838 -0.60344,-0.672412 -0.60344,-1.703247 0,-1.595471 0.51533,-2.126591 2.78298,-2.868239 1.5122,-0.494573 2.10424,-0.568687 4.637,-0.580481 2.18201,-0.01015 3.21259,0.08018 4.1475,0.363572 0.68421,0.207401 1.33749,0.319322 1.45173,0.248716 0.11425,-0.07061 0.20808,-0.679163 0.20852,-1.352347 0.001,-1.602806 0.53433,-2.507251 1.68085,-2.850757 0.67352,-0.201791 0.96436,-0.19338 1.45399,0.04205 1.86525,0.896882 2.35236,4.23743 0.85369,5.854515 -0.65487,0.706619 -1.83958,0.763837 -2.8654,0.13839 -0.80403,-0.490213 -3.20619,-0.591142 -4.95376,-0.208136 -0.55511,0.121662 -1.4932,0.327961 -2.08465,0.458443 -1.5786,0.34826 -3.6964,1.360169 -4.65031,2.221963 -0.98872,0.893251 -1.25823,0.924088 -2.0587,0.235555 z m -5.98024,-0.591629 c -0.23658,-0.130525 -0.67244,-0.461574 -0.96858,-0.735664 -1.605924,-1.486341 -5.551955,-2.518527 -9.297818,-2.432085 -1.602415,0.03698 -2.422965,-0.02336 -2.475866,-0.182059 -0.118436,-0.355307 2.437723,-1.49033 4.031851,-1.790283 3.093486,-0.582075 7.718563,-0.155533 9.399793,0.866882 0.90675,0.551426 1.39682,1.336741 1.39682,2.238327 0,1.11948 -0.22829,1.613614 -0.90786,1.965033 -0.72498,0.374899 -0.63509,0.369572 -1.17834,0.06985 z m 0.50517,-5.453352 c -0.76622,-0.416211 -1.47299,-1.936329 -1.47299,-3.1681 0,-3.215614 2.62208,-4.452413 4.33825,-2.046296 0.41136,0.576742 0.50087,0.974833 0.50087,2.227711 0,1.730061 -0.33247,2.551257 -1.21838,3.009378 -0.73852,0.381905 -1.41609,0.374745 -2.14775,-0.02269 z m 51.32417,68.020852 c 0.3151,-0.38444 0.92514,-0.89255 1.35565,-1.12913 0.43051,-0.23657 1.1409,-0.90481 1.57863,-1.48497 0.43773,-0.58015 1.07027,-1.17326 1.40563,-1.318 0.33536,-0.14475 0.88936,-0.56046 1.23109,-0.92379 0.52071,-0.55362 0.60128,-0.78428 0.49744,-1.42416 -0.0682,-0.41996 -0.0743,-0.76355 -0.0136,-0.76355 0.16598,0 2.63015,1.89935 3.75161,2.89169 2.60205,2.30245 3.79566,2.64238 5.01084,1.42701 0.56409,-0.56418 0.66753,-0.82626 0.64994,-1.64678 -0.0286,-1.33415 -0.4834,-1.87525 -3.00425,-3.57423 -1.17511,-0.79199 -2.69339,-1.8324 -3.37396,-2.31202 -1.41349,-0.99614 -1.81465,-1.07102 -2.07941,-0.38813 -0.10319,0.26615 -0.65729,1.11757 -1.23134,1.89205 -0.57405,0.77448 -1.37748,1.88748 -1.7854,2.47333 -0.40792,0.58585 -0.82551,1.12316 -0.92796,1.19401 -0.28555,0.19747 -1.19019,-0.0322 -1.47403,-0.37417 -0.29916,-0.36046 -0.36727,-2.89486 -0.10467,-3.89479 0.16245,-0.61861 0.13357,-0.69898 -0.25119,-0.69898 -0.39756,0 -1.77999,1.31352 -1.76211,1.67429 0.004,0.0846 0.14593,0.39578 0.31498,0.6915 0.44531,0.77898 0.39203,0.91569 -0.20454,0.5248 -0.6136,-0.40204 -1.27287,-0.26692 -2.01969,0.41398 -0.91275,0.83215 -0.9753,1.16113 -0.35985,1.89255 0.68169,0.81015 0.55698,1.03794 -0.22953,0.41927 -0.75881,-0.59688 -1.40316,-0.57458 -2.10164,0.0727 -1.21413,1.12521 -0.51378,2.40893 2.31397,4.24144 1.56059,1.01133 2.06776,1.03369 2.81335,0.12403 z m -4.82754,-5.11233 c 0.46844,-0.23898 0.85172,-0.57744 0.85172,-0.75213 0,-0.52432 1.50831,-2.02786 2.21905,-2.21203 0.49874,-0.12924 0.70568,-0.33757 0.83639,-0.84202 0.2136,-0.8243 1.30623,-1.78132 2.03375,-1.78132 0.44366,0 0.62052,-0.19133 0.99401,-1.07536 0.24988,-0.59145 0.58029,-1.07536 0.73425,-1.07536 0.36338,0 0.38347,-0.0902 -0.3887,1.74477 -0.44779,1.06408 -0.67732,1.97953 -0.69497,2.77174 -0.0288,1.29243 0.39062,2.58087 0.84014,2.58087 0.26337,0 3.05165,-3.83084 4.89494,-6.72518 1.19983,-1.88398 1.13774,-2.06607 -1.19918,-3.51681 -2.81411,-1.74699 -6.29303,-3.30373 -7.38771,-3.30585 -1.42319,-0.003 -3.37229,1.66876 -3.98056,3.41362 -0.1949,0.5591 -0.50673,0.80954 -1.65786,1.33149 -1.6758,0.75984 -2.05358,1.06794 -2.86797,2.33891 -1.0968,1.71172 -0.85185,2.74284 1.27263,5.35704 0.63991,0.78742 2.27902,2.18214 2.56451,2.18214 0.0461,0 0.46711,-0.19554 0.93556,-0.43452 z m -3.06907,-9.96505 c 0.44123,-0.27845 1.00628,-0.57096 1.25566,-0.65003 0.2498,-0.0792 0.63404,-0.54433 0.85562,-1.0357 l 0.4022,-0.89192 -3.00634,-2.89081 c -3.72173,-3.5787 -5.83327,-5.4241 -6.20635,-5.4241 -0.22288,0 -0.29049,0.67376 -0.30831,3.07245 l -0.0228,3.07245 1.01281,0.9718 c 3.28004,3.14718 4.57205,4.28212 4.87477,4.28212 0.18728,0 0.70151,-0.22782 1.14275,-0.50626 z m -74.849324,-9.28921 c 0.334994,-0.1051 0.371915,-2.94453 0.0462,-3.55313 -0.152841,-0.28559 -0.451008,-0.41601 -0.951066,-0.41601 -0.588746,0 -0.875727,0.17209 -1.496614,0.89746 -0.422503,0.4936 -0.828081,0.83756 -0.901283,0.76436 -0.0732,-0.0732 -0.01605,-0.62103 0.127021,-1.21739 l 0.260117,-1.08429 -3.852612,-6.71051 c -3.570012,-6.21828 -4.653906,-7.82267 -4.280958,-6.33673 0.21725,0.8656 -0.261627,2.39009 -0.961366,3.06048 -0.343706,0.3293 -0.624919,0.69179 -0.624919,0.80556 0,0.166 5.860541,10.0574 7.874041,13.28977 l 0.486067,0.78031 2.003266,-0.0978 c 1.101794,-0.0538 2.124242,-0.13572 2.272104,-0.18211 z M 52.004193,112.01369 c 2.862782,-0.35442 4.671733,-0.91519 5.375386,-1.66636 0.878369,-0.93768 1.180036,-2.46322 0.584779,-2.95724 -0.243638,-0.2022 -0.265328,-0.34216 -0.08643,-0.55772 0.131358,-0.15828 0.248832,-0.64058 0.261057,-1.07179 0.04195,-1.47989 -0.594317,-1.58727 -5.656314,-0.95458 -0.887171,0.11088 -2.459885,0.20586 -3.494919,0.21105 -1.846359,0.009 -1.88188,0.0193 -1.88188,0.53152 0,0.6441 0.830675,1.33111 1.985435,1.64205 0.962924,0.25929 0.930285,0.37704 -0.215106,0.77597 -1.114084,0.38803 -1.424611,0.36008 -2.583999,-0.23258 -1.741769,-0.89037 -2.664325,-1.86269 -3.663679,-3.86129 -0.918408,-1.83673 -1.209552,-2.10632 -1.721659,-1.59421 -0.144662,0.14466 -0.586762,0.23513 -0.982443,0.20104 -0.496122,-0.0427 -0.759518,0.0425 -0.848603,0.27466 -0.08612,0.22442 -0.403875,0.33664 -0.953204,0.33664 -0.848618,0 -1.340196,0.29654 -1.340196,0.80846 0,0.55934 2.544524,3.61601 5.011416,6.02007 l 2.482788,2.41956 H 46.8268 c 1.402596,0 3.732423,-0.14636 5.177393,-0.32525 z M 40.561542,106.4091 c -0.308511,-0.30851 -0.456922,-0.73739 -0.255169,-0.73739 0.04554,0 0.241336,0.24196 0.435102,0.53768 0.400011,0.6105 0.319837,0.69948 -0.179933,0.19971 z m 1.465967,-0.85164 c -0.196185,-0.29941 -0.317577,-0.58351 -0.26976,-0.63133 0.04782,-0.0478 0.24999,0.19716 0.449274,0.5444 0.443838,0.77334 0.312053,0.83716 -0.179514,0.0869 z"
         id="path29"
         inkscape:connector-curvature="0" />
      <path
         style="fill:#a7561f;stroke-width:0.21507198"
         d="m 103.77734,165.89766 c -4.845619,-0.43824 -10.151563,-2.16901 -13.747224,-4.48428 -3.722999,-2.39727 -8.020075,-6.62226 -10.399582,-10.22513 -4.36486,-6.60894 -6.615351,-13.21517 -7.898337,-23.18523 -0.189128,-1.46971 -0.380822,-1.55636 -3.099121,-1.40083 -2.73188,0.15631 -2.365123,0.39986 -4.31352,-2.86443 -0.741353,-1.24204 -2.245235,-3.75838 -3.341958,-5.59187 -1.096725,-1.83349 -2.319549,-3.89394 -2.717389,-4.57878 -0.819315,-1.41036 -0.569126,-1.36494 -3.841887,-0.6974 -1.14021,0.23257 -2.915539,0.32909 -6.05647,0.32927 l -4.443431,2.5e-4 -1.14844,-0.90643 c -1.726719,-1.36285 -3.928433,-3.69469 -5.357149,-5.67377 -1.042544,-1.44415 -1.275627,-1.92183 -1.275627,-2.61426 0,-0.95701 0.495088,-1.55914 1.281981,-1.55914 0.272447,0 0.797129,-0.18463 1.16596,-0.4103 0.368831,-0.22567 1.304407,-0.47681 2.079056,-0.5581 1.660838,-0.17428 1.596915,-0.2253 2.777984,2.217 0.636102,1.31538 1.064289,1.89277 1.846686,2.49018 1.168206,0.89199 1.755353,1.03613 1.382462,0.33937 -0.129032,-0.24109 -0.205024,-0.84598 -0.168871,-1.3442 l 0.06573,-0.90583 2.903472,-0.13732 c 1.596909,-0.0755 3.677731,-0.2899 4.624047,-0.47641 1.997851,-0.39374 3.830303,-0.44872 4.420889,-0.13265 0.227578,0.1218 0.574446,0.53312 0.77082,0.91405 0.196373,0.38094 1.468195,2.4347 2.826269,4.56391 1.358076,2.12921 3.14851,4.9359 3.978739,6.23709 2.155968,3.37896 2.373891,3.76376 2.131544,3.76376 -0.23317,0 -3.287162,-4.43513 -6.33662,-9.20229 -1.03763,-1.6221 -1.995423,-2.98626 -2.12843,-3.03146 -0.170533,-0.058 -0.198576,0.24387 -0.09512,1.02378 0.190184,1.43368 -0.131413,2.58129 -0.940615,3.35655 -0.356755,0.34179 -0.648646,0.70905 -0.648646,0.81612 0,0.19692 7.655657,13.01725 8.24787,13.81206 0.290005,0.38922 0.521649,0.42299 2.434705,0.35496 1.162815,-0.0414 2.248059,-0.18486 2.411658,-0.31892 0.230254,-0.18867 0.270752,-0.68185 0.17926,-2.18307 -0.065,-1.06663 -0.225804,-2.21902 -0.357331,-2.56086 -0.192341,-0.49989 -0.17481,-0.69261 0.08958,-0.98476 0.255918,-0.28279 0.329213,-0.93107 0.33094,-2.92716 0.0054,-6.21855 1.267079,-15.41297 2.801417,-20.414903 2.29362,-7.477184 4.95211,-12.310898 9.174616,-16.681457 4.184365,-4.331081 8.094219,-6.539909 13.93792,-7.874071 2.426779,-0.554051 12.943373,-0.541938 16.775613,0.01931 7.79446,1.141559 11.61125,3.030736 14.1221,6.989945 1.23804,1.952176 1.95993,4.80483 2.6442,10.448884 1.14538,9.447376 1.83874,12.566642 4.20703,18.926332 1.64896,4.42802 2.30605,6.9005 2.91508,10.96867 0.19479,1.30119 0.41618,2.47665 0.49198,2.61214 0.31154,0.55687 10.21639,9.53943 10.51889,9.53943 0.18052,0 0.74161,-0.33874 1.24686,-0.75275 0.82544,-0.67638 1.05084,-0.75275 2.22173,-0.75275 1.99073,0 4.91622,1.21916 8.54892,3.56265 1.77824,1.14715 1.79702,1.1686 1.79702,2.05277 0,0.53217 -0.18256,1.18889 -0.45144,1.62394 -0.3443,0.55708 -0.39381,0.79989 -0.20862,1.02302 0.13355,0.16092 1.57067,1.18742 3.1936,2.28111 1.62294,1.09369 3.18103,2.19327 3.46242,2.44352 0.70069,0.62311 1.10141,1.64991 1.10141,2.8222 0,0.84188 -0.11784,1.10939 -0.82059,1.86277 -0.70259,0.75321 -0.97643,0.89469 -1.90429,0.98385 -1.32826,0.12763 -1.52824,0.0254 -4.22333,-2.15924 l -2.11714,-1.71615 -1.00543,0.97473 c -0.55298,0.5361 -1.22425,1.04027 -1.4917,1.12036 -0.26744,0.0801 -0.62543,0.41476 -0.79553,0.74368 -0.31373,0.60669 -1.70868,1.95234 -2.02386,1.95234 -0.0947,0 -0.61391,0.43552 -1.15384,0.96782 -1.25996,1.24216 -1.9196,1.27129 -3.78598,0.16719 -1.92722,-1.1401 -3.42479,-2.78258 -3.61359,-3.96326 -0.12268,-0.7672 -0.42066,-1.21554 -1.70174,-2.5604 -0.85416,-0.89668 -1.75755,-2.03124 -2.00753,-2.52125 -0.63894,-1.25242 -0.60692,-2.81055 0.0832,-4.04661 0.29573,-0.52969 0.53768,-1.09151 0.53768,-1.24848 0,-0.40289 -4.85943,-4.75352 -5.30943,-4.75352 -0.30731,0 -0.43203,0.40629 -0.72624,2.36579 -1.3785,9.18134 -5.55081,17.72138 -11.63063,23.80601 -4.03023,4.0334 -7.81889,6.27823 -12.65885,7.50052 -1.89134,0.47764 -6.82175,0.69045 -9.78577,0.42238 z m 9.11111,-1.73071 c 4.90484,-1.17508 8.86145,-3.60372 13.09725,-8.03934 5.31948,-5.57042 9.06251,-13.47676 10.59942,-22.38901 0.58468,-3.39042 0.70747,-10.1939 0.24067,-13.33446 -0.43984,-2.95907 -1.65088,-7.58913 -2.74619,-10.4992 -2.50031,-6.64295 -3.24498,-9.77668 -4.27685,-17.997833 -0.88372,-7.040716 -1.31107,-9.088788 -2.31119,-11.076206 -2.13151,-4.235674 -5.69815,-6.11222 -13.92845,-7.328291 -2.9723,-0.439173 -11.31359,-0.646973 -13.44199,-0.334869 -6.409004,0.939798 -11.691209,3.568018 -15.714433,7.818887 -7.924241,8.372614 -12.331362,21.607562 -12.348213,37.082702 -0.0154,14.1436 3.757,26.54028 10.670174,35.06383 3.362736,4.14606 7.575857,7.23235 12.60191,9.23145 3.197041,1.27162 4.031333,1.47206 9.307072,2.23607 1.94998,0.28238 6.19266,0.0594 8.25082,-0.43373 z m -8.92342,-26.44494 c -2.29335,-0.60126 -3.990429,-1.55911 -5.788459,-3.26706 -2.477397,-2.35329 -3.747111,-5.25936 -3.752309,-8.58815 -0.004,-2.56757 0.634892,-3.93475 2.220046,-4.75065 1.16381,-0.59903 3.156362,-0.59377 6.868862,0.0181 3.25717,0.53686 5.65601,0.57358 8.00676,0.12256 5.30434,-1.01771 6.77397,-0.80404 7.91913,1.15136 0.83889,1.43244 0.8514,4.80028 0.027,7.2583 -2.02975,6.05159 -9.11004,9.73105 -15.50099,8.05549 z m -6.863819,-29.8737 c -2.340731,-1.06324 -3.338175,-4.36561 -2.065859,-6.8397 1.131352,-2.199977 3.42763,-3.067127 5.193298,-1.961161 l 0.75275,0.471503 -0.64316,0.120896 c -0.89859,0.168913 -1.377198,1.152232 -0.940933,1.933192 0.322354,0.57705 1.144933,0.80724 1.668083,0.4668 0.16448,-0.10704 0.36727,-0.56763 0.45064,-1.02354 l 0.15159,-0.82892 0.45869,0.96782 c 0.91765,1.93623 0.47957,4.51758 -1.00439,5.91819 -1.232271,1.16307 -2.590089,1.42476 -4.020709,0.77492 z m 0.0089,-1.33423 c 0,-0.37518 -0.118829,-0.51976 -0.427197,-0.51976 -0.504675,0 -0.718158,0.72315 -0.292948,0.99233 0.444928,0.28165 0.720145,0.10105 0.720145,-0.47257 z m 19.775959,-0.71474 c -1.55892,-0.67903 -2.544,-2.56105 -2.42628,-4.63545 0.14267,-2.513937 1.54835,-4.277555 3.56375,-4.471208 1.63531,-0.157133 3.63379,0.877326 2.04947,1.060851 -0.72971,0.08453 -1.10473,0.954412 -0.79427,1.842397 0.38949,1.11404 1.97616,0.7832 2.07358,-0.43237 0.0623,-0.777543 0.42529,-0.638123 0.74777,0.28722 0.39494,1.13326 0.33267,3.18542 -0.12676,4.17775 -0.96422,2.0826 -3.14921,3.01497 -5.08726,2.17081 z m 0.17613,-1.04168 c 0.15191,-0.43549 -0.075,-0.80652 -0.49316,-0.80652 -0.21407,0 -0.43141,0.12098 -0.48299,0.26884 -0.1519,0.43549 0.075,0.80652 0.49317,0.80652 0.21406,0 0.43141,-0.12098 0.48298,-0.26884 z m -9.20282,-16.728853 c -0.38103,-0.616527 -0.5119,-1.639713 -0.30703,-2.400528 0.16887,-0.627141 0.40975,-0.914858 1.03149,-1.232048 2.51737,-1.284266 7.00122,-1.578476 10.50938,-0.689579 2.18635,0.553972 3.21038,1.2017 1.53937,0.973689 -1.01413,-0.13838 -5.06494,0.386693 -6.63942,0.860613 -1.49998,0.451496 -3.03285,1.216993 -4.00089,1.99799 -0.86826,0.700507 -1.8617,0.928668 -2.1329,0.489863 z m -6.468,-1.090645 c -0.57293,-0.633081 -1.949699,-1.407162 -3.374814,-1.897474 -1.819603,-0.626036 -5.387785,-1.163927 -6.844712,-1.031817 -1.942494,0.17614 -1.571333,-0.274223 0.884066,-1.072716 0.94174,-0.306254 1.884439,-0.382833 4.624047,-0.37563 3.0938,0.0081 3.570053,0.06006 4.718133,0.514446 1.74101,0.689054 2.27171,1.25671 2.27171,2.429883 0,0.511359 -0.15066,1.144845 -0.3348,1.407743 -0.43125,0.615688 -1.39807,0.628403 -1.94363,0.02557 z m 51.95549,63.793488 c 0.34062,-0.17614 0.68388,-0.52371 0.7628,-0.77239 0.0789,-0.24867 0.46291,-0.58559 0.85329,-0.7487 0.65412,-0.27331 2.25976,-1.88883 2.25976,-2.27368 0,-0.0915 0.42025,-0.35219 0.93388,-0.57939 1.06417,-0.47073 1.86206,-1.4502 1.86206,-2.28581 v -0.56919 l 0.80652,0.59051 c 0.44359,0.32478 1.3625,1.06177 2.04204,1.63776 3.21279,2.72322 4.37212,3.09013 5.66829,1.79396 0.60791,-0.60792 0.73111,-0.88904 0.73044,-1.66681 -4.3e-4,-0.52711 -0.17279,-1.21759 -0.39475,-1.58154 -0.23262,-0.38145 -1.81565,-1.60309 -3.86568,-2.98318 -1.90946,-1.28546 -3.59007,-2.47977 -3.73469,-2.65403 -0.21271,-0.2563 -0.14923,-0.51913 0.33228,-1.37571 0.32737,-0.58239 0.56451,-1.27341 0.52698,-1.53561 -0.0899,-0.62791 -3.1916,-2.60205 -6.14833,-3.91322 -2.68836,-1.19215 -3.99245,-1.30136 -5.25942,-0.44043 -0.86396,0.58708 -1.91747,1.9938 -2.24653,2.99975 -0.14391,0.43994 -0.40176,0.68587 -0.83842,0.79966 -1.29396,0.33719 -2.96331,1.54745 -3.63387,2.63451 -1.00887,1.6355 -0.92341,2.65858 0.37392,4.47663 0.56477,0.79146 1.55679,1.89653 2.20449,2.45571 1.10968,0.95802 1.17763,1.07394 1.17763,2.00884 0,0.84175 0.10596,1.09134 0.69898,1.64648 0.92537,0.86625 2.01098,1.64739 3.06159,2.20292 1.02111,0.53993 1.03745,0.54112 1.82674,0.13296 z m -7.57245,-15.45612 c 0.44124,-0.27844 1.02163,-0.57583 1.28977,-0.66086 0.43805,-0.1389 1.34059,-1.50901 1.34059,-2.0351 0,-0.45705 -9.5601,-9.12071 -9.70571,-8.79561 -0.0151,0.0337 -0.0591,1.53046 -0.0977,3.32607 l -0.0702,3.26473 2.88864,2.70351 c 1.58875,1.48694 3.03799,2.70352 3.22052,2.70352 0.18253,0 0.69289,-0.22782 1.13413,-0.50626 z M 52.052531,112.45818 c 3.129899,-0.35695 4.937293,-0.90199 5.846654,-1.76311 0.931868,-0.88244 1.040554,-1.33208 0.88701,-3.66959 -0.117257,-1.78507 -0.208968,-2.16107 -0.629743,-2.58184 -0.601595,-0.6016 -1.635803,-0.64111 -3.953202,-0.15102 -0.887172,0.18762 -2.871211,0.4053 -4.408975,0.48373 -2.608535,0.13305 -2.800199,0.17242 -2.85953,0.58737 -0.08141,0.56932 0.923239,1.58754 1.72449,1.74779 0.940815,0.18817 0.898557,0.42607 -0.13844,0.77941 -0.915708,0.31201 -0.989944,0.30376 -1.989579,-0.22117 -1.86676,-0.98027 -2.666404,-1.80426 -3.727028,-3.84051 -0.879693,-1.68888 -1.063778,-1.91343 -1.521841,-1.85632 -1.645224,0.20512 -2.142926,0.3317 -2.367303,0.60205 -0.137304,0.16545 -0.569619,0.30081 -0.9607,0.30081 -0.774426,0 -1.386995,0.46183 -1.386995,1.04568 0,0.96035 5.115635,6.88663 7.023976,8.13702 1.107322,0.72555 4.287074,0.87576 8.461206,0.3997 z m 16.862715,7.56959 -0.40971,-0.48391 0.483912,0.40971 c 0.454757,0.38502 0.581822,0.55811 0.40971,0.55811 -0.04081,0 -0.258572,-0.21776 -0.483912,-0.48391 z"
         id="path27"
         inkscape:connector-curvature="0" />
      <path
         style="fill:#983503;stroke-width:0.21507198"
         d="m 103.77734,165.68275 c -11.348471,-1.02729 -20.712255,-7.72438 -26.428577,-18.90205 -2.856961,-5.58649 -4.392342,-10.9225 -5.399776,-18.76623 -0.07012,-0.5459 -0.260682,-1.17472 -0.423483,-1.39736 -0.21322,-0.29159 -0.231753,-0.48222 -0.06627,-0.68161 0.154077,-0.18565 0.178043,-1.07115 0.07278,-2.68901 -0.08632,-1.32671 -0.141907,-2.50899 -0.12352,-2.62728 0.01839,-0.11828 0.104437,-1.76359 0.19122,-3.65622 l 0.157792,-3.44115 0.04507,4.30144 c 0.117829,11.24445 2.014284,20.06003 6.04086,28.08065 2.968832,5.91369 6.763417,10.39734 11.416545,13.48969 3.093283,2.05573 7.3932,4.1169 9.89331,4.74238 1.537879,0.38475 6.398739,0.89573 8.504019,0.89395 7.2847,-0.006 14.03003,-3.41138 19.53924,-9.864 4.49185,-5.26104 7.84599,-12.29373 9.24499,-19.38416 0.75509,-3.82698 0.86604,-5.01468 0.87395,-9.35563 0.0121,-6.6513 -0.65555,-10.11087 -3.42437,-17.74344 -2.1542,-5.93828 -2.95285,-9.435439 -3.88019,-16.990685 -0.8561,-6.974831 -1.20469,-8.633264 -2.28971,-10.893337 -0.47187,-0.982894 -1.17411,-1.940542 -2.10968,-2.877011 -2.10901,-2.111034 -4.46736,-3.227475 -8.55486,-4.049874 -4.11349,-0.827627 -6.07024,-0.989636 -11.98891,-0.992613 -5.652304,-0.0028 -5.868651,0.01297 -8.124156,0.593924 -8.152161,2.099747 -14.660164,7.706693 -19.024867,16.3908 -3.304195,6.574102 -4.798417,12.277196 -5.944851,22.690096 -0.04558,0.41401 -0.04022,-0.21508 0.01192,-1.39797 0.320392,-7.27018 2.391815,-15.711757 5.356668,-21.829806 4.455464,-9.193955 10.479827,-14.442713 19.181177,-16.711703 2.283043,-0.595334 2.373027,-0.601427 8.651659,-0.58583 6.68558,0.0166 9.38178,0.262192 13.33113,1.214281 3.80461,0.917192 7.17639,2.805218 8.68849,4.865107 1.88813,2.572142 2.69722,5.273108 3.45709,11.540753 1.06244,8.763329 1.76514,12.098838 3.67007,17.420828 2.2521,6.2919 2.87705,8.56515 3.45887,12.58171 l 0.35828,2.47333 1.53031,1.44862 c 1.6875,1.59741 1.75767,1.95537 0.11346,0.57875 -0.57551,-0.48185 -1.12957,-0.82468 -1.23123,-0.76186 -0.10166,0.0628 -0.19451,1.66487 -0.20634,3.56008 l -0.0215,3.44584 2.90617,2.74659 c 1.59839,1.51062 3.09887,2.85028 3.33439,2.97701 0.38715,0.20833 0.39539,0.25768 0.0859,0.51456 -0.18829,0.15627 -0.36742,0.24615 -0.39805,0.19972 -0.0306,-0.0464 -0.19576,-0.36167 -0.36696,-0.70054 -0.1712,-0.33887 -0.5927,-0.82278 -0.93668,-1.07536 -0.34398,-0.25258 -1.07174,-0.9145 -1.61726,-1.47092 -1.11153,-1.13376 -2.46618,-2.10686 -2.93295,-2.10686 -0.34819,0 -0.42154,0.26126 -0.75477,2.6884 -0.52048,3.79109 -2.0331,8.64743 -3.9554,12.69897 -4.62269,9.74308 -12.1833,16.55904 -20.51407,18.49363 -1.65726,0.38485 -6.76573,0.55957 -9.39689,0.3214 z m 47.16769,-14.90226 c -1.40321,-0.79871 -2.32518,-1.47828 -2.32518,-1.71387 0,-0.0894 0.4501,0.18097 1.00022,0.60089 1.24996,0.95411 2.49943,1.59946 3.09676,1.59946 0.25996,0 0.8645,-0.41836 1.39851,-0.96782 0.51734,-0.53231 1.03357,-0.96783 1.14717,-0.96783 0.22602,0 -0.7294,1.0064 -1.62185,1.70841 -0.76662,0.60302 -1.26497,0.5551 -2.69563,-0.25924 z m 5.33783,-2.12219 c 0.37025,-0.39872 0.78936,-0.9509 0.93137,-1.22707 0.142,-0.27616 0.56494,-0.63117 0.93986,-0.7889 0.73421,-0.30889 1.65545,-1.20088 2.06836,-2.00271 0.21353,-0.41464 0.3109,-0.45253 0.58287,-0.22681 0.2869,0.23811 0.27375,0.2905 -0.10848,0.4319 -0.23924,0.0885 -0.54425,0.36507 -0.6778,0.61461 -0.13355,0.24953 -0.75894,0.78386 -1.38977,1.1874 -0.63083,0.40353 -1.34505,1.05168 -1.58715,1.44031 -0.2421,0.38864 -0.66344,0.83927 -0.93631,1.00142 -0.39357,0.23386 -0.35698,0.14495 0.17705,-0.43015 z m 9.06391,-0.34726 c -0.3225,-0.19999 -0.63436,-0.48867 -0.69301,-0.64151 -0.0587,-0.15284 0.18017,-0.0659 0.53073,0.19333 0.35055,0.25917 1.04953,0.53831 1.55329,0.62032 l 0.91594,0.14909 -0.86029,0.0212 c -0.47316,0.0117 -1.12416,-0.14243 -1.44666,-0.34242 z m 2.41448,0.0755 c 0,-0.0465 0.1502,-0.14216 0.33378,-0.21261 0.1914,-0.0735 0.27773,-0.0374 0.20238,0.0845 -0.1263,0.20436 -0.53616,0.30227 -0.53616,0.12808 z m -20.6313,-1.77072 c -0.19127,-0.75957 -0.55781,-1.30223 -1.54936,-2.29378 -0.71435,-0.71435 -1.45995,-1.54835 -1.65688,-1.85334 -0.19693,-0.30498 0.49962,0.3302 1.54788,1.41152 1.69263,1.746 1.9133,2.06478 1.97174,2.8483 0.0362,0.48524 0.0369,0.88226 0.002,0.88226 -0.0354,0 -0.17707,-0.44774 -0.31486,-0.99496 z m 22.06151,0.56481 c 0.0944,-0.17743 0.23384,-0.75813 0.30982,-1.29043 l 0.13815,-0.96782 0.0287,0.87295 c 0.0169,0.51265 -0.111,1.04526 -0.30982,1.29043 -0.1862,0.22961 -0.2613,0.27231 -0.16688,0.0949 z m -7.0784,-1.43231 c -0.81197,-0.57773 -1.12336,-1.12078 -0.42759,-0.74572 0.37987,0.20477 1.49928,1.31774 1.32536,1.31774 -0.0516,0 -0.45559,-0.25741 -0.89777,-0.57202 z m -0.65805,-7.32806 c -0.098,-0.15591 0.059,-0.5971 0.38142,-1.07152 0.73826,-1.08644 0.72259,-2.0393 -0.0434,-2.6403 -0.32529,-0.25522 -0.44627,-0.39374 -0.26884,-0.30783 1.1414,0.55265 1.39284,1.61069 0.66603,2.8026 -0.22425,0.36776 -0.44392,0.85167 -0.48815,1.07536 -0.0569,0.28781 -0.12914,0.32923 -0.24703,0.14169 z m -57.57013,-0.99271 c -2.48637,-0.65888 -3.918964,-1.47819 -5.699411,-3.25952 -2.333082,-2.33425 -3.548688,-5.22509 -3.548688,-8.43915 0,-3.35787 1.399435,-4.79127 4.669247,-4.78257 0.921452,0.002 2.836762,0.196 4.256242,0.4301 3.2679,0.53894 5.65069,0.53862 8.62021,-0.001 3.12464,-0.56796 5.13589,-0.56811 6.06696,-4.3e-4 1.07216,0.65369 1.58149,2.0486 1.58149,4.33129 0,5.77232 -4.10034,10.70969 -9.88433,11.90209 -2.15412,0.44408 -3.90064,0.39203 -6.06172,-0.18064 z m 42.74197,-2.31764 c 0.14589,-0.14698 0.31943,-0.21306 0.38565,-0.14684 0.0662,0.0662 -0.0531,0.18648 -0.26526,0.26724 -0.30652,0.11672 -0.33122,0.092 -0.12039,-0.1204 z m 1.24361,-0.70101 c 0.45008,-0.68691 0.57877,-0.72039 0.34554,-0.0899 -0.0962,0.26006 -0.29626,0.51328 -0.44458,0.56272 -0.17313,0.0577 -0.13767,-0.11157 0.099,-0.47283 z m 10.80825,-1.50892 c -2.13349,-1.16683 -2.44594,-1.48338 -0.48816,-0.49457 1.32096,0.66718 2.56821,1.44895 2.25825,1.41546 -0.0591,-0.006 -0.85569,-0.42079 -1.77009,-0.92089 z m -10.10773,-0.1088 c 0.0697,-0.47484 -0.0177,-0.6861 -0.35967,-0.86909 -0.24847,-0.13298 -0.45175,-0.34628 -0.45175,-0.47401 0,-0.13897 0.20069,-0.10075 0.49968,0.0952 0.27483,0.18008 0.70122,0.36058 0.94754,0.40111 0.43271,0.0712 0.42797,0.0974 -0.14001,0.77394 l -0.58786,0.70023 z m 6.82363,-1.5141 c -0.47316,-0.2239 -0.7635,-0.40775 -0.64521,-0.40856 0.29333,-0.002 1.99051,0.7924 1.72057,0.80534 -0.11829,0.006 -0.6022,-0.17288 -1.07536,-0.39678 z m -4.62404,-0.40621 c 0,-0.33144 0.59915,-0.46804 1.89947,-0.43305 l 1.21907,0.0328 -1.29043,0.12935 c -0.70974,0.0711 -1.41141,0.20728 -1.55927,0.30251 -0.14807,0.0954 -0.26884,0.0812 -0.26884,-0.0316 z m -5.17331,-1.46065 c -0.42737,-0.4496 -0.55906,-0.68095 -0.31103,-0.54641 0.53859,0.29214 1.5114,1.32614 1.24766,1.32614 -0.1075,0 -0.52898,-0.35088 -0.93663,-0.77973 z m -1.81653,-1.58606 c -0.0731,-0.11829 -0.0361,-0.21508 0.0821,-0.21508 0.11829,0 0.27488,0.0968 0.34799,0.21508 0.0731,0.11829 0.0361,0.21507 -0.0822,0.21507 -0.11829,0 -0.27489,-0.0968 -0.34799,-0.21507 z m -1.40955,-1.4295 -0.74117,-0.78427 0.68852,0.49438 c 0.37869,0.27191 0.73859,0.62484 0.79978,0.78428 0.16578,0.43202 0.0659,0.36593 -0.74713,-0.49439 z M 43.759598,112.64969 c -0.410802,-0.32912 -0.410599,-0.33131 0.01266,-0.1366 0.236579,0.10883 0.575317,0.2517 0.752752,0.31749 0.278678,0.10333 0.276954,0.12193 -0.01266,0.1366 -0.184398,0.009 -0.523136,-0.13353 -0.752752,-0.31749 z m 7.665639,0.25681 c 0.04929,-0.0427 0.670308,-0.13167 1.380045,-0.19767 0.801649,-0.0745 1.086772,-0.0533 0.752752,0.0562 -0.531109,0.17407 -2.30629,0.29179 -2.132797,0.14144 z m 3.638301,-0.56756 c 0.735368,-0.2355 1.300803,-0.2355 0.752752,0 -0.236579,0.10167 -0.623709,0.182 -0.860288,0.17852 -0.34579,-0.005 -0.3247,-0.0401 0.107536,-0.17852 z M 42.56193,111.7475 c -0.267522,-0.34112 -0.259914,-0.34873 0.0812,-0.0812 0.207007,0.16235 0.376376,0.33172 0.376376,0.37638 0,0.17701 -0.176614,0.0631 -0.457578,-0.29517 z m 14.563161,0.19102 c -0.07072,-0.11443 0.210829,-0.41782 0.625666,-0.67421 0.414839,-0.25638 0.899354,-0.67331 1.076702,-0.92651 0.177346,-0.25319 0.322447,-0.37797 0.322447,-0.27727 0,0.19414 -1.479005,1.91045 -1.741503,2.02093 -0.0851,0.0358 -0.21259,-0.0285 -0.283312,-0.14294 z m -16.588687,-1.84806 c -0.315439,-0.31543 -0.511937,-0.63511 -0.436661,-0.71039 0.07528,-0.0753 0.39495,0.12123 0.710389,0.43667 0.315439,0.31543 0.511937,0.63511 0.436661,0.71039 -0.07527,0.0753 -0.39495,-0.12123 -0.710389,-0.43667 z m 57.218921,-2.19982 c -0.653023,-0.16693 -0.877625,-0.45951 -0.580695,-0.75644 0.390242,-0.39024 0.309775,-0.98955 -0.167128,-1.24478 -0.337437,-0.18059 -0.514409,-0.13837 -0.857292,0.20451 l -0.432079,0.43208 -0.301632,-0.48092 c -1.161752,-1.85226 -0.843259,-4.89825 0.649132,-6.208152 1.080171,-0.948089 2.801435,-1.330949 3.735718,-0.830935 0.386201,0.206686 0.380631,0.240674 -0.121674,0.742977 -0.955881,0.95588 -0.517332,2.69665 0.679365,2.69665 0.57912,0 1.37353,-0.59393 1.38274,-1.03378 0.0193,-0.92426 0.62303,0.80851 0.62997,1.80821 0.0177,2.54321 -1.32594,4.36791 -3.440962,4.67301 -0.409925,0.0591 -0.938884,0.058 -1.175463,-0.002 z M 47.267179,107.68 c 0.147862,-0.0597 0.26884,-0.24559 0.26884,-0.41317 0,-0.36413 0.1083,-0.37696 0.665379,-0.0788 0.582546,0.31177 0.3096,0.63789 -0.516768,0.61744 -0.37746,-0.009 -0.565313,-0.0658 -0.417451,-0.12545 z m 11.764949,-1.55254 c -0.05351,-0.0535 -0.100372,-0.39571 -0.104134,-0.76043 -0.01075,-1.04228 -0.49633,-1.49395 -1.772758,-1.64898 l -1.123874,-0.13649 0.997766,-0.0303 c 1.168297,-0.0355 1.603906,0.27093 2.414091,1.69797 0.532871,0.93859 0.537413,0.97551 0.120016,0.97551 -0.238596,0 -0.477595,-0.0438 -0.531107,-0.0973 z m 58.133442,-0.37777 c -0.41679,-0.12127 -0.49266,-0.41087 -0.1613,-0.61566 0.33227,-0.20535 0.25409,-1.1219 -0.10754,-1.26067 -0.38289,-0.14693 -0.96782,0.044 -0.96782,0.31586 0,0.47196 -0.45913,0.11811 -0.85592,-0.65966 -0.83649,-1.63965 -0.46849,-4.108634 0.81356,-5.458335 1.09052,-1.148074 2.65586,-1.560435 3.73372,-0.983582 l 0.43701,0.23388 -0.44256,0.309981 c -0.24341,0.170489 -0.5066,0.65135 -0.58488,1.068578 -0.11548,0.615577 -0.0492,0.857699 0.35152,1.284251 0.64853,0.690337 1.10846,0.663227 1.88264,-0.110947 l 0.6366,-0.636598 0.1327,0.663482 c 0.63972,3.19863 -0.83388,5.77374 -3.37774,5.90255 -0.61249,0.031 -1.28298,0.007 -1.48999,-0.0531 z m -66.443797,-1.30025 c 0.155254,-0.0621 0.340753,-0.0545 0.412222,0.017 0.07147,0.0715 -0.05556,0.1223 -0.282282,0.11296 -0.250548,-0.0103 -0.30151,-0.0613 -0.12994,-0.12993 z m 1.720576,-0.21508 c 0.155254,-0.0621 0.340755,-0.0545 0.412222,0.017 0.07147,0.0715 -0.05556,0.1223 -0.282282,0.11296 -0.250549,-0.0103 -0.30151,-0.0613 -0.12994,-0.12993 z m 1.438293,-0.28322 c 0.236579,-0.10166 0.623709,-0.182 0.860288,-0.17852 0.345791,0.005 0.324701,0.0401 -0.107536,0.17852 -0.735367,0.2355 -1.300802,0.2355 -0.752752,0 z"
         id="path25"
         inkscape:connector-curvature="0" />
      <path
         style="fill:#3b2b29;stroke-width:0.21507198"
         d="m 104.58862,136.33305 c -2.91793,-0.70705 -6.077477,-3.10062 -7.420543,-5.62155 -1.688422,-3.16917 -1.654286,-7.27554 0.06789,-8.16611 0.815153,-0.42153 3.127933,-0.39977 5.491613,0.0517 2.58203,0.49314 7.97308,0.48978 10.15061,-0.006 0.86533,-0.19715 2.1907,-0.35846 2.94525,-0.35846 1.14057,0 1.47367,0.0876 1.97535,0.51944 0.59835,0.51504 0.60342,0.54093 0.60036,3.06477 -0.003,2.26493 -0.0643,2.68398 -0.55869,3.80372 -2.29373,5.19495 -7.86638,8.01783 -13.25184,6.71287 z m -6.833295,-28.44241 c -0.653023,-0.16693 -0.877625,-0.45951 -0.580695,-0.75644 0.390242,-0.39024 0.309775,-0.98955 -0.167128,-1.24478 -0.337437,-0.18059 -0.514409,-0.13837 -0.857292,0.20451 l -0.432079,0.43208 -0.301632,-0.48092 c -1.161752,-1.85226 -0.843259,-4.89825 0.649132,-6.208152 1.080171,-0.948089 2.801435,-1.330949 3.735718,-0.830935 0.386201,0.206686 0.380631,0.240674 -0.121674,0.742977 -0.955881,0.95588 -0.517332,2.69665 0.679365,2.69665 0.57912,0 1.37353,-0.59393 1.38274,-1.03378 0.0193,-0.92426 0.62303,0.80851 0.62997,1.80821 0.0177,2.54321 -1.32594,4.36791 -3.440962,4.67301 -0.409925,0.0591 -0.938884,0.058 -1.175463,-0.002 z m 19.410245,-2.14095 c -0.41679,-0.12127 -0.49266,-0.41087 -0.1613,-0.61566 0.33227,-0.20535 0.25409,-1.1219 -0.10754,-1.26067 -0.38289,-0.14693 -0.96782,0.044 -0.96782,0.31586 0,0.47196 -0.45913,0.11811 -0.85592,-0.65966 -0.83649,-1.63965 -0.46849,-4.108634 0.81356,-5.458335 1.09052,-1.148074 2.65586,-1.560435 3.73372,-0.983582 l 0.43701,0.23388 -0.44256,0.309981 c -0.24341,0.170489 -0.5066,0.65135 -0.58488,1.068578 -0.11548,0.615577 -0.0492,0.857699 0.35152,1.284251 0.64853,0.690337 1.10846,0.663227 1.88264,-0.110947 l 0.6366,-0.636598 0.1327,0.663482 c 0.63972,3.19863 -0.83388,5.77374 -3.37774,5.90255 -0.61249,0.031 -1.28298,0.007 -1.48999,-0.0531 z"
         id="path23"
         inkscape:connector-curvature="0" />
    </g>
  </g>
</svg>
