<svg height="429.29575mm" viewBox="0 0 429.30957 429.29575" width="429.30957mm" xmlns="http://www.w3.org/2000/svg"><g stroke-width=".894366" transform="translate(84.637888 65.058588)"><path d="m-86.135971 151.10119v-214.647874h214.647871 214.64788v214.647874 214.64788h-214.64788-214.647871z" fill="#f0fcfc"/><path d="m27.895713 364.35915c-40.454439-4.48883-77.463964-29.68661-98.283922-66.91617-7.449479-13.32091-13.092156-32.42901-14.803287-50.12917-1.277725-13.21694-1.277725-179.208295 0-192.425238 2.183295-22.584283 8.949696-41.757817 20.96221-59.3993282 17.721361-26.0254918 39.189203-42.5432798 67.4295102-51.8816158 20.6972068-6.844028 16.5977538-6.601208 117.7095658-6.972222 64.34456-.236103 93.80441-.02887 102.40493.720344 31.82926 2.772749 58.75392 15.181324 81.19147 37.418124 18.60811 18.4416326 30.98668 42.120922 36.53969 69.897746 1.35554 6.780547 1.55805 17.509185 1.87384 99.27464.35974 93.14148.0912 103.81452-2.99284 118.9507-6.00217 29.45801-23.64378 57.3309-47.80705 75.53283-4.80878 3.6224-11.49123 8.21367-14.84988 10.2028-13.77323 8.15708-33.98503 14.37771-52.54543 16.172-15.12783 1.46246-183.059441 1.08241-196.828807-.44544zm-50.528061-236.36128c.0045-42.736006.63507-57.389632 2.469642-57.389632.716573 0 4.958982 2.917869 9.427575 6.484154 4.4685932 3.566285 10.05727175 7.892782 12.4192865 9.614436 13.2920625 9.688481 74.2906865 57.172482 76.0724695 59.218132.860828.98831 1.565141 2.21812 1.565141 2.73292s-3.119102 3.88008-6.931338 7.4784l-6.931337 6.54242 11.350383.0246c6.629998.0144 11.580261-.34732 11.903137-.86974.779771-1.26169 4.953822-1.1121 6.637323.23786 1.031446.82711 4.063302 1.00787 11.249996.67078l9.83803-.46146-26.830983-22.30071c-45.442726-37.76998-47.348791-39.3616-49.190138-41.075129-.983803-.915509-4.605986-3.933995-8.049296-6.707747-3.443309-2.773751-6.663027-5.50146-7.154929-6.061584-.491901-.560124-7.056906-6.119763-14.588909-12.354756-7.5319943-6.234993-13.535427-11.813682-13.3409588-12.397086.2705431-.811593 31.1061198-1.060701 131.3036838-1.060701 120.95284 0 130.95011.112359 130.95011 1.47176 0 .809464-5.23204 5.809123-11.62676 11.110362-6.39471 5.301239-13.4746 11.279612-15.73308 13.285281-5.68959 5.052722-19.41605 16.54832-48.21409 40.3782-13.52729 11.1936-28.74163 23.80803-33.80966 28.03206l-9.21457 7.68008 9.66176.44718c7.49757.34701 10.19825.1513 12.05685-.87373 1.97699-1.09034 2.92482-1.12937 5.42969-.22359 2.73275.98816 23.03085 1.63516 23.03085.73409 0-.19977-2.81725-3.08306-6.26056-6.40729-3.86364-3.73004-6.25403-6.75833-6.2435-7.90966.0123-1.34279 3.91789-4.87319 13.9369-12.59799 7.65592-5.90281 18.25673-14.15334 23.55737-18.3345s16.77252-13.03539 25.49305-19.676058c8.72054-6.640668 20.10162-15.394277 25.2913-19.452463 8.12955-6.357101 11.16672-8.156539 12.07639-7.15493.11169.122976.41354 20.749295.67078 45.836261l.46771 45.61268h6.26056 6.26056l.23018-56.90087c.20289-50.158114.0681-57.035387-1.13756-58.035986-1.09383-.90779-33.70232-1.140057-162.82949-1.159814-160.297263-.02451-161.474658-.01181-163.250864 1.764397-1.76519 1.765192-1.78065 2.547396-1.156407 58.507873l.632702 56.71876 6.123688-.29698 6.123686-.29698.0037-34.5833z" fill="#9fcfdb"/><path d="m29.237262 363.92773c-1.229754-.4097-5.656866-1.41251-9.838028-2.22848-47.926156-9.35291-86.901827-45.67446-99.71813-92.92764-4.968959-18.32035-4.987402-18.79687-4.675229-120.8007.309019-100.972874.111139-96.433805 4.977238-114.170892 1.802727-6.570998 14.270268-33.06345376 19.162421-40.7185 1.31511-2.0578318 4.113449-5.719996 6.218533-8.138144 2.105084-2.418147 5.034819-5.801442 6.510523-7.518433 3.995056-4.648273 18.686142-16.159768 26.728802-20.943887 12.5518497-7.466379 28.5264892-13.437413 43.873213-16.399026 8.952873-1.727727 12.869446-1.797115 101.733175-1.802353 50.83201-.003 96.70027.370449 101.92948.829878 16.28162 1.430474 37.35343 8.378173 51.86796 17.101657 20.00981 12.026252 34.76574 26.895384 45.62797 45.9780177 5.33458 9.3717383 7.3786 14.0195983 11.5198 26.1947143 6.50335 19.119831 6.33576 15.578266 5.99748 126.741898-.33582 110.35939.12275 101.83667-6.56257 121.96755-5.91706 17.81751-15.87529 33.9058-29.53981 47.72388-10.45345 10.57092-16.32114 15.23937-27.3319 21.74583-9.61534 5.68186-17.99397 9.28854-28.964 12.46786-19.18108 5.55904-13.26749 5.28887-119.7951 5.47309-53.617253.0927-98.492075-.16662-99.721828-.57632zm-51.405209-180.40577c.36267-.86082.850549-26.11549 1.084173-56.12147.233625-30.005986.713881-54.867675 1.067237-55.248201.353355-.380525 8.662144 5.560159 18.4639769 13.201516 9.8018299 7.641366 23.6261011 18.416785 30.7206071 23.945395 37.95325 29.57619 47.941782 37.57689 48.177304 38.58946.229262.98566-33.640679 33.61065-35.677679 34.36628-.442004.16398-.80365.90492-.80365 1.64656 0 1.13412 1.464131 1.29995 9.212767 1.04342 9.134582-.30241 9.262744-.33758 15.100496-4.14352 3.238249-2.11119 10.430697-7.24261 15.983217-11.40317 5.55252-4.16055 10.383117-7.56465 10.734648-7.56465.823568 0 15.07334 10.89131 22.56581 17.24736 5.17448 4.38966 6.34743 4.97321 11.03828 5.49164 5.89794.65183 9.92337-.25663 13.5318-3.05384 1.34705-1.04422 3.75576-2.78147 5.35271-3.86054 1.59694-1.07907 6.93031-5.09101 11.85192-8.91543 8.7551-6.80331 9.00147-6.92555 11.40633-5.65968 2.25468 1.18683 7.22494 4.92846 22.69512 17.085l5.69077 4.47183 9.55959.30115c14.53485.45788 14.54932.30471 1.06875-11.31757-16.82549-14.50611-26.93921-24.86939-25.82391-26.46116.4919-.70203 13.37078-11.03872 28.61972-22.97041s36.48501-28.567314 47.19127-36.968059c10.70625-8.400746 19.81274-15.391711 20.23663-15.535471.4239-.14377.99179.314691 1.26198 1.01879s.59489 25.719055.72155 55.58878c.19041 44.90446.44522 54.52354 1.47155 55.54987 1.57626 1.57627 10.39436 1.66988 11.61448.12331 1.72217-2.18294 1.98844-11.70944 2.04423-73.13396l.0564-62.138923-2.32605-2.012324-2.32605-2.012323h-160.81404-160.814074l-2.449904 2.449901-2.449903 2.449901.315621 66.278988c.259599 54.51474.533491 66.54149 1.543088 67.75784 1.810884 2.18175 12.176458 2.11349 13.103235-.0863zm147.034687-15.98082c-2.65277-2.86506-111.640188-93.334796-123.410478-102.442224-2.18191439-1.688286-2.8010885-2.662967-2.13251408-3.356905 1.26556745-1.313592 259.35777208-.945471 259.23482208.369748-.0768.821556-10.68962 9.755219-50.46739 42.482391-8.0713 6.64067-19.76431 16.29982-25.98447 21.46479-6.22017 5.16496-18.9119 15.69234-28.20386 23.39417-9.29195 7.70182-18.40464 15.44927-20.25042 17.21655-3.99358 3.82374-5.879 4.01076-8.78569.87148z" fill="#62cbfb"/><path d="m29.237262 363.92362c-1.229754-.40744-5.656866-1.4084-9.838028-2.22437-47.926156-9.35291-86.901827-45.67446-99.71813-92.92764-4.968959-18.32035-4.987402-18.79687-4.675229-120.8007.305729-99.89815.145154-95.919312 4.549356-112.726598 1.519828-5.799956 15.50922-33.423412 20.405683-40.2930625 1.633508-2.2917819 3.573712-5.0587355 4.311564-6.1487855.737852-1.090049 2.64956-3.715767 4.248239-5.834929 1.59868-2.119162 2.90669-4.30689 2.90669-4.861618 0-1.122251.05989-1.177256 10.732394-9.857481 9.302887-7.566278 16.373074-12.205408 24.595069-16.138146 6.9896654-3.343293 24.017791-9.014263 29.514083-9.829237 3.503929-.519554 3.5361-.499932 1.56514.954638-3.215943 2.373368-2.468575 3.530783 2.235916 3.462665 2.336531-.03383 4.955584-.384703 5.820114-.779716s2.984321-.453229 4.710636-.12937c1.726314.323859 3.526181.349396 3.999695.05675.473513-.292646 41.441743-.504323 91.040516-.470393 78.67646.05382 90.67317-.112455 94.04909-1.303547 3.28397-1.158653 4.02014-1.178139 4.86503-.128774 1.08407 1.346427 7.70329 2.670567 7.70329 1.541004 0-.847914-4.06335-2.770428-5.85546-2.770428-.71978 0-1.29947-.829656-1.29947-1.859794 0-1.546652.41412-1.780596 2.4595-1.389423 1.35273.258704 4.2706.734572 6.48416 1.057484 19.67275 2.86985 39.22358 11.246655 56.98507 24.415989 6.98012 5.17545 9.55667 8.184193 7.00857 8.184193-.68143 0-1.41862-.503081-1.63822-1.117958-.2196-.614876-.70499-.833801-1.07864-.486498-.37366.347302.53454 1.957161 2.01823 3.577464 1.48367 1.620303 4.61607 5.159562 6.96088 7.86502 2.34481 2.705457 4.50311 5.120246 4.79623 5.366196 1.52112 1.276343 9.91266 11.51869141 9.91266 12.09896243 0 .37207331 1.75386 2.73221257 3.89746 5.24475357 4.24824 4.9794 10.29757 17.048678 13.4965 26.927409 4.61579 14.254264 4.51801 11.670118 4.51801 119.39788 0 112.20131.36542 104.97777-6.32839 125.09783-3.54054 10.64208-8.36193 20.31042-15.35892 30.79933-4.8205 7.22622-15.03073 18.83759-16.77043 19.07185-.4919.0663-1.4405.16685-2.10801.22359-.67689.0575-.99324.67753-.71529 1.40185.61361 1.59904-6.14575 7.82679-14.58214 13.43529-14.61114 9.71347-31.04096 16.53326-47.43611 19.69008-4.18116.80507-8.83808 1.84075-10.34871 2.30154-3.42311 1.04414-194.877747.95394-198.038598-.0933zm-11.644943-9.31088c-3.028037-1.64786-9.7020298-2.84857-8.4628498-1.52255.8759248.93731 6.6023358 2.58351 9.3753988 2.6952.737852.0297.327204-.49798-.912549-1.17265zm252.367491-6.97459c2.35821-1.59868 4.29803-3.38695 4.31071-3.97394.0127-.58698.81319-1.62067 1.77891-2.29708s2.65473-2.37259 3.75337-3.76928l1.99753-2.53945-2.63542.63953c-1.44947.35174-6.76067 2.92255-11.80266 5.71293-8.75023 4.8426-11.26421 7.34525-7.37852 7.34525.9838 0 1.78873.40246 1.78873.89437 0 1.80407 4.01258.81784 8.18735-2.01233zm42.24865-46.80378c.97775-2.54796.51343-3.5406-.82712-1.76823-.72221.95484-1.31311 2.06162-1.31311 2.4595 0 1.28018 1.57948.77003 2.14023-.69127zm3.62244-5.93923c1.54365-2.20388 1.85828-5.1672.54861-5.1672-1.21702 0-3.62818 3.69843-3.62818 5.56521 0 2.17679 1.40312 1.99545 3.07957-.39801zm1.12616-31.32741c2.77511-3.66162 3.7336-14.39976 1.8561-20.79401-.75616-2.57525-1.18865-27.63066-1.54381-89.43661l-.49337-85.859154-2.91237-5.037812c-4.72969-8.181384-6.6038-8.810329-8.19485-2.750131-.54179 2.063607-.80432 36.083211-.69508 90.069627l.17554 86.75352 4.82043 14.08626c2.65125 7.74745 5.11737 14.08627 5.48028 14.08627s1.04112-.50308 1.50713-1.11796zm-2.12794-8.94366c-.93824-1.47554-4.49431-9.97169-6.18271-14.77172-.7382-2.09865-1.36738-5.5196-1.3982-7.60211-.15879-10.73382-.15104-17.93167.0268-24.80398.10813-4.18116.115-8.80951.0152-10.28521-.0998-1.47571-.16004-16.56814-.13396-33.53873.1198-77.975002.53002-102.206485 1.73708-102.6092 1.78685-.596158 3.62331 3.485077 4.31757 9.595118.3633 3.197359.76277 41.693762.88771 85.547562s.49625 80.16956.82512 80.7017c.32888.53213 1.15235 3.61721 1.82994 6.85573 1.67739 8.01709.49566 14.71692-1.9245 10.91084zm-21.59391-7.62789c.37526-.37526.71812-45.14626.76189-99.4911l.0796-98.808813-2.33932-2.012324-2.33932-2.012323h-160.81407-160.814074l-2.357874 2.357871-2.357875 2.35788.000704 37.217822c.000387 20.469807.266776 65.189127.591976 99.376277l.591273 62.15845 164.15739-.23071c90.28656-.1269 164.46443-.53776 164.8397-.91303zm-301.0584582-6.36828c-.4872516-.78838 2.0693531-3.23091 8.9876285-8.58657 10.7316767-8.30775 31.3365757-24.37307 49.8982777-38.90493 35.155887-27.52336 40.080196-31.30282 40.784885-31.30282.816824 0 15.166747 11.05873 27.693287 21.34174l9.11082 7.47905 4.62554-3.20092c2.54406-1.76051 7.24158-5.55687 10.43894-8.43636 3.19736-2.8795 9.32899-7.93717 13.62584-11.23929 7.62559-5.86023 7.87161-5.97272 10.28521-4.70237 2.59856 1.3677 6.73464 4.52412 33.45383 25.53009 9.03118 7.1001 22.85976 17.94347 30.73018 24.09637 29.47607 23.04368 33.53873 26.37974 33.53873 27.54035 0 .98513-23.46593 1.18993-136.33805 1.18993-79.744769 0-136.544383-.33385-136.8351182-.80427zm-13.3692788-12.221c-.753813-1.9644.409157-155.409005 1.184266-156.254611.348803-.380525 8.653868 5.560159 18.4557009 13.201516 9.8018299 7.641366 23.6261011 18.416785 30.7206071 23.945395 37.78375 29.4441 47.941057 37.57316 48.169934 38.5512.317903 1.35844-21.617545 22.12576-32.896495 31.14468-4.673063 3.73669-13.72852 11.10789-20.123238 16.38044-17.5775145 14.49296-43.114255 34.42989-44.100417 34.42989-.480534 0-1.115195-.62933-1.410358-1.39851zm273.921237-17.65536c-13.09044-10.42618-26.72574-21.37148-30.30068-24.32289-3.57494-2.9514-7.55455-6.14599-8.84357-7.09908-8.87109-6.55916-33.19932-29.57045-33.19932-31.40218 0-.5301 17.60783-14.68608 39.12852-31.45776 21.52068-16.771659 43.14231-33.750378 48.04805-37.730477 4.90573-3.980099 9.18917-7.236549 9.51875-7.236549.32956 0 .8061.539124 1.05895 1.198057.45837 1.194462.89168 79.986659.71767 130.497359-.0712 20.66892-.34118 26.59654-1.20962 26.5588-.61488-.0267-11.82832-8.57911-24.91875-19.00528zm-128.29772-43.62421c-2.53369-2.65784-93.757144-78.472688-114.8329087-95.436417-5.6771501-4.569496-10.32208537-8.795376-10.32208537-9.390845 0-1.409887 258.83833407-1.598035 259.05898407-.188309.12837.820116-9.4677 8.933833-50.2438 42.482391-8.0713 6.64067-19.76431 16.29982-25.98447 21.46479-6.22017 5.16496-18.9119 15.69234-28.20386 23.39417-9.29195 7.70182-18.40464 15.44927-20.25042 17.21655-4.10481 3.93023-5.82947 4.01583-9.22144.45767zm-102.572249-168.9529477c1.59868-.9747339 2.90669-2.0598835 2.90669-2.4114454 0-.3515611-.482958-.156244-1.073239.4340376-1.566232 1.566231-8.369058 1.3412005-10.042453-.3321935-1.756929-1.7569304-1.751518-2.2799674.06296-6.085044 1.443284-3.026528 1.207287-5.925015-.482385-5.925015-.472369 0-.854334 1.30801-.848816 2.90669.0054 1.598679-.27331 4.2372328-.619617 5.8634525-.508555 2.3880721-.2347 3.3771794 1.423831 5.1426054 2.486302 2.64655103 4.820159 2.75604827 8.673026.4069124zm.0246-4.085164c2.32732-1.6301165 2.575551-4.1614343.571223-5.8248843-1.62467-1.348353-3.508429-.50006-5.478547 2.4670939-1.067167 1.607235-1.038565 2.0548554.211133 3.3045541 1.78841 1.7884103 2.212027 1.7932122 4.696191.053233zm7.815651-5.5760033c-.85344-3.400363.185429-5.151299 5.38607-9.077823 2.686524-2.028352 4.884599-4.146264 4.884599-4.706473 0-1.485236-2.754952-4.289689-4.213976-4.289689-1.046552 0-1.031249.317516.09263 1.922076 1.189722 1.698575 1.19295 2.218568.02772 4.471831-.725187 1.402365-1.81127 2.551753-2.413518 2.554196-.602248.0024-2.302385.970827-3.778089 2.151962-2.398055 1.919373-2.683098 2.672221-2.683098 7.086454 0 4.705976.0762 4.8699768 1.615797 3.4769568 1.087523-.9839914 1.441227-2.1575588 1.081834-3.5894908zm-20.4811594-8.068264c-1.3308973-1.330902-1.4453583-1.294436-1.4453583.460492 0 1.048219.503081 2.080253 1.1179577 2.293411 1.730652.599958 1.937913-1.143393.3274006-2.753903zm18.6888094.2258c5.44787-3.192661 6.509304-5.27422 4.248114-8.330884-2.900322-3.920641-5.444642-4.698902-10.769573-3.294212-5.758394 1.519035-10.65318 4.479868-11.4247135 6.91075-.7254561 2.285707.9573115 5.601621 3.5042425 6.905153 2.945559 1.507548 9.942284.44616 14.44193-2.190807zm-45.447928-19.557365c6.810604-4.022027 9.1184494-5.813398 7.536541-5.849937-1.731138-.03999-14.419962 7.073076-14.419962 8.083498 0 1.427447 1.518477.934725 6.883421-2.233561zm286.915856-4.089649c-.30401-.491901-.95521-.894366-1.44711-.894366s-.64563.402465-.34162.894366c.30401.491902.95521.894367 1.44711.894367s.64563-.402465.34162-.894367zm-7.57932-3.997184c-.98392-1.185557-13.86983-5.840843-16.16755-5.840843-2.20259 0-.45479 1.760737 2.95286 2.974719 2.09058.744772 6.01262 2.159689 8.71563 3.144259 5.27931 1.922983 6.27476 1.861445 4.49906-.278135zm-260.7305218-1.018105c1.4757042-.784744 4.6954223-2.045821 7.1549292-2.802394 2.4595066-.756573 3.9340756-1.565753 3.2768236-1.798179-1.5163801-.53624-12.7010128 2.961422-14.9770557 4.683629-1.6830245 1.27349-1.6816436 1.298312.073472 1.320815.9838027.01261 2.99612658-.619128 4.4718309-1.403871zm307.1006818 29.386767c-1.11247-1.418515-1.08084-1.450149.33768-.337673 1.48979 1.168373 1.96356 1.902814 1.22746 1.902814-.18571 0-.89002-.704314-1.56514-1.565141zm-5.73607-4.754926c-.32423-.524628-.37476-1.168626-.11228-1.431107.64065-.640645 2.38497.488167 2.38497 1.543393 0 1.142975-1.54404 1.066689-2.27269-.112286z" fill="#5c969d"/><path d="m27.44853 362.35892c-4.674834-.54333-14.822966-3.0366-18.7334922-4.60259-15.8680185-6.35444-21.3239928-8.81273-30.0290208-13.5301-11.120145-6.02615-22.073548-14.87173-29.579461-23.88732-11.956925-14.36182-21.693442-31.66516-26.598308-47.26943-5.132198-16.3275-5.031295-14.12999-5.456709-118.83801-.257282-63.325145-.07693-98.747697.523675-102.852104 3.234605-22.104734 10.506097-39.169164 26.697264-62.652016 4.165451-6.041362 9.171278-12.061535 11.578621-13.924836 1.511681-1.170053 5.662495-4.503746 9.224029-7.408207 8.892366-7.251797 14.614198-10.801537 26.1335091-16.212842 10.5425189-4.952448 19.2796959-8.057428 25.0603159-8.905821 3.504457-.514333 3.536395-.494741 1.56514.960047-3.215943 2.373368-2.468575 3.530783 2.235916 3.462665 2.336531-.03383 4.955584-.384703 5.820114-.779716s2.984321-.453229 4.710636-.12937c1.726314.323859 3.526181.349396 3.999695.05675.473513-.292646 41.441743-.504323 91.040516-.470393 78.67646.05382 90.67317-.112455 94.04909-1.303547 3.28397-1.158653 4.02014-1.178139 4.86503-.128774 1.08407 1.346427 7.70329 2.670567 7.70329 1.541004 0-.847914-4.06335-2.770428-5.85546-2.770428-.71471 0-1.29947-.661896-1.29947-1.470879 0-3.525282 18.72017.738646 36.45276 8.302911 13.79564 5.884867 39.71782 22.435471 36.7468 23.461835-.52953.18293-1.29682-.207879-1.70508-.868465-.40827-.660586-1.0148-.928565-1.34785-.595508-.33306.333056.60835 1.93126 2.09204 3.551563 1.48367 1.620303 4.61607 5.159562 6.96088 7.86502 2.34481 2.705457 4.50311 5.120246 4.79623 5.366196 1.52112 1.276343 9.91266 11.51869141 9.91266 12.09896243 0 .37207331 1.75359 2.73221257 3.89686 5.24475357 6.06444 7.109284 11.50463 20.136264 15.91385 38.106985 1.71676 6.997056 1.77973 201.954244.0684 211.821224-1.81525 10.46618-6.93461 25.00416-13.33414 37.86626-7.06228 14.19415-10.80403 19.7999-18.39989 27.56602-14.14113 14.4581-18.95649 18.29972-31.35649 25.01572-7.22565 3.91352-10.38128 4.42105-4.73333.7613 1.76236-1.14197 3.20926-2.55658 3.21535-3.14357.006-.58698.8012-1.62067 1.76692-2.29708s2.65473-2.37259 3.75337-3.76928l1.99753-2.53945-2.63542.63953c-1.44947.35174-6.76067 2.92255-11.80266 5.71293-8.75023 4.8426-11.26421 7.34525-7.37852 7.34525.9838 0 1.78873.40246 1.78873.89437 0 .4919.90555.91048 2.01232.93017 1.98136.0352 1.97791.0543-.22359 1.23716-4.39913 2.36364-24.10223 8.54112-30.10551 9.43893-5.40561.80842-199.595359 1.84738-206.00715 1.10218zm-9.856211-7.74618c-3.028037-1.64786-9.7020298-2.84857-8.4628498-1.52255.8759248.93731 6.6023358 2.58351 9.3753988 2.6952.737852.0297.327204-.49798-.912549-1.17265zm-50.066321-24.22933c0-2.10592-17.343151-21.93533-20.805863-23.78852-5.202916-2.78451-1.28685 4.13231 8.284737 14.63305 5.650821 6.19938 12.521126 11.22296 12.521126 9.15547zm333.331252-7.78751c5.9678-6.07142 13.69988-17.0271 13.65455-19.3473-.0215-1.10541-.49682-.91923-2.01441.7892-1.09238 1.22976-3.06178 2.71661-4.37645 3.30412-1.31468.58752-4.09598 3.60601-6.18068 6.70775-2.0847 3.10175-4.93215 7.10609-6.32768 8.89852-1.39551 1.79244-2.53731 3.70415-2.53731 4.24824 0 2.21712 2.57974.69203 7.78198-4.60053zm11.35121-21.76153c.97775-2.54796.51343-3.5406-.82712-1.76823-.72221.95484-1.31311 2.06162-1.31311 2.4595 0 1.28018 1.57948.77003 2.14023-.69127zm3.62244-5.93923c1.54365-2.20388 1.85828-5.1672.54861-5.1672-1.21702 0-3.62818 3.69843-3.62818 5.56521 0 2.17679 1.40312 1.99545 3.07957-.39801zm1.12616-31.32741c2.77511-3.66162 3.7336-14.39976 1.8561-20.79401-.75616-2.57525-1.18865-27.63066-1.54381-89.43661l-.49337-85.859154-2.91237-5.037812c-4.72969-8.181384-6.6038-8.810329-8.19485-2.750131-.54179 2.063607-.80432 36.083211-.69508 90.069627l.17554 86.75352 4.82043 14.08626c2.65125 7.74745 5.11737 14.08627 5.48028 14.08627s1.04112-.50308 1.50713-1.11796zm-2.12794-8.94366c-.93824-1.47554-4.49431-9.97169-6.18271-14.77172-.7382-2.09865-1.36738-5.5196-1.3982-7.60211-.15879-10.73382-.15104-17.93167.0268-24.80398.10813-4.18116.115-8.80951.0152-10.28521-.0998-1.47571-.16004-16.56814-.13396-33.53873.1198-77.975002.53002-102.206485 1.73708-102.6092 1.78685-.596158 3.62331 3.485077 4.31757 9.595118.3633 3.197359.76277 41.693762.88771 85.547562s.49625 80.16956.82512 80.7017c.32888.53213 1.15235 3.61721 1.82994 6.85573 1.67739 8.01709.49566 14.71692-1.9245 10.91084zm-21.57732-7.64448c.38439-.38439.95952-45.15538 1.27806-99.4911l.57918-98.792223-2.26565-2.081056-2.26564-2.081055-162.11189-.08353-162.11189-.08345-2.22527 2.587026-2.22527 2.587035.666488 81.859193c.366569 45.02257.770698 83.46906.898066 85.43666.127368 1.96761.287584 9.81567.356036 17.44014l.124459 13.86268 164.302211-.23071c90.36622-.12689 164.61671-.54522 165.00111-.92961zm-301.0750482-6.35169c-.4872516-.78838 2.0693531-3.23091 8.9876285-8.58657 1.9062672-1.47571 9.1625017-7.11021 16.1249547-12.52113 23.709423-18.42591 38.323813-29.6027 43.183727-33.02605 2.668592-1.87978 5.284613-3.7712 5.81338-4.20314.528758-.43195 4.784796-3.65618 9.457859-7.16496 4.673064-3.50877 10.006884-7.73376 11.852928-9.38884 1.846052-1.65509 3.657143-3.00577 4.024647-3.00151.747869.009 30.905094 23.84309 33.861364 26.76194l1.89035 1.86643 4.8174-2.93393c5.9567-3.6278 12.14969-8.05322 15.1026-10.7921 1.22976-1.14062 3.64455-3.04689 5.3662-4.23615 1.72165-1.18927 5.27535-4.10266 7.8971-6.4742l4.76682-4.3119 2.38811 1.55974c1.31346.85786 7.82138 5.82302 14.46205 11.03369 12.17638 9.55433 21.10923 16.13845 21.89545 16.13845.2346 0 4.96263 3.54888 10.50674 7.8864 5.54411 4.33753 17.72704 13.86293 27.07316 21.16756 23.85112 18.64125 23.7007 18.51535 23.7007 19.83867 0 .98771-23.35495 1.19187-136.33805 1.19187-79.744769 0-136.544383-.33385-136.8351182-.80427zm-13.3669408-12.21491c-.611605-1.59381.127866-114.17706.911665-138.799472.285769-8.9772.882502-16.322182 1.326072-16.322182.671202 0 22.8326985 17.069855 48.189714 37.118044 3.197359 2.52796 12.454048 9.77097 20.570421 16.09559 23.201191 18.07936 26.830985 21.04149 26.830985 21.89573 0 .43992-2.276109 2.73675-5.058017 5.10405s-6.573779 5.71281-8.426387 7.43447c-1.852607 1.72165-5.653234 5.1426-8.44583 7.60211s-8.358022 7.54362-12.367617 11.29803c-11.755307 11.00713-60.186452 49.96605-62.114495 49.96605-.485205 0-1.122635-.62658-1.416511-1.39242zm297.272509.61691c0-.42654-1.65775-1.87256-3.68388-3.2134-6.03945-3.99671-44.83975-34.91803-47.74218-38.0474-3.30677-3.56533-3.21191-3.47863-23.10196-21.118-8.93758-7.92624-17.17865-15.42222-18.31349-16.65772l-2.06334-2.24638 7.42953-5.64143c4.08626-3.10279 11.38003-8.88815 16.2084-12.85636 4.82838-3.96821 10.07287-8.22108 11.65441-9.45083 1.58155-1.22976 6.87001-5.45564 11.75214-9.39085 19.43926-15.6689 47.476-37.109021 48.53114-37.1125.88031-.0027 1.11796 10.041639 1.11796 47.25158 0 25.9904.26641 61.20607.59202 78.25704.54503 28.54098.47404 31.00176-.89437 31.00176-.8175 0-1.48638-.34898-1.48638-.77551zm-152.5048-64.79179c-2.45105-2.12082-11.70083-9.80106-20.55505-17.06719-8.854226-7.26614-17.909683-14.74106-20.123239-16.61095-7.668421-6.47785-16.900444-13.91164-22.523333-18.13622-10.184496-7.65177-59.1807971-48.496463-59.54840756-49.641216-.28607374-.890842 25.74388956-1.117958 128.13159956-1.117958 80.30227 0 128.3788.317017 128.19247.845302-.32336.916877-19.02006 16.536543-33.38966 27.89452-4.91902 3.888069-10.95599 8.716179-13.41549 10.729142-9.21037 7.5381-39.08392 32.23051-59.64072 49.29688-11.70198 9.71505-21.59029 17.66373-21.97401 17.66373s-2.70309-1.73522-5.15416-3.85604zm-196.470166 76.45378c.402677-5.46372 2.855266-4.38089 2.855266 1.26062 0 1.18951.402464 2.16276.894366 2.16276.491901 0 .894366-.87018.894366-1.93374 0-1.06357.949369-3.57897 2.109708-5.58979l2.109707-3.65605-.120616-61.019c-.0925-46.7981-.375748-61.27414-1.21534-62.11373-.6021-.6021-1.094727-2.59789-1.094727-4.43509 0-1.83721-.358491-4.28327-.796647-5.435718-.438158-1.152436-1.051747-5.274578-1.363534-9.160322s-1.060073-7.663654-1.662858-8.395361c-.895645-1.087201-1.195896-.199981-1.642631 4.853868-.522431 5.910177-.542489 5.820687-.45263-2.019568.09519-8.304932-.705559-11.576551-1.684494-6.882363-.294206 1.410774-1.002731 4.137374-1.5745 6.059116-1.270518 4.270277-1.556256 148.579108-.308804 155.958438.942598 5.57597 2.653626 5.76982 3.053368.34593zm396.916816.51669c-.3094-1.10678-.81844-5.13121-1.1312-8.94319-.47922-5.84071-.76787-6.76553-1.83518-5.87974-.82314.68314-1.06364 1.8571-.68699 3.3534.31875 1.26625.74334 4.44759.94355 7.06965.39267 5.14275.85325 6.4122 2.32647 6.4122.55136 0 .71125-.83933.38335-2.01232zm-.98196-25.93662c.80766-10.78049.20196-93.32904-.69135-94.22185-.37712-.37692-1.18205-.18903-1.78874.41753-.84091.84076-1.15768 12.40974-1.33296 48.68333-.12644 26.16927-.007 48.88851.26413 50.48719.27432 1.61399 1.03551 2.90669 1.71158 2.90669.89474 0 1.38189-2.19341 1.83734-8.27289zm-.86357-112.28101c-.266-.26601-.67844-.28886-.91652-.0508-.78039.78038-.70347 12.01061.0975 14.23642.57483 1.59738.85157.0675 1.0426-5.76371.14303-4.36606.0424-8.15594-.22359-8.42194zm-395.201163-31.711938c-.248109-.614876-.451106-.111795-.451106 1.117958 0 1.229754.202997 1.732835.451106 1.117958.248108-.614877.248108-1.621039 0-2.235916zm0-8.943661c-.248109-.614877-.451106-.111796-.451106 1.117958 0 1.229753.202997 1.732834.451106 1.117957.248108-.614876.248108-1.621038 0-2.235915zm94.881264-64.1609687c1.59868-.9747339 2.90669-2.0598835 2.90669-2.4114454 0-.3515611-.482958-.156244-1.073239.4340376-1.566232 1.566231-8.369058 1.3412005-10.042453-.3321935-1.756929-1.7569304-1.751518-2.2799674.06296-6.085044 1.443284-3.026528 1.207287-5.925015-.482385-5.925015-.472369 0-.854334 1.30801-.848816 2.90669.0054 1.598679-.27331 4.2372328-.619617 5.8634525-.508555 2.3880721-.2347 3.3771794 1.423831 5.1426054 2.486302 2.64655103 4.820159 2.75604827 8.673026.4069124zm.0246-4.085164c2.32732-1.6301165 2.575551-4.1614343.571223-5.8248843-1.62467-1.348353-3.508429-.50006-5.478547 2.4670939-1.067167 1.607235-1.038565 2.0548554.211133 3.3045541 1.78841 1.7884103 2.212027 1.7932122 4.696191.053233zm7.815651-5.5760033c-.85344-3.400363.185429-5.151299 5.38607-9.077823 2.686524-2.028352 4.884599-4.146264 4.884599-4.706473 0-1.485236-2.754952-4.289689-4.213976-4.289689-1.046552 0-1.031249.317516.09263 1.922076 1.189722 1.698575 1.19295 2.218568.02772 4.471831-.725187 1.402365-1.81127 2.551753-2.413518 2.554196-.602248.0024-2.302385.970827-3.778089 2.151962-2.398055 1.919373-2.683098 2.672221-2.683098 7.086454 0 4.705976.0762 4.8699768 1.615797 3.4769568 1.087523-.9839914 1.441227-2.1575588 1.081834-3.5894908zm-20.4811594-8.068264c-1.3308973-1.330902-1.4453583-1.294436-1.4453583.460492 0 1.048219.503081 2.080253 1.1179577 2.293411 1.730652.599958 1.937913-1.143393.3274006-2.753903zm18.6888094.2258c5.44787-3.192661 6.509304-5.27422 4.248114-8.330884-2.900322-3.920641-5.444642-4.698902-10.769573-3.294212-5.758394 1.519035-10.65318 4.479868-11.4247135 6.91075-.7254561 2.285707.9573115 5.601621 3.5042425 6.905153 2.945559 1.507548 9.942284.44616 14.44193-2.190807zm-45.447928-19.557365c6.810604-4.022027 9.1184494-5.813398 7.536541-5.849937-1.731138-.03999-14.419962 7.073076-14.419962 8.083498 0 1.427447 1.518477.934725 6.883421-2.233561zm286.915856-4.089649c-.30401-.491901-.95521-.894366-1.44711-.894366s-.64563.402465-.34162.894366c.30401.491902.95521.894367 1.44711.894367s.64563-.402465.34162-.894367zm-7.57932-3.997184c-.98392-1.185557-13.86983-5.840843-16.16755-5.840843-2.20259 0-.45479 1.760737 2.95286 2.974719 2.09058.744772 6.01262 2.159689 8.71563 3.144259 5.27931 1.922983 6.27476 1.861445 4.49906-.278135zm-260.7305218-1.018105c1.4757042-.784744 4.6954223-2.045821 7.1549292-2.802394 2.4595066-.756573 3.9340756-1.565753 3.2768236-1.798179-1.5163801-.53624-12.7010128 2.961422-14.9770557 4.683629-1.6830245 1.27349-1.6816436 1.298312.073472 1.320815.9838027.01261 2.99612658-.619128 4.4718309-1.403871z" fill="#1c9acd"/><path d="m30.802403 362.47365c.614876-.24811 1.621038-.24811 2.235915 0 .614877.2481.111796.45111-1.117958.45111-1.229753 0-1.732834-.20301-1.117957-.45111zm5.611405-1.61755c-.62425-.75218-1.50749-1.3676-1.962758-1.3676s-1.713999-1.0018-2.797184-2.22624c-1.580631-1.78674-4.794402-2.9327-16.279279-5.80483-7.8704225-1.96822-15.2154045-3.58243-16.32218261-3.58714-2.89785449-.0123-2.47559919 1.5001.89436615 3.20338 1.59867946.80803 3.71161946 2.17805 4.69542226 3.0445s2.9961266 2.25362 4.4718307 3.0826c2.8934805 1.62541 2.0151505 1.37998-6.260563-1.74941-23.7518945-8.98156-41.8175235-20.7837-53.7469045-35.11245-11.956925-14.36182-21.693442-31.66516-26.598308-47.26943-5.135874-16.3392-5.03259-14.0711-5.430783-119.25937-.216584-57.213712-.02681-99.224969.462591-102.404924 2.253026-14.639459 4.649441-22.474321 10.40302-34.011734 6.705967-13.4471928 12.957391-23.27652 15.73277-24.737172 1.066-.5610242 2.139414-1.2749216 2.385364-1.5864392.245951-.3115175 2.66074-2.1479578 5.366197-4.0809788 2.705458-1.93302 7.13257-5.385805 9.838028-7.672857 20.780939-17.567109 48.950546-29.407355 70.042946-29.440441 2.368872-.0038 5.126981.432065 6.129136.9684 1.527291.817384 23.374546 2.428073 36.070869 2.659327 21.611732.393641 46.228194.148715 59.755344-.594545 5.231-.28742 9.20752-.1245 9.84348.403294.65309.542023 6.09536.711094 14.02985.435855 7.12958-.247317 26.64667-.581693 43.37132-.743057s31.87927-.570066 33.67694-.908225c2.31527-.435525 6.82987.226125 15.48019 2.268749 11.21969 2.649334 12.79668 3.281948 19.41258 7.787402 3.96047 2.697101 10.27572 6.488064 14.03388 8.424363 13.57982 6.996662 19.74001 11.81299 27.706 21.6618659 5.80527 7.17743861 13.56012 18.1736861 13.56012 19.2280281 0 .382589 1.06314 1.671317 2.36254 2.863841 3.87161 3.55317 8.49161 14.813139 12.08197 29.446391 1.71676 6.997056 1.77973 201.954247.0684 211.821227-1.6383 9.44596-6.80389 24.79146-11.50941 34.19121-2.23545 4.46551-4.18474 7.98889-4.33176 7.82974-.14703-.15915.0257-2.18659.38379-4.50542.37088-2.40149.28876-4.57839-.1908-5.05795-.52182-.52182-.53336-3.59442-.0303-8.08149.44635-3.98177.5109-7.23958.14343-7.23958-2.20049 0-16.61412 25.63383-18.27347 32.49835l-.61328 2.53707 3.64695-1.86054c2.0564-1.04909 4.85635-3.61833 6.41995-5.89095 1.52515-2.21673 3.17988-4.03041 3.67719-4.03041.49729 0 .75855.30185.58057.67077-1.16796 2.42089-3.45818 7.46808-4.76849 10.5088-.84788 1.96761-3.79558 6.24754-6.55042 9.51098-2.75486 3.26343-6.81991 8.08512-9.03347 10.71488-2.21355 2.62975-3.91406 5.12102-3.77889 5.53614.13515.41512-.12109.52805-.56944.25095s-1.36387.17271-2.03448.99957c-.8386 1.03397-.87024 1.29367-.10134.83173 2.20841-1.32676 1.05968.0345-1.78874 2.11978-1.64705 1.20575-2.37475 1.47242-1.67922.61538 1.05769-1.30331 1.02678-1.51251-.22359-1.51251-1.91939 0-1.84631-.4076.76117-4.24485 1.21672-1.79056 2.06413-3.40367 1.88313-3.58468-.43805-.43804-32.2527 15.13983-39.01894 19.10542-2.92759 1.71581-5.31673 3.60346-5.3092 4.19477.0292 2.29763 1.7166 3.58506 4.59653 3.5071 4.04542-.10948 2.21431.82608-7.74051 3.95486l-8.04929 2.52986-98.91993.26312c-87.886883.23377-99.046515.11058-100.054922-1.10448zm184.664992-7.58504 2.6831-1.16278-2.61771-.74669c-1.43974-.41067-7.07425-.92217-12.52113-1.13665-5.44688-.21449-20.93882-.86455-34.42654-1.44458-18.12868-.77961-25.55631-.79443-28.48545-.0569-3.04943.76785-4.26966.74268-5.29623-.10931-1.43714-1.19271-7.40055-1.14073-8.6164.0751-.4079.4079-2.21979.39255-4.02641-.0342-3.46307-.81788-42.009585-.0877-43.514007.82423-.815572.49438-21.145937 1.20296-34.45034 1.20069-6.101867-.00089-11.62676 1.23304-11.62676 2.59703 0 1.15496 22.845975 1.43086 106.429567 1.28524 58.34601-.10164 74.34664-.37184 76.46831-1.29131zm-251.440644-20.16636c.350164-.91251-.04827-1.34155-1.245862-1.34155-1.757471 0-2.292465.95881-1.164418 2.08685.965896.9659 1.859687.68952 2.41028-.7453zm-2.112158-2.72129c0-2.10592-17.343151-21.93533-20.805863-23.78852-5.202916-2.78451-1.28685 4.13231 8.284737 14.63305 5.650821 6.19938 12.521126 11.22296 12.521126 9.15547zm333.331252-7.78751c5.9678-6.07142 13.69988-17.0271 13.65455-19.3473-.0215-1.10541-.49682-.91923-2.01441.7892-1.09238 1.22976-3.06178 2.71661-4.37645 3.30412-1.31468.58752-4.09598 3.60601-6.18068 6.70775-2.0847 3.10175-4.93215 7.10609-6.32768 8.89852-1.39551 1.79244-2.53731 3.70415-2.53731 4.24824 0 2.21712 2.57974.69203 7.78198-4.60053zm-357.479138-18.54398c0-.48415-1.195597-2.19463-2.656882-3.80106-3.029151-3.33006-3.647467-1.83135-.859682 2.08374 1.838154 2.58144 3.516564 3.4011 3.516564 1.71732zm2.676342-12.75884c-.0038-.61487-.387285-3.53274-.852376-6.48415s-1.293468-10.39701-1.840837-16.54577c-1.059255-11.89896-4.763225-29.15556-6.693044-31.18255-1.788332-1.87839-3.588664 1.75378-4.93022 9.94671-2.387978 14.58344 1.451449 31.65116 9.555319 42.47703 2.179948 2.91217 4.773837 3.88668 4.761158 1.78873zm213.983856-5.69464c2.55463-.57215 3.41916-2.13106 1.18184-2.13106-1.36413 0-4.08853-2.3434-4.08853-3.51677 0-.38825 2.08864-.95327 4.64143-1.25561 4.48238-.53088 7.99761-2.56276 6.69215-3.86822-.61702-.61702-44.84691-.95568-60.9709-.46686l-8.049296.24403 2.235916 1.72126c1.26298.97228 2.95008 1.50185 3.87715 1.21702.96952-.29788 2.43367.22375 3.57746 1.2745 1.06492.97831 3.69022 2.06519 5.83399 2.41529 3.58966.58621 3.78347.75081 2.45188 2.08241-1.33159 1.33158-1.68668 1.31619-4.4924-.1948-1.76538-.95072-3.53046-1.34156-4.19732-.92941-.63294.39117-2.71464.61895-4.62598.50618-2.03025-.1198-3.25549.15042-2.94681.64987.60438.97792 10.04381 2.62933 17.96217 3.14246 7.20838.46711 37.83155-.19919 40.91725-.89029zm-32.97528-1.64105c-.69663-1.8154.34059-3.17311 2.42409-3.17311 2.17746 0 3.31603 2.57671 1.61462 3.65403-1.85676 1.17569-3.47705.98276-4.03871-.48092zm9.98355-1.32257c-.28301-.45792-.10553-1.08537.3944-1.39434 1.06731-.65964 2.69768.17759 2.69768 1.38532 0 1.08826-2.42071 1.09532-3.09208.009zm16.50758-.95617c0-.4919.40246-.89437.89436-.89437s.89437.40247.89437.89437-.40247.89436-.89437.89436-.89436-.40246-.89436-.89436zm19.45246 1.80094c1.59868-.007 2.90669-.46037 2.90669-1.00812 0-1.23307-8.06058-.21064-9.39084 1.19116-.62015.6535-.20883.77179 1.34154.38582 1.22976-.30616 3.54393-.56214 5.14261-.56886zm-.913-8.60185c-.29718-.29719-1.06858-.32896-1.7142-.0706-.71346.2855-.50154.49743.54035.54034.9428.0388 1.47104-.17255 1.17385-.46974zm144.46707-2.81353c4.37879-4.57252 6.46656-10.61759 6.40939-18.5581-.03-4.15907-.65456-8.86551-1.49175-11.24025-.79212-2.24693-1.65606-8.08267-1.91985-12.96831-.2638-4.88564-.26395-8.17867-.00034-7.31784.2636.86083.99526 1.56514 1.62592 1.56514 1.85464 0 2.28647-9.2788 2.2933-49.27634.007-40.10491-.54484-53.83632-2.14196-53.31146-.54008.17748-1.21961 1.9011-1.51007 3.83025-.62957 4.18136-.2793-10.67403.87964-37.307256 1.02918-23.650905.419-30.005806-3.2862-34.22581-1.46243-1.665596-3.36677-4.881772-4.23188-7.14704-.86512-2.265269-2.06768-4.118673-2.67237-4.118673-1.96609 0-5.8165 3.66073-7.84976 7.463065-1.93121 3.611487-2.00001 4.70222-2.43456 38.596792-.24595 19.184152-.41157 61.241722-.36804 93.461262l.0791 58.58098 3.37702 10.7324c1.85735 5.90281 3.86215 12.74471 4.45511 15.20422 2.14747 8.90743 4.49439 10.5198 8.78726 6.03697zm2.707-62.38204c.007-2.4595.18041-3.35951.38598-2.00002.20558 1.35949.20008 3.37181-.0122 4.47183-.21229 1.10001-.38048-.0123-.37377-2.47181zm-.76904-36.66901c.00067-10.82183.12982-15.12602.287-9.56487.15716 5.56116.15661 14.41539-.0009 19.67606-.15785 5.26068-.28644.71064-.28576-10.11119zm.79038-35.77464c.005-2.95141.17199-4.05098.37104-2.44349s.19494 4.02227-.009 5.36619c-.20407 1.34392-.36693.0287-.36191-2.9227zm-26.49499 117.45325 2.06997-1.94464v-102.09312-102.093123l-2.14313-2.013361-2.14313-2.01337-162.11189-.08353-162.11189-.08345-2.236995 2.600656-2.236995 2.600665.604281 100.627253c.574959 95.74431.684079 100.73576 2.248723 102.86318l1.644442 2.23592 158.206324.4509c87.01347.24799 159.99147.54984 162.17332.67078 3.0421.1686 4.44961-.23352 6.03697-1.72476zm-266.98144-13.94161c-17.8703571-.12914-32.3590878-.5765-32.1971789-.99411.161908-.41762 8.746138-7.33406 19.0760669-15.36989 10.329929-8.03582 24.818661-19.47081 32.197181-25.41108 7.378521-5.94027 15.025352-11.98611 16.992957-13.43522 1.967606-1.4491 3.979929-2.94961 4.471831-3.33447.491901-.38486 4.717781-3.57056 9.390844-7.07934 4.673064-3.50877 10.006884-7.73376 11.852928-9.38884 1.846052-1.65509 3.657143-3.00577 4.024647-3.00151.760542.009 30.945154 23.87958 33.915704 26.82141 2.16317 2.14225 2.84452 1.95461 9.16905-2.52515 1.8574-1.31562 5.34869-3.77723 7.75843-5.47026 2.40974-1.69302 4.51712-3.40835 4.68306-3.81184.16595-.40349 2.14878-2.00444 4.4063-3.55765 2.25752-1.55322 6.27914-4.79332 8.93693-7.20023l4.83236-4.37619 2.38811 1.55974c1.31346.85786 7.82138 5.82448 14.46205 11.03694s14.8912 11.46404 18.33451 13.89238 10.13074 7.44797 14.86097 11.1547c39.23108 30.74262 49.08621 38.70174 49.0862 39.64261-.00002.84126-22.99491 1.08283-103.0757 1.08283-56.69163 0-117.696894-.10567-135.56725-.23483zm-46.067609-12.43937c-.76802-.76802-.773664-126.80573-.0064-142.804102.322212-6.718443.930001-12.215352 1.350642-12.215352.636795 0 23.2557848 17.437323 48.148025 37.118044 3.197359 2.52796 12.454048 9.77097 20.570421 16.09559 23.201191 18.07936 26.830985 21.04149 26.830985 21.89573 0 .43992-2.276109 2.73675-5.058017 5.10405s-6.573779 5.71281-8.426387 7.43447c-1.852607 1.72165-5.649138 5.1426-8.436734 7.60211-2.787605 2.45951-7.950567 7.13516-11.47326 10.39033-3.522694 3.25517-10.832008 9.47615-16.242924 13.82439-38.46535 30.91102-46.131908 36.67918-47.256355 35.55474zm292.552449-2.75812c-2.32763-1.84216-13.1813-10.3925-24.11927-19.00078-10.93797-8.60827-22.11365-17.75145-24.83483-20.31815-2.7212-2.56672-12.39324-11.26539-21.49341-19.33038-9.10018-8.06499-17.47428-15.67448-18.60912-16.90998l-2.06334-2.24638 7.42953-5.64143c4.08626-3.10279 11.38003-8.88815 16.2084-12.85636 4.82838-3.96821 10.07287-8.22108 11.65441-9.45083 1.58155-1.22976 6.87001-5.45564 11.75214-9.39085 19.43926-15.6689 47.476-37.109021 48.53114-37.1125.8804-.0027 1.11826 10.116345 1.11939 47.6213.0008 26.19375.26716 61.20819.59193 77.80986.50229 25.67687.4019 30.18418-.67222 30.18035-.69448-.003-3.16712-1.51172-5.49475-3.35387zm-148.71992-61.31456c-2.45105-2.12082-11.70083-9.80106-20.55505-17.06719-8.854226-7.26614-17.909683-14.74106-20.123239-16.61095-7.668421-6.47785-16.900444-13.91164-22.523333-18.13622-10.184496-7.65177-59.1807971-48.496463-59.54840756-49.641216-.28607374-.890842 25.74388956-1.117958 128.13159956-1.117958 80.30227 0 128.3788.317017 128.19247.845302-.32336.916877-19.02006 16.536543-33.38966 27.89452-4.91902 3.888069-10.95599 8.716179-13.41549 10.729142-9.21037 7.5381-39.08392 32.23051-59.64072 49.29688-11.70198 9.71505-21.59029 17.66373-21.97401 17.66373s-2.70309-1.73522-5.15416-3.85604zm-196.470166 76.45378c.402677-5.46372 2.855266-4.38089 2.855266 1.26062 0 1.18951.402464 2.16276.894366 2.16276.491901 0 .894366-.87018.894366-1.93374 0-1.06357.949369-3.57897 2.109708-5.58979l2.109707-3.65605-.120616-61.019c-.0925-46.7981-.375748-61.27414-1.21534-62.11373-.6021-.6021-1.094727-2.59789-1.094727-4.43509 0-1.83721-.358491-4.28327-.796647-5.435718-.438158-1.152436-1.051747-5.274578-1.363534-9.160322s-1.060073-7.663654-1.662858-8.395361c-.895645-1.087201-1.195896-.199981-1.642631 4.853868-.522431 5.910177-.542489 5.820687-.45263-2.019568.09519-8.304932-.705559-11.576551-1.684494-6.882363-.294206 1.410774-1.002731 4.137374-1.5745 6.059116-1.270518 4.270277-1.556256 148.579108-.308804 155.958438.942598 5.57597 2.653626 5.76982 3.053368.34593zm396.916816.51669c-.3094-1.10678-.81844-5.13121-1.1312-8.94319-.47922-5.84071-.76787-6.76553-1.83518-5.87974-.82314.68314-1.06364 1.8571-.68699 3.3534.31875 1.26625.74334 4.44759.94355 7.06965.39267 5.14275.85325 6.4122 2.32647 6.4122.55136 0 .71125-.83933.38335-2.01232zm-1.84553-138.21763c-.266-.26601-.67844-.28886-.91652-.0508-.78039.78038-.70347 12.01061.0975 14.23642.57483 1.59738.85157.0675 1.0426-5.76371.14303-4.36606.0424-8.15594-.22359-8.42194zm-385.37513-14.12285c.538485-18.428808.341084-20.258985-4.646418-43.078523-1.285753-5.882765-4.563435 2.985573-3.550016 9.60518.33966 2.218645.951599 8.058552 1.359863 12.977566.408263 4.919013 1.388202 13.370773 2.17764 18.781689.789437 5.410915 1.687713 12.373824 1.996167 15.473128 1.015299 10.20157 2.131111 4.43595 2.662764-13.75904zm-9.826033-17.589088c-.248109-.614876-.451106-.111795-.451106 1.117958 0 1.229754.202997 1.732835.451106 1.117958.248108-.614877.248108-1.621039 0-2.235916zm0-8.943661c-.248109-.614877-.451106-.111796-.451106 1.117958 0 1.229753.202997 1.732834.451106 1.117957.248108-.614876.248108-1.621038 0-2.235915zm402.293843-18.079093c-.42845-4.572071-1.18033-7.458656-2.2887-8.786593l-1.65065-1.977622-.0248 3.130281c-.036 4.554435 3.16205 15.883013 4.19283 14.852238.22514-.225139.12221-3.473369-.22871-7.218304zm-38.6796-6.068793c.78968-.614877 2.13048-4.309342 2.97954-8.209923 2.01576-9.260258 1.39403-23.5276819-1.38798-31.8511925-2.97917-8.9133805-9.81397-18.7434585-13.03224-18.7434585-1.73455 0-1.73427.0016 2.37198 13.4154922 2.76053 9.0178169 2.87832 10.0318609 2.96525 25.5282438.0776 13.842702.31601 16.481619 1.67628 18.558095 1.78401 2.723336 2.37817 2.898176 4.42717 1.302743zm-264.292728-25.051322c1.326595-1.326599 2.370186-3.8406092 2.888785-6.9590833.446548-2.6852092 2.459032-8.4274682 4.472188-12.7605756 3.198253-6.8839131 4.081503-8.0563561 6.997306-9.2883721 2.952464-1.247503 13.077046-1.422823 87.854629-1.521314l84.5176-.111319 3.74925-1.995221c2.06209-1.097372 4.83793-3.422565 6.16855-5.167096 2.22693-2.919658 2.33772-3.444165 1.39336-6.596174-.56427-1.883365-1.02594-4.283152-1.02594-5.33286s-.40247-1.90856-.89437-1.90856-.89437.814891-.89437 1.810869c0 1.060918-.83338 2.11945-2.01232 2.555985-4.01873 1.488042-23.76185 1.923562-84.29401 1.859475-80.918054-.08567-103.577545-1.135649-106.350572-4.927985-.926456-1.267011-1.597284-1.319699-5.030854-.395135-6.380131 1.71799-11.846577 4.908329-15.8477569 9.249098-4.1028868 4.451106-5.226741 7.387223-4.250806 11.105413.3526665 1.343641.9236298 5.863933 1.2688104 10.0450952.3621736 4.3870806 1.2661363 8.7368294 2.1374725 10.2852107.8304279 1.4757041 1.5123553 3.1721754 1.5153872 3.7699357.00805 1.5200289 5.3402338 7.4336514 7.5587268 8.3824064 2.852706 1.219984 7.787174.191961 10.078934-2.099793zm292.916368 291.201437c1.60974-3.03247 3.0555-5.38564 3.2128-5.22926.39434.39204-2.95774 6.76747-4.70793 8.95413-.78743.9838-.11462-.69238 1.49513-3.72487z" fill="#278cac"/><path d="m38.845151 359.95867c-2.340136-.6504-4.956157-2.03616-5.81338-3.07946-1.148303-1.39757-4.8547-2.69795-14.07972-4.93982-14.1542564-3.43978-22.9260028-5.15047-23.4945093-4.58196-.7752053.77521.8933036 2.36134 4.32631915 4.11273 4.35529575 2.22191 4.48973685 3.03375.37454713 2.26173-3.65407418-.68551-12.01056598-4.54647-19.66410098-9.08543-7.219897-4.28179-8.732259-5.70818-7.555525-7.12606.650164-.7834.649203-1.30258-.0031-1.70576-.515816-.31877-.937824-1.33401-.937824-2.25608 0-1.94334-10.725795-15.38589-17.488847-21.91865-8.285501-8.00336-17.53457-16.54577-17.914488-16.54577-.20422 0-.37131.99353-.37131 2.20785 0 1.68243-.350451 2.07336-1.472638 1.64274-1.858969-.71336-9.230704-16.29421-12.242297-25.87525-4.944066-15.72899-4.891112-14.47965-4.980261-117.49646-.08894-102.771272-.06321-103.40494 4.964025-122.275591 2.696646-10.122352 18.399754-39.6046797 21.094555-39.6046797 1.197542 0 11.400531-7.4307913 19.020417-13.8524853 12.03905-10.145964 32.1933739-21.836554 44.7183072-25.93902 9.4527618-3.096194 22.7588008-3.920759 30.3727638-1.882177 2.931777.784963 8.566284 1.438111 12.521126 1.451439 3.954833.01333 11.01403.410691 15.687093.883028 16.520266 1.669812 75.662576 2.424256 108.218306 1.380477 9.10017-.291763 25.60123-.755074 36.66901-1.029578 11.06778-.274505 21.50087-.857902 23.18464-1.296437 3.62076-.943026 13.13355.354711 21.29855 2.905557 3.08831.964826 8.82101 3.951045 12.84303 6.690057 3.99563 2.721036 10.33963 6.531584 14.0978 8.467884 9.06114 4.668528 13.07498 7.14476 16.02004 9.883151 1.34186 1.247687 3.59186 3.000319 5.00002 3.894739 3.06532 1.947005 11.17337 11.9920179 19.91905 24.6775723 9.87171 14.3188727 13.68823 26.1973407 16.47951 51.2904367.68878 6.192046.88975 36.872561.65321 99.721827l-.34166 90.77816-2.78228 9.83803c-4.18998 14.81562-9.45288 28.17253-11.10058 28.17253-.43585 0-.79246-.5837-.79246-1.2971 0-.71341-.64126-1.65598-1.42501-2.09458-1.30375-.72962-1.30375-1.15459 0-4.99472 1.84632-5.43816 1.89026-10.39529.0922-10.39529-.73308 0-2.74332 1.91171-4.46722 4.24824-3.25016 4.4052-12.2632 21.34717-13.44131 25.26585-.59024 1.96328-3.92759 9.50964-8.20634 18.556-2.10896 4.4589-8.19506 8.33524-30.5902 19.48338-21.62383 10.7642-23.94202 12.49709-21.02702 15.71812 2.13269 2.35659 1.06172 3.1968-6.40348 5.02371-5.61157 1.37327-15.30122 1.53649-101.4541 1.70897-76.69135.15353-96.078999-.0397-99.504779-.99185zm183.798789-5.60159c1.35273-.59668 2.45951-1.64822 2.45951-2.33676 0-1.77412-4.22563-2.51084-16.54578-2.88469-5.90281-.17911-16.3669-.6854-23.25352-1.12508-16.18334-1.03323-14.28452-.98604-46.50704-1.15566-31.64939-.16659-37.16646-.0545-51.426049 1.04528-5.656866.43628-17.932041 1.01371-27.278167 1.28321-17.367822.5008-25.489435 1.69545-25.489435 3.74942 0 2.55338 4.203592 2.65367 107.771121 2.57114 58.91876-.0469 78.40699-.3254 80.26936-1.14686zm-275.69512-63.064c-.0038-1.59868-.386395-5.32147-.8504-8.27288-.464004-2.95141-1.262814-9.99454-1.775134-15.65141s-1.759523-13.10246-2.771563-16.54577-2.25096-7.66919-2.753157-9.39085c-.581511-1.99357-1.032039-33.50893-1.240664-86.78701l-.32758-83.656727-2.292301-12.409617c-1.260767-6.825283-2.292303-13.326511-2.292303-14.44717 0-1.981504-1.448042-3.676301-2.361006-2.763341-.249296.249296-1.060275 3.408698-1.802174 7.0209-.83107 4.046353-2.093423 7.367681-3.288286 8.651686l-1.939378 2.084061-.27001 88.694108c-.148505 48.78175-.03615 90.30396.24969 92.27156.285834 1.96761.910419 4.18116 1.387966 4.91902.771795 1.19248.966121 1.19248 1.74894 0 .484369-.73786.886833-2.8508.894366-4.69543.0075-1.84463.408493-3.35387.891022-3.35387 1.415876 0 2.050594 4.13314 1.462688 9.52469-.684544 6.27779 1.484964 23.21868 3.853328 30.08921 3.488084 10.11879 8.710394 17.62553 12.261777 17.62553.782607 0 1.21851-1.04352 1.214179-2.90669zm-19.375822-204.139068c.0039-3.44331.165622-4.742341.35923-2.886746.193609 1.855604.190362 4.672857-.0072 6.260563-.197576 1.587715-.355982.06949-.352015-3.373817zm.01312-16.098591c.0032-3.935211.160486-5.43382.349417-3.330235.18893 2.103585.186272 5.323303-.0059 7.154929-.192183 1.831626-.346762.110517-.343514-3.824694zm205.717032 219.119709c.73785-.73786 2.17523-1.34155 3.19416-1.34155 1.05053 0 1.85262.58083 1.85262 1.34155 0 .7453.79499 1.34155 1.78873 1.34155.98381 0 1.78874-.56065 1.78874-1.24587 0-1.36675 2.39884-2.61284 3.60039-1.87024.41574.25693 3.49852.0448 6.85063-.47138 3.35211-.51621 7.50338-1.0683 9.22503-1.22687 4.51305-.41567 14.20711-2.30359 18.10654-3.52625 3.82696-1.19995 4.14107-2.9794.45156-2.55817-1.75439.20031-2.45951-.1202-2.45951-1.11795 0-1.72036-1.52825-1.73992-4.47183-.0572-2.44183 1.39588-7.55513 1.81828-6.77739.55987.26571-.42993 2.80487-1.92582 5.64257-3.32422l5.15947-2.54254-8.94366-.6827c-16.72884-1.27699-72.913641-.52467-72.877956.97583.0072.29806 2.120024 1.7356 4.695426 3.19453l4.68253 2.6526-5.813379.60046c-3.197359.33026-6.265446.23642-6.817977-.20853-.55253-.44493-1.715769-.53608-2.584986-.20253-1.499351.57536-1.4964.66786.0576 1.80417.900886.65873 2.423205 1.1977 3.382931 1.1977.959727 0 4.529831.82938 7.933561 1.84305 6.23201 1.85597 9.5995 2.37125 16.58699 2.53805 2.74214.0655 3.80105.46446 3.80105 1.43228 0 1.71335 2.62533 1.74342 3.92606.045.75026-.97969 1.75804-1.11136 4.12324-.53873 1.72165.41683 2.42597.79906 1.56514.84942-.86085.0503-1.56516.494-1.56516.9859 0 1.34667 2.37564 1.07405 3.89688-.44718zm181.88282-15.2203c3.49645-2.44901 5.50567-6.28899 7.75731-14.82561 1.9936-7.55833 2.13041-9.13782 1.3484-15.56677-.48026-3.94812-1.04579-45.63657-1.26178-93.01408-.21531-47.22253-.73941-87.506676-1.16469-89.520323-.74527-3.528722-5.7375-13.244919-7.30215-14.211934-.41895-.258919-1.02718-2.042044-1.35164-3.962499-.57603-3.409457-.65499-3.473065-3.35133-2.699769-3.84681 1.103254-6.47825 3.835015-8.72494 9.057604l-1.92272 4.469478-.16189 93.152033-.16189 93.15203 3.32784 10.34339c1.83031 5.68886 3.75826 12.35037 4.28434 14.80336 1.09229 5.09317 3.88632 10.18071 5.59117 10.18071.63563 0 2.02792-.61093 3.09397-1.35762zm-21.54127-19.87785 2.11367-1.8827v-102.20006-102.200073l-2.40324-2.508447-2.40324-2.508447h-161.78174-161.781747l-2.628199 2.628203-2.628199 2.628193.237489 101.875501c.253882 108.90723.0491 103.99371 4.401321 105.6037.848558.3139 74.266741.54285 163.151525.50879l161.60869-.062 2.11367-1.88271zm-298.8591251-15.30372c-.1749103-.17456 12.4353617-10.25974 28.0228221-22.41154 40.696772-31.7267 49.619443-38.76616 59.47652-46.92348 4.827091-3.99471 9.052971-7.36 9.390845-7.47844.6173-.21638 29.824048 22.953 34.323238 27.22824 1.32337 1.25749 2.93323 2.06955 3.57747 1.80457 1.53783-.6325 20.83561-16.1915 29.21849-23.55767l6.58236-5.78402 2.3613 1.54452c1.29872.84948 18.05744 13.86018 37.24159 28.91267 19.18415 15.05248 40.21294 31.53696 46.73063 36.63218s11.85041 9.50846 11.85048 9.80718c.00012.56282-268.212247.78813-268.7757451.22579zm-14.7384509-89.11925c0-51.497936.302054-77.362674.903458-77.362674.751525 0 21.950211 16.295468 48.28668 37.118044 3.197359 2.52796 12.454048 9.77097 20.570421 16.09559 23.201191 18.07936 26.830985 21.04149 26.830985 21.89573 0 .43992-2.256987 2.73675-5.015534 5.10405-2.758538 2.3673-9.902288 8.55875-15.874999 13.75877-9.178004 7.99065-48.1585049 40.08484-57.4947037 47.33767-1.5830003 1.22975-6.1020178 4.75132-10.0422613 7.8257-3.940244 3.07438-7.389072 5.58979-7.664063 5.58979s-.499983-34.8132-.499983-77.36267zm293.197126 74.90865c-1.63642-1.3497-3.37778-2.91117-3.86968-3.46991s-8.74243-7.16404-18.3345-14.67843c-27.56224-21.59214-59.14096-48.307-67.27846-56.916l-2.43691-2.57812 30.60944-23.83853c36.30956-28.277734 48.2019-37.690633 57.08971-45.187014 3.6362-3.066951 7.11437-5.582356 7.72924-5.589788.88585-.01073 1.11796 16.048032 1.11796 77.349142 0 46.69291-.32736 77.36267-.82574 77.36267-.45417 0-2.16464-1.10431-3.80106-2.45402zm-154.57037-65.38656c-38.087105-31.98099-110.3021714-91.448768-114.4099236-94.214461-1.6837301-1.133627-3.2265117-2.564228-3.42840146-3.179105-.29251228-.890878 25.71661406-1.117958 128.04900506-1.117958 70.62884 0 128.41607.324092 128.41607.720207 0 .396114-8.71459 7.741096-19.36576 16.322182-23.49016 18.924805-40.83287 33.185345-87.26784 71.758535-11.67188 9.69575-21.53227 17.62128-21.91197 17.61228-.37968-.009-4.91622-3.56476-10.08118-7.90168zm211.752-113.118231c-.47915-7.680405-3.16761-15.801742-5.23093-15.801742-.78568 0-.93493 1.853422-.55815 6.931338.65256 8.794624 2.87594 16.322182 4.82102 16.322182 1.23692 0 1.36937-1.019488.96806-7.451778zm-38.6563-7.542547c2.03822-1.439724 3.29316-8.429357 3.73097-20.780321.43567-12.2900429.33555-13.342524-1.91404-20.1232379-3.79968-11.4529431-12.35307-22.6484901-15.71569-20.5702751-1.36269.842188-.89007 3.795062 2.59057 16.1851201 2.57026 9.1494167 2.80505 11.1438406 3.00555 25.5312799.18384 13.191811.46285 15.980651 1.80325 18.024241 1.54683 2.358301 4.49966 3.145737 6.49939 1.733193zm-265.573163-26.504264c1.777848-1.777852 3.040845-3.937141 3.040845-5.1988135 0-1.186882 1.055692-4.3462304 2.345985-7.02077423 1.290293-2.67454297 3.275902-6.96541387 4.412463-9.53526857 1.353802-3.0610437 3.0894-5.2961187 5.032535-6.4808117 2.921054-1.78091 4.239752-1.808399 86.911285-1.811691l83.94523-.0033 5.21786-2.781094c8.54573-4.554823 9.0371-5.57192 6.86604-14.211863-.81307-3.235681-1.74858-5.017971-2.73373-5.208184-.88858-.171565-1.49768.283104-1.49768 1.117958 0 1.616947-1.8676 1.864879-3.29505.437433-2.95847-2.958476-185.767075-2.627931-193.976408.350738-10.917474 3.96129-17.4666934 8.738897-19.585801 14.287691-1.3100336 3.430275-1.3159766 4.141374-.06426 7.689123.7586067 2.150108 1.3792789 6.5415419 1.3792789 9.7587451 0 5.3941932.3185285 6.360512 4.0925569 12.4156981 4.3805872 7.0283658 7.1089492 9.1425698 11.8718782 9.1994928 2.242829.0268 3.760667-.728729 6.036972-3.005036zm-68.413073 314.190642c-3.495766-3.55166-6.355937-6.89291-6.355937-7.42499 0-.5321 3.100709 2.13326 6.890466 5.92302s6.649928 7.13101 6.355937 7.425c-.293992.29399-3.394702-2.37137-6.890466-5.92303z" fill="#036697"/><path d="m-5.6430179 351.88639c-1.2297534-.70299-1.8334506-1.27816-1.3415492-1.27816s1.9005281.57517 3.1302815 1.27816c1.2297535.70299 1.8334506 1.27817 1.3415492 1.27817-.4919013 0-1.900528-.57518-3.1302815-1.27817zm-6.4841541-2.74747c-3.467651-1.88123-3.07491-2.53045.447183-.73922 3.3713343 1.71457 3.9679928 2.15894 2.8321594 2.10933-.4509099-.0197-1.9266144-.63624-3.2793424-1.37011zm306.096812-26.16353c0-.40615 1.07763-1.71416 2.39473-2.90669l2.39473-2.16822-2.00845 2.90669c-2.02683 2.9333-2.78101 3.5213-2.78101 2.16822zm-364.865488-33.47104c-6.529363-13.88299-11.662658-32.19857-11.662658-41.61229 0-3.83691 1.190426-3.0724 1.498479.96233.655526 8.58578 7.626026 31.6137 14.064352 46.46334.799772 1.84463 1.219496 3.35388.93272 3.35388s-2.461578-4.12527-4.832893-9.16726zm239.475798-19.03465c-.27373-.27374-17.14848-.59764-37.49943-.71978-32.399304-.19445-37.780428-.42428-43.262276-1.84775-3.443309-.89412-7.091429-2.38608-8.106937-3.31544-1.186099-1.08549-3.166172-1.68977-5.537003-1.68977-5.20242 0-5.490827 1.4495-.425298 2.13744 5.232194.71059 7.30504 1.85422 5.902638 3.25662-1.118834 1.11884-7.882532-.28946-8.841373-1.8409-.295758-.47854-1.306275-.87006-2.24561-.87006-1.162998 0-1.54093-.43508-1.184579-1.3637.393244-1.0248-.113817-1.36754-2.040398-1.37921-1.410031-.009-6.588339-.38851-11.507353-.8444s-9.748591-.8249-10.732394-.82002c-.983803.004-3.197359-.027-4.919014-.0707-17.158602-.43656-31.4908643-.30391-38.90492707.36008-10.25879393.91875-9.55146493.90511-14.51697593.27998-2.08152-.26205-5.187243-.046-6.901608.48018-4.222687 1.29597-16.050771-.36457-19.191271-2.69426-4.643604-3.44474-4.595563-2.5123-4.544662-88.20587.02604-43.83295.134835-88.550473.241774-99.372303.191037-19.332153.23333-19.733554 2.419749-22.965847 2.055345-3.038519 6.621305-6.07364 9.208198-6.120943.598188-.01091 2.073939-.777911 3.279446-1.704385 1.854902-1.425566 2.012808-1.900215 1.027223-3.087772-.972817-1.172174-.825176-2.104444.896514-5.66098 2.156718-4.455187 2.496463-9.61706.837054-12.717695-.526953-.98462-.980639-3.916952-1.008191-6.516296-.02756-2.599343-.0989-6.7992172-.158553-9.3330531-.08819-3.74610982.350295-5.2084307 2.346586-7.8257038 1.350275-1.7703012 3.048221-3.2187289 3.773215-3.2187289s1.700712-1.0061619 2.168264-2.2359154c.6715-1.7661818 1.474792-2.2359158 3.823638-2.2359158 1.635449 0 3.416724-.443179 3.958387-.984842 1.284559-1.284559 5.820502-.276162 8.603003 1.912554 1.6865 1.3266009 2.2939758 2.8899315 2.7749677 7.1413341.82855069 7.3234241 10.4320755 25.9168679 13.3860773 25.9168679.671454 0 1.721843.603697 2.334206 1.341549.662913.798757 2.617542 1.341549 4.831 1.341549 3.34831 0 4.316908-.570527 9.750639-5.743386 3.31817-3.158862 6.464907-6.982278 6.992762-8.496478.979269-2.8091279 4.362218-3.9887227 4.362218-1.5210538 0 .6776219.535117 1.6761438 1.18914 2.2189408.703678.584002 1.027367 2.089195.792855 3.686974-.429975 2.929618.370527 3.487129 1.944057 1.353942 1.122868-1.522241 11.862962-3.783128 21.430712-4.511356 9.322077-.70953 23.798815-2.0237163 27.410838-2.4883332 6.721099-.86454 30.774392-1.627352 46.954222-1.4890794 9.34613.079876 17.79789.1506881 18.78169.1573691.9838.00671 5.61215.3652976 10.28521.7969258 4.67306.4316292 12.72236 1.0144098 17.88732 1.2950677 5.16497.28066 11.80564.814694 14.75704 1.186743 7.16406.903087 11.2199.732433 13.58029-.571405 1.07444-.593503 2.58368-1.079095 3.35388-1.079095 1.59234 0 1.87254 1.39133.45645 2.266521-.51913.320844-.82098 1.208236-.67077 1.971982.36455 1.853543 6.87979 2.114934 8.99318.360806 2.50308-2.077569 1.7867-3.970282-2.54101-6.7135432-3.0292-1.9201585-3.97264-3.0396956-3.7684-4.4718307.31925-2.23867363 4.51786-3.13564685 6.59773-1.4095104.71396.5925355 2.57119 1.7283948 4.12718 2.5241321 3.73537 1.9102802 5.22552 4.3171706 3.41021 5.5081542-1.11447.731176-.8117 1.328339 1.78873 3.527945 1.72165 1.456284 3.61785 2.658615 4.21377 2.671848.59591.01323 1.51697 1.633918 2.04679 3.601524 1.03296 3.836099 3.26598 4.766525 5.3662 2.235915 1.62011-1.952108 2.4675-1.669643 4.02465 1.341549.84198 1.628219 2.09274 2.683099 3.18131 2.683099 2.46646 0 3.39584 2.753681 1.33908 3.967551-.88667.523302-2.98868 1.857008-4.67112 2.963786-1.68245 1.106778-3.81251 2.012324-4.73348 2.012324-.92096 0-1.80863.395203-1.9726.878232-.17314.51003-7.01095 1.049145-16.30953 1.285893-10.53328.268184-16.22526.753673-16.63644 1.418965-.36293.58725-5.16741 1.330066-11.4578 1.771498-5.95803.418098-11.15633.960147-11.55177 1.204541-.98393.608098-26.29889.518786-72.82902-.256933-6.22847-.103845-12.06421.193398-12.96831.660516-2.26565 1.1706-17.789856.506023-27.879818-1.193496-4.591756-.77343-9.512907-1.150512-10.935889-.837976-3.181448.698768-6.204888-.16984-6.204888-1.782615 0-1.488619-5.01557-2.391785-11.670763-2.101582-4.378003.190903-5.452593-.135174-9.116498-2.76639-2.646134-1.900314-4.701253-2.772616-5.662858-2.403609-.935936.35915-2.659335-.297914-4.536243-1.729499-2.215318-1.689708-3.562743-2.131453-5.025533-1.64761-3.080876 1.019059-5.372886 1.073678-7.750648.184696-1.780191-.665561-2.555768-.40183-4.276868 1.454293-4.6415458 5.005704-10.85302152 6.149044-8.3885115 1.54406 1.936241-3.617908.6647913-3.7923-4.3889758-.601998-1.9480556 1.229754-4.1994327 2.235916-5.003061 2.235916-1.5373796 0-6.7541767 2.651572-11.8773337 6.036971-1.6749 1.106778-3.79404 2.012324-4.709199 2.012324-1.067682 0-1.663926.640965-1.663926 1.788732 0 1.496239-.596244 1.788732-3.646262 1.788732-2.835048 0-4.226114.579854-6.252592 2.606327l-2.60633 2.606335.02269 101.896555.02269 101.89655 2.56901 2.46127 2.569011 2.46127 156.746336.13619c154.17716.13396 162.2076.27719 155.81569 2.77916-.88161.34509-10.05469.51249-20.38462.37201-38.01296-.51697-52.91218.56462-50.97416 3.70039.45246.73211-1.63816 1.8006-3.43174 1.75392-.57463-.0149-.34049-.43742.52034-.93881.86083-.50138 1.56514-1.35217 1.56514-1.89063 0-1.30795-13.28989-.32224-14.65235 1.08677-.7518.77748-.003.95834 3.02559.73075 4.84507-.36408 5.35502 1.05054.93304 2.58833-2.73413.95081-3.31996.89996-4.26944-.37063-1.12199-1.50145-3.85264-1.20485-14.10374 1.53193-4.49267 1.19944-9.0436 1.81043-9.56927 1.28476zm58.47753-238.367914c.1729-.518687 1.09016-1.056926 2.03836-1.196098.94821-.139163 1.89898-.777902 2.11282-1.419422.29241-.87723-.24989-.996905-2.18743-.482761-1.41693.376001-4.99102.612954-7.94243.526567-4.06998-.119129-5.11617.09356-4.3311.880504 1.95306 1.95774 9.79229 3.243687 10.30978 1.69121zm-179.485712-6.211855c.304013-.491902-.27593-.894367-1.288764-.894367s-1.841518.402465-1.841518.894367c0 .491901.579943.894366 1.288764.894366s1.537505-.402465 1.841518-.894366zm-4.024648-5.366197c0-.983803-.402465-1.788733-.894366-1.788733s-.894366.80493-.894366 1.788733c0 .983802.402465 1.788732.894366 1.788732s.894366-.80493.894366-1.788732zm14.309858 245.056326c0-.4919.402465-.89437.894367-.89437.491901 0 .894366.40247.894366.89437s-.402465.89436-.894366.89436c-.491902 0-.894367-.40246-.894367-.89436zm-133.864288-10.95599-2.526549-7.37852-.270294-88.54225c-.263779-86.408144.103275-101.898101 2.568237-108.381442.455944-1.199228 1.232207-1.931205 1.72503-1.626628 1.478433.91372 1.022229 6.875708-.6691 8.744253-1.46455 1.617998-1.582494 7.428042-1.83515 90.401407-.148505 48.76975-.03615 90.28213.24969 92.24973.285834 1.96761.910419 4.18116 1.387966 4.91902.771795 1.19248.966121 1.19248 1.74894 0 .484369-.73786.886833-2.8508.894366-4.69543.0075-1.84463.408493-3.35387.891022-3.35387 1.391557 0 2.051199 4.09049 1.480272 9.17927-.288996 2.57588-.535217 7.19881-.547157 10.27319-.0316 8.13572-1.926664 7.4707-5.097273-1.78873zm412.29651.56894c-.30463-.79387-.0902-5.72406.47654-10.95599.70346-6.49414 1.03436-36.75665 1.04283-95.37174.0115-78.969235.46234-96.300727 2.19714-84.445063.8132 5.557502.0218 186.757643-.82873 189.756673-.78023 2.75101-2.05052 3.19798-2.88778 1.01612zm-11.02408-1.91049c-.004-.36892-.43168-4.29295-.95033-8.72007-.57784-4.93235-1.06235-42.16245-1.25122-96.14436-.16953-48.452283-.59237-88.805887-.93965-89.674683-.84289-2.108665.35855-11.388689 1.47445-11.388689.48417 0 1.6729 1.911708 2.64163 4.248239.96872 2.336532 2.53141 5.858099 3.47264 7.825704 1.57769 3.298145 1.75971 6.78967 2.33121 44.718309.71855 47.68655.64428 126.04933-.125 131.919-.69956 5.33757-4.78671 17.88733-5.82547 17.88733-.45151 0-.82422-.30185-.82826-.67078zm-407.753019-12.37206c.04292-1.04189.254841-1.25381.540347-.54035.258356.64562.226582 1.41702-.07061 1.71421-.29719.29719-.508573-.23105-.469739-1.17386zm327.043809-1.33866c-.86083-.50138-1.57273-1.39469-1.58202-1.98513-.0196-1.24333-11.83687-11.35872-13.26985-11.35872-.5281 0-1.36144-.74973-1.85185-1.66607s-2.21504-2.19782-3.83252-2.84772c-1.61748-.64991-5.33507-2.71743-8.26131-4.59449-5.72083-3.66969-7.64787-4.19159-7.64787-2.0713 0 1.913 3.26006 4.91901 5.33473 4.91901.9665 0 2.20844.84302 2.75986 1.87337.8942 1.67083.80178 1.80963-.85489 1.28382-2.92652-.92884-3.82312.19798-2.37923 2.99016 1.26078 2.43808 1.24524 2.46379-1.26529 2.09533-1.97292-.28957-2.78963.0974-3.64952 1.7291-.6093 1.1562-1.55063 2.40402-2.09187 2.77294-1.20504.8214.9357 2.42544 3.26417 2.44582 1.77336.0156 2.16398 1.72166.44718 1.9532-.61487.0829-4.33767.26573-8.27289.40622-3.93521.14049-9.56971.50219-12.52112.80378s-7.47914.53723-10.06162.52363-5.8022-.006-7.15493.0164c-1.35273.0225-17.06906.21773-34.92517.43369-31.40074.37974-32.60354.33155-36.66901-1.46957l-4.20335-1.86221-1.227044 1.84021c-1.460294 2.19-4.561589 2.36144-8.246583.45585-1.472377-.7614-4.571499-1.35715-6.886924-1.3239-2.315433.0333-5.87324-.1865-7.906259-.48833-2.287762-.33965-3.926795-.17597-4.301016.42954-.789698 1.27774-5.582097 1.26568-6.374255-.016-.767142-1.24128 1.202359-2.55131 3.862857-2.56942 2.325504-.0158 2.595102-1.09974.670775-2.69679-.737852-.61236-1.341549-1.53556-1.341549-2.05155 0-.516-1.868349-2.72836-4.15189-4.91638-2.283531-2.18801-4.244491-4.83566-4.357682-5.88366s-.257166-2.42195-.319951-3.05322c-.182576-1.83594-6.280382-7.47359-8.899095-8.22756-2.200686-.6336-2.252193-.74835-.63602-1.41677 2.179293-.90135 9.420976-8.05589 9.420976-9.30764 0-1.17915-1.514529-1.19076-2.239851-.0172-.306168.4954-1.738549 1.5119-3.183058 2.25889-5.536618 2.86309-2.188907-.73507 8.776782-9.4334 6.271743-4.97495 16.163727-12.94354 21.982196-17.70797 5.81846-4.76443 10.84927-8.7595 11.179577-8.87794.60621-.21736 29.849804 22.99056 34.309474 27.22824 1.32337 1.25749 2.93323 2.06955 3.57747 1.80457 1.53401-.63093 20.82653-16.18358 29.17646-23.52057 5.10423-4.48504 6.87165-5.56806 8.04929-4.93239.82994.44799 14.22569 10.81209 29.76834 23.03134s36.7526 28.85748 47.13321 36.97386c10.38062 8.11637 18.89392 15.26012 18.91845 15.875.0558 1.39878-15.69814 1.53128-18.06631.15195zm-305.76371-3.1961c-1.011567-1.21886-1.24586-12.19133-1.332029-62.38204-.09715-56.58376.475085-76.766868 2.267286-79.969351 1.21854-2.177415 1.826956.110373 2.370295 8.912871.514332 8.33257.621856 10.71087 1.712519 37.8788.959081 23.89028.349444 72.64271-1.188281 95.0264-.16244 2.36452-2.087541 2.6326-3.82979.53332zm274.2373-.30973c-.30401-.4919.0747-.89436.84159-.89436.76688 0 1.39433.40246 1.39433.89436 0 .49191-.37871.89437-.84158.89437s-1.09032-.40246-1.39434-.89437zm60.36494-10.48275-2.7744-2.48555.0696-66.21157c.0722-68.75748-.0391-70.982868-3.64499-72.912714-.93211-.498824-1.69471-1.235889-1.69471-1.637924 0-.971443 10.31049-9.044126 11.55123-9.044126 1.26526 0 1.38346 153.469814.11879 154.251424-.46811.2893-2.09958-.59249-3.6255-1.95954zm-293.347316.8236c0-1.16446 2.044964-2.86197 3.447771-2.86197 1.032981 0 .967519.36881-.31749 1.78873-1.662804 1.83738-3.130281 2.34051-3.130281 1.07324zm-62.535023-3.38368c.04292-1.04189.254841-1.25381.540347-.54035.258356.64562.226582 1.41701-.07061 1.7142-.29719.29719-.508573-.23105-.469739-1.17385zm0-5.3662c.04292-1.04189.254841-1.25381.540347-.54035.258356.64562.226582 1.41702-.07061 1.71421-.29719.29719-.508573-.23105-.469739-1.17386zm.136888-8.42195c0-1.72165.184056-2.42597.409014-1.56514s.224958 2.26945 0 3.13028-.409014.15652-.409014-1.56514zm90.5706684-4.89129c3.5193666-2.88478 5.1472646-2.90688 2.0422226-.0277-1.3262378 1.22975-2.9319828 2.23391-3.5683332 2.23147-.6363415-.003.050442-.99414 1.5261106-2.20375zm-90.6038084-1.81646c.01823-1.4757.218671-1.97112.445432-1.10093s.211848 2.07758-.03314 2.68309c-.244987.60552-.430519-.10645-.412292-1.58216zm102.54712-7.35803c.50682-.947 3.436298-3.90472 6.509948-6.57273 3.07366-2.66801 8.027142-7.43097 11.007743-10.58438 2.9806-3.1534 6.727288-7.00539 8.325967-8.55998 3.559461-3.4613 3.820571-5.8298.642709-5.8298-2.570515 0-4.005427-2.4666-2.114585-3.63492.68656-.42421 1.28083-1.69161 1.320621-2.81642.0398-1.12483.363148-3.67362.718596-5.66399.559882-3.13511.340995-3.94825-1.637468-6.08306-2.03936-2.20049-2.938968-4.16077-1.909463-4.16077.376323 0 6.506943 5.27881 9.711708 8.36233 2.003997 1.92817 3.811278.82514 2.973409-1.81475-.592133-1.86564-8.426887-10.12504-9.604473-10.12504-.410549 0-1.811806-1.60986-3.113905-3.57747-1.302099-1.9676-2.869127-3.57746-3.482295-3.57746-.939299 0-8.574959-6.8526-20.543179-18.43641-2.899839-2.8067-7.938967-6.52478-24.8047605-18.302005-6.0423755-4.219333-11.6904495-7.929504-12.5512765-8.244822-1.272337-.466045-1.565141-1.666106-1.565141-6.414752 0-3.337246.387308-5.841445.903458-5.841445.751525 0 21.950211 16.295468 48.28668 37.118044 3.197359 2.52796 12.454048 9.77097 20.570421 16.09559 23.201191 18.07936 26.830985 21.04149 26.830985 21.89573 0 .43992-2.11294 2.6138-4.695423 4.83084-2.582482 2.21704-9.935683 8.58104-16.340454 14.14222-12.44675 10.80735-32.772616 27.50474-35.007235 28.75791-1.115176.62538-1.191492.45558-.432587-.96246zm33.222179-34.22999c0-1.06177-1.553783-1.06177-4.024648 0-1.498975.64413-1.317875.77883 1.117958.8315 1.598679.0346 2.90669-.3396 2.90669-.8315zm-135.873047 33.4642c.04292-1.04189.254841-1.25381.540347-.54035.258356.64562.226582 1.41702-.07061 1.71421-.29719.29719-.508573-.23105-.469739-1.17386zm325.031489.52171c-.30402-.4919-.12654-.89436.3944-.89436.52093 0 .94715.40246.94715.89436s-.17748.89437-.3944.89437-.64314-.40247-.94715-.89437zm-17.66051-9.78562c-.7049-1.00636-1.53559-1.57579-1.846-1.26538-.31041.31042-3.46633-1.80509-7.01317-4.70111-7.74352-6.32267-29.91792-26.04641-32.70204-29.08791l-1.98229-2.16554 17.02752-13.25069c9.36513-7.28789 17.24939-13.02882 17.52058-12.75763 1.09661 1.0966-.68641 3.13289-4.12583 4.71185-2.2337 1.02545-3.54471 2.19041-3.39107 3.0133.33474 1.79291 4.35128 1.32835 8.05847-.93206 3.48028-2.12206 4.20237-2.17576 4.20237-.31253 0 1.11022.54192 1.30249 2.37466.8425 1.54357-.38741 2.63434-.18658 3.11659.57382 1.25509 1.97897.8516 4.06997-.87235 4.52079-1.49684.39143-1.57269 1.0068-.85981 6.97564.60137 5.03527 1.20734 6.84437 2.62519 7.83747 1.40962.98733 1.72085 1.90357 1.32276 3.89403-.28633 1.43161.0543 4.27151.75693 6.31092 1.43152 4.15503 1.20413 4.93854-1.76026 6.06561-3.48199 1.32385-3.63226 5.20975-.44409 11.48367 1.52525 3.00151 3.15559 5.69362 3.62298 5.98248 1.32133.81662 1.00502 1.94499-.71535 2.55181-.86083.30364-2.03068.77407-2.59966 1.0454-.56899.27133-1.61125-.33007-2.31613-1.33644zm-186.286625-16.25073c-.802917-2.52977 1.494727-5.03941 2.977738-3.25248 1.24511 1.50026.394308 5.14095-1.201393 5.14095-.647333 0-1.446691-.84981-1.776345-1.88847zm70.984045-16.25564c-10.166325-8.46704-24.13068-20.02297-31.031905-25.67983-6.901233-5.65687-12.568983-10.77596-12.595-11.37577-.02603-.59981 2.403179-3.53346 5.398242-6.51924 4.206812-4.19376 5.854485-5.29889 7.243221-4.85812 1.473164.46756 1.698714.25881 1.249537-1.15641-.650974-2.05103 1.526826-4.30117 5.002243-5.168401 1.317142-.328662 2.612515-1.164948 2.878625-1.858413.266101-.693455 1.306848-1.260832 2.312759-1.260832 1.921608 0 4.896619-1.439849 7.020497-3.397796.693188-.639033 2.453819-1.400568 3.912501-1.69231 1.4587-.291734 2.86187-1.076898 3.11817-1.74481.2563-.667913 1.4454-1.21438 2.64244-1.21438 1.19705 0 3.38819-.895886 4.86922-1.99085 1.76436-1.304451 2.90823-1.660408 3.31766-1.03242.66195 1.015275 9.44401.976531 11.91249-.05259 1.25452-.522998 8.71819-1.219575 15.99056-1.492384 1.22976-.04615 4.24824.428249 6.70775 1.054172 2.45951.625931 6.24894 1.169571 8.42098 1.208091 2.30893.04096 4.10433.534366 4.32277 1.187996.20549.614877 1.08263 1.117958 1.94921 1.117958.86657 0 2.29814.798418 3.18127 1.77427 1.0774 1.190518 2.27173 1.607096 3.63008 1.266172 1.49537-.375312 2.95163.329619 5.57266 2.697569 1.95155 1.763109 4.35076 3.20565 5.33158 3.20565.98083 0 2.78235.785844 4.00339 1.746313 1.67179 1.315022 2.47384 1.492554 3.24754.718846.77372-.773716 1.3526-.597579 2.34393.713195 1.5143 2.002284 1.79639 4.870974.47898 4.870974-.4919 0-.89437.47139-.89437 1.04753s-.64312 1.75818-1.42916 2.62674c-1.70448 1.88343-.932 3.64412 1.23422 2.81306.84507-.3242 3.28241-1.81586 5.41632-3.3148s4.68319-3.18182 5.66508-3.73972c.98189-.55792 2.23433-1.46346 2.7832-2.01233s1.62296-.99795 2.38685-.99795 4.4188-2.716637 8.12201-6.036972c8.05505-7.22223 16.39939-13.081428 17.91184-12.577274.60202.200669-2.68567 3.347487-7.30599 6.992924-4.62031 3.645445-14.2363 11.452796-21.36887 17.349682-7.13257 5.89689-17.39543 14.38114-22.80634 18.85389-5.41092 4.47276-19.38776 16.06517-31.05966 25.76093-11.67188 9.69575-21.53227 17.61371-21.91197 17.59546-.37968-.0182-9.00824-6.96078-19.17456-15.42782zm74.17714-38.92763c.19472-.58414-.28321-1.06206-1.06206-1.06206-.77884 0-1.41607.63723-1.41607 1.41607 0 1.57939 1.92535 1.30434 2.47813-.35401zm-266.174931 50.81117c0-1.22975.202998-1.73283.451106-1.11795.248108.61487.248108 1.62103 0 2.23591s-.451106.1118-.451106-1.11796zm313.781301-9.83802c0-.49191.40247-.89437.89437-.89437s.89436.40246.89436.89437c0 .4919-.40246.89436-.89436.89436s-.89437-.40246-.89437-.89436zm-313.621825-8.94367c0-3.68926.157872-5.1985.350826-3.35387s.192954 4.86312 0 6.70775-.350826.33538-.350826-3.35388zm-.07515-17.44014c.0099-1.9676.193079-2.66722.407006-1.55471.213926 1.11251.205804 2.72237-.01805 3.57747-.223852.85509-.398883-.0551-.388956-2.02276zm-.154937-9.01818c.04292-1.0419.254841-1.25382.540346-.54035.258357.64561.226583 1.417-.07061 1.7142-.297191.29719-.508573-.23105-.469739-1.17385zm145.711074-5.73886c0-.4919.402465-.89436.894367-.89436.491901 0 .894366.40246.894366.89436s-.402465.89437-.894366.89437c-.491902 0-.894367-.40247-.894367-.89437zm132.366188-12.52112c0-.4919.40247-.89437.89437-.89437s.89437.40247.89437.89437-.40247.89436-.89437.89436-.89437-.40246-.89437-.89436zm-268.016362-13.862678c.0039-3.44331.165622-4.742341.35923-2.886746.193609 1.855604.190362 4.672857-.0072 6.260563-.197545 1.587715-.355952.06949-.351985-3.373817zm307.368482-7.551402c0-.464006.74106-1.369552 1.64679-2.012324 4.17329-2.961631 4.80986-8.014996 1.2994-10.315306-2.01635-1.321256-4.66423-1.60977-15.875-1.729713-7.40024-.07915-20.17117.219585-28.37981.663915-8.20865.44433-33.76516.825607-56.79225.847286-37.21845.03506-50.340688-.310917-88.374476-2.329877-26.922523-1.429143-28.823838-1.427069-36.652609.039889-7.3318173 1.373862-7.9247999 1.369954-9.507743-.062606-.9285301-.840275-1.68823685-1.867884-1.68823685-2.283549 0-.415657 57.75369385-.755749 128.34154485-.755749 70.58785 0 128.34154.318144 128.34154.706997 0 .730348-20.97937 18.074692-21.86279 18.074692-.273 0-.49636-.37964-.49636-.843655zm-124.3169-.945077c0-.491901 1.2074-.894366 2.6831-.894366s2.6831.402465 2.6831.894366c0 .491902-1.2074.894366-2.6831.894366s-2.6831-.402464-2.6831-.894366zm24.14789 0c0-.491901.80493-.894366 1.78873-.894366s1.78873.402465 1.78873.894366c0 .491902-.80493.894366-1.78873.894366s-1.78873-.402464-1.78873-.894366zm19.67605 0c0-.491901 1.60986-.894366 3.57747-.894366 1.9676 0 3.57746.402465 3.57746.894366 0 .491902-1.60986.894366-3.57746.894366-1.96761 0-3.57747-.402464-3.57747-.894366zm-226.862401-7.602112c.0032-3.935211.160486-5.43382.349417-3.330235.18893 2.103585.186272 5.323303-.0059 7.154929-.192183 1.831626-.346762.110517-.343514-3.824694zm225.201781 4.122751c-.8459-.535994-.91362-.954182-.22359-1.380642 1.13443-.701121 2.77858.08899 2.77858 1.335324 0 1.039924-.95847 1.056926-2.55499.04534zm-26.44871-.780201c-1.27153-1.271529-.14875-1.810832 4.63222-2.224968 4.9281-.426881 8.27289.349196 8.27289 1.919515 0 .8233-12.10084 1.109721-12.90511.305453zm20.06004-.212269c0-.491901.40246-.894366.89436-.894366s.89437.402465.89437.894366c0 .491902-.40247.894367-.89437.894367s-.89436-.402465-.89436-.894367zm-27.00986-1.073239c.83474-.834739 1.31174-.834739 2.14648 0s .59625 1.073239-1.07324 1.073239-1.90798-.2385-1.07324-1.073239zm-121.0730298-38.745256c1.83799036-1.390525 2.8650608-1.169509 1.89079731.406883-.32423813.524626-1.27008491.94107-2.10188211.925427-1.3278189-.02495-1.302062-.187548.2110848-1.33231zm-73.6565332-4.005446c0-.737852.575174-2.347711 1.278165-3.577464.738651-1.292134 1.278165-1.669647 1.278165-.894366 0 .737852-.575174 2.347711-1.278165 3.577464-.738651 1.292136-1.278165 1.669648-1.278165.894366zm291.782393-68.047155c-1.85316-1.853164-73.71295-2.630229-145.393321-1.572227-20.536882.303123-37.339786.400765-37.339786.216981 0-1.013192 7.217615-3.10801 10.698488-3.105095 2.232204.0019 6.272109-.196264 8.977567-.440292 11.411298-1.029287 29.77064-1.757957 39.35211-1.561859 5.656866.115776 25.578872.143358 44.271122.06129 56.85205-.249598 72.78822.110648 77.18127 1.744727 3.30331 1.228731 5.5476 3.300113 5.5476 5.120186 0 .872178-2.28002.551309-3.29505-.463714z" fill="#275e62"/></g></svg>