<?xml version="1.0" standalone="no"?>
<!DOCTYPE svg PUBLIC "-//W3C//DTD SVG 20010904//EN"
 "http://www.w3.org/TR/2001/REC-SVG-20010904/DTD/svg10.dtd">
<svg version="1.0" xmlns="http://www.w3.org/2000/svg"
 width="720.000000pt" height="720.000000pt" viewBox="0 0 720.000000 720.000000"
 preserveAspectRatio="xMidYMid meet">
<metadata>
Created by potrace 1.11, written by Peter Selinger 2001-2013
</metadata>
<g transform="translate(0.000000,720.000000) scale(0.100000,-0.100000)"
fill="#000000" stroke="none">
<path d="M3465 5574 c-68 -7 -186 -34 -265 -61 -193 -64 -355 -168 -508 -328
-193 -199 -325 -441 -432 -790 -71 -234 -130 -660 -130 -952 l0 -123 -42 0
-43 1 -81 127 c-45 70 -136 211 -202 313 -66 102 -139 217 -162 256 -28 48
-52 75 -72 84 -33 14 -127 7 -238 -16 -39 -8 -122 -15 -184 -15 -74 0 -116 -4
-124 -12 -20 -20 -14 -82 10 -113 l21 -28 -24 13 c-65 34 -112 85 -147 159
-19 42 -42 84 -50 94 -15 17 -72 24 -86 10 -4 -4 -23 -8 -41 -9 -19 0 -43 -8
-53 -17 -10 -10 -30 -17 -44 -17 -43 0 -78 -36 -78 -79 0 -31 13 -55 65 -129
72 -101 202 -235 272 -282 l46 -30 196 0 c191 0 296 11 379 41 19 6 37 8 41 3
4 -5 92 -151 196 -324 103 -173 194 -322 202 -332 12 -14 31 -15 133 -11 l118
6 7 -49 c49 -378 122 -634 256 -896 142 -276 354 -515 595 -670 131 -84 336
-163 517 -199 136 -27 458 -31 557 -6 356 89 646 315 876 682 149 238 260 545
295 811 7 52 15 94 19 94 5 0 164 -142 223 -199 l28 -27 -31 -54 c-56 -103
-32 -188 90 -315 56 -58 69 -78 75 -115 6 -37 18 -55 69 -105 75 -75 179 -132
221 -121 15 4 47 25 69 47 23 22 57 50 76 62 19 12 46 40 60 61 15 21 40 44
56 51 17 7 46 30 65 52 l34 40 110 -88 c66 -54 123 -91 142 -95 90 -17 183 59
183 148 0 39 -30 107 -56 129 -10 9 -87 62 -171 119 l-152 103 24 42 c27 46
32 92 13 117 -17 22 -141 99 -230 144 -115 58 -193 84 -252 84 -48 0 -59 -5
-105 -41 -51 -41 -52 -41 -74 -23 -25 21 -249 228 -342 315 -33 31 -74 68 -91
83 -29 24 -32 33 -48 138 -28 191 -59 306 -136 513 -110 296 -141 438 -196
880 -30 246 -56 359 -104 455 -137 272 -438 385 -1050 394 -140 2 -273 2 -295
0z m400 -74 c551 -31 795 -139 898 -400 33 -83 51 -175 76 -380 29 -235 41
-315 57 -400 20 -100 70 -300 88 -347 116 -306 149 -415 183 -601 22 -122 25
-544 5 -662 -72 -416 -226 -759 -458 -1024 -176 -201 -375 -334 -601 -402 -76
-23 -111 -27 -258 -31 -141 -4 -191 -2 -291 15 -433 74 -795 323 -1027 707
-240 396 -361 876 -361 1435 -1 893 327 1648 843 1940 169 96 388 154 601 159
30 0 141 -4 245 -9z m-3094 -1350 c4 -8 22 -44 39 -80 39 -80 77 -121 155
-167 l60 -35 75 23 75 24 -51 6 c-72 9 -124 49 -124 97 0 4 47 5 105 4 58 -2
105 0 105 5 0 4 21 8 48 9 26 0 88 4 138 9 87 7 92 7 114 -15 27 -27 22 -75
-11 -102 l-21 -18 26 0 c23 0 26 -4 26 -32 0 -72 -57 -136 -142 -159 -72 -19
-271 -39 -390 -39 l-117 0 -78 72 c-123 112 -140 131 -199 209 -31 41 -60 73
-66 71 -5 -1 -7 2 -3 8 3 5 1 10 -4 10 -18 0 -12 36 8 54 11 10 31 16 47 14
24 -2 34 -15 70 -83 35 -67 54 -89 116 -138 l73 -59 -66 64 c-36 35 -86 98
-112 140 -41 69 -45 79 -31 93 33 33 52 19 98 -72 37 -72 54 -96 100 -130 66
-50 75 -44 11 7 -59 46 -143 193 -124 216 15 18 39 15 50 -6z m854 -255 c14
-30 30 -53 35 -50 4 3 7 -3 6 -13 0 -9 4 -16 11 -15 7 2 10 -3 8 -10 -3 -6 38
-86 91 -177 52 -91 120 -209 151 -263 l55 -98 -12 -52 c-7 -29 -17 -61 -22
-72 -5 -11 11 3 36 30 25 28 46 53 46 58 0 4 22 7 49 7 l49 0 4 -92 c2 -51 3
-94 3 -96 -1 -1 -51 -5 -111 -9 l-109 -6 -195 324 c-107 178 -197 327 -199
332 -1 4 13 24 33 44 41 41 51 80 42 159 -3 30 -4 54 -2 54 2 0 16 -25 31 -55z
m3820 -898 c66 -61 155 -144 198 -184 l78 -74 -18 -40 c-13 -31 -28 -45 -68
-63 -27 -13 -59 -30 -69 -39 -19 -14 -29 -6 -160 115 l-141 129 0 158 0 158
30 -24 c17 -14 84 -75 150 -136z m625 -225 c58 -27 147 -74 199 -106 89 -56
93 -60 87 -88 -3 -16 -57 -103 -120 -193 -63 -90 -120 -173 -126 -184 -16 -30
-28 -26 -45 15 -19 45 -19 93 -1 162 8 28 11 52 8 52 -4 0 -2 4 3 8 6 4 20 28
32 54 l22 47 -22 -8 c-14 -5 -28 -26 -41 -60 -17 -46 -22 -51 -48 -51 -39 0
-98 -57 -98 -94 0 -21 -5 -26 -26 -26 -32 0 -114 -77 -114 -108 0 -15 -9 -22
-30 -27 -17 -4 -36 -15 -42 -25 -10 -16 -19 -10 -84 53 -95 90 -134 150 -134
206 0 90 78 179 188 212 32 9 42 18 47 40 9 40 58 104 107 139 62 45 108 41
238 -18z m422 -443 c89 -60 168 -120 174 -132 37 -70 19 -143 -41 -171 -59
-28 -73 -23 -180 64 -38 31 -106 85 -149 120 -76 60 -78 61 -57 27 14 -22 20
-44 16 -56 -8 -26 -69 -79 -98 -86 -13 -4 -32 -22 -42 -41 -23 -43 -70 -84
-95 -84 -10 0 -27 -15 -39 -35 -33 -56 -59 -63 -122 -29 -29 16 -77 51 -106
78 -41 37 -53 55 -53 78 0 34 47 88 78 88 11 0 53 -30 93 -67 l74 -68 -68 82
-69 83 23 31 c12 17 37 38 56 46 l34 14 87 -78 c48 -43 78 -67 67 -55 l-19 23
25 -3 c23 -3 37 11 116 122 50 69 95 135 102 148 7 12 16 20 21 17 5 -3 82
-55 172 -116z m-459 24 c-13 -63 -8 -139 12 -170 l18 -28 -28 25 c-39 36 -81
91 -89 118 -6 18 0 30 27 57 19 19 42 35 51 35 14 0 16 -6 9 -37z"/>
<path d="M3143 5066 c-63 -15 -138 -44 -172 -68 -17 -12 -7 -13 74 -10 190 9
416 -55 489 -137 24 -26 67 -27 90 -2 22 24 31 88 17 123 -13 33 -45 55 -119
81 -76 26 -290 33 -379 13z"/>
<path d="M4030 5035 c-100 -17 -187 -51 -206 -80 -20 -31 -20 -109 0 -140 24
-37 72 -33 111 7 33 34 121 78 205 101 85 23 243 40 307 33 l58 -7 -30 20
c-40 28 -134 57 -222 70 -88 13 -127 13 -223 -4z"/>
<path d="M4252 4399 c-115 -58 -156 -222 -85 -338 85 -136 250 -130 326 13 32
61 31 175 -3 236 -52 93 -155 132 -238 89z m190 -56 c34 -31 12 -103 -33 -103
-44 0 -65 66 -32 102 20 22 41 23 65 1z m-182 -299 c0 -33 -33 -30 -38 4 -3
17 2 22 17 22 16 0 21 -6 21 -26z"/>
<path d="M3330 4308 c-145 -75 -166 -297 -37 -402 43 -34 127 -47 177 -26 68
28 130 133 130 218 0 93 -69 197 -147 220 -56 17 -72 15 -123 -10z m180 -48
c44 -24 26 -110 -23 -110 -31 0 -47 18 -47 55 0 40 12 55 48 64 2 1 12 -3 22
-9z m-172 -306 c4 -27 -24 -39 -36 -16 -5 9 -7 23 -5 30 8 20 38 9 41 -14z"/>
<path d="M3325 3281 c-56 -26 -91 -67 -109 -130 -20 -68 -20 -110 -1 -203 47
-220 218 -397 440 -453 76 -19 222 -19 304 0 154 37 321 168 388 307 97 197
80 417 -37 476 -56 28 -100 28 -248 0 -150 -28 -287 -28 -455 1 -157 26 -229
27 -282 2z"/>
</g>
</svg>
